<svg width="259" height="292" viewBox="0 0 259 292" fill="none" xmlns="http://www.w3.org/2000/svg">
<path d="M257.784 189.262C254.331 208.721 244.402 226.437 229.61 239.53C224.503 244.037 218.977 248.045 213.108 251.498C192.42 264.017 166.781 271.605 140.09 277.829L135.522 278.858C131.555 279.76 127.485 280.131 123.421 279.959C80.9687 278.188 52.0536 215.21 43.061 148.928C35.2164 89.9237 48.3465 23.0917 107.133 20.0756C129.208 18.9745 154.967 29.9855 178.883 47.6989C180.605 48.9675 182.327 50.2841 184.025 51.6245L185.077 52.4623C229.73 88.0806 266.202 145.84 257.784 189.262Z" fill="#FDE6D6"/>
<path d="M49.2863 244.458C52.6369 251.068 53.8663 259.441 47.141 262.123C39.6203 265.133 27.616 260.288 24.1449 249.257C21.9032 242.2 22.6745 232.369 28.9659 228.582C34.1003 225.336 45.2849 236.367 49.2863 244.458Z" fill="#F5F9FD"/>
<path d="M232.987 94.4025C229.942 91.9192 227.506 88.2284 230.088 85.7451C232.67 83.2618 239.636 83.0568 243.728 87.5905C246.334 90.4839 248.136 95.2227 246.163 98.1161C244.41 100.577 236.786 97.4326 232.987 94.4025Z" fill="#FFAD69"/>
<path fill-rule="evenodd" clip-rule="evenodd" d="M91.3639 55.9696C89.7828 55.802 88.1778 55.6823 86.5728 55.6105C86.4457 55.6468 86.3095 55.5989 86.2331 55.4911C86.1567 55.3834 86.1567 55.2391 86.2331 55.1313C86.3095 55.0236 86.4457 54.9757 86.5728 55.012C88.0089 55.012 89.4846 55.17 90.928 55.3246L90.93 55.3248C91.075 55.3403 91.2196 55.3558 91.3639 55.3711C91.445 55.3767 91.5199 55.4163 91.5701 55.4802C91.6203 55.5441 91.6411 55.6262 91.6274 55.7062C91.6076 55.8427 91.5004 55.9498 91.3639 55.9696ZM67.6479 57.6932C67.5185 57.6831 67.4065 57.5992 67.3605 57.4778C67.3144 57.3125 67.4109 57.1412 67.5761 57.0947C69.0853 56.6878 70.6663 56.3287 72.3672 56.0175C72.4435 55.9958 72.5254 56.0067 72.5935 56.0475C72.6615 56.0883 72.7097 56.1554 72.7265 56.2329C72.7562 56.3975 72.6504 56.5561 72.487 56.592C70.9059 56.9032 69.3488 57.2623 67.8396 57.6693L67.6479 57.6932ZM105.546 58.6508C107.079 59.0578 108.612 59.4887 110.145 59.9675H110.361C110.519 59.9675 110.648 59.8389 110.648 59.6802C110.648 59.5216 110.519 59.393 110.361 59.393C108.804 58.8902 107.246 58.4593 105.737 58.0523C105.651 58.023 105.557 58.0326 105.479 58.0786C105.4 58.1246 105.346 58.2024 105.33 58.2917C105.309 58.4471 105.398 58.5963 105.546 58.6508ZM58.6167 60.949C58.5066 60.94 58.4081 60.8773 58.3532 60.7815C58.2839 60.6293 58.3474 60.4495 58.4969 60.3745C59.9343 59.7281 61.4195 59.1057 62.9527 58.5551C63.0255 58.5241 63.1079 58.5245 63.1805 58.5562C63.253 58.5879 63.3093 58.6481 63.3359 58.7226C63.387 58.8744 63.3144 59.0401 63.1683 59.1057C61.6591 59.6563 60.1738 60.2787 58.7604 60.9251L58.6167 60.949ZM114.721 61.4757C116.206 62.0024 117.715 62.5769 119.2 63.1515L119.416 63.1754C119.575 63.1754 119.703 63.0468 119.703 62.8882C119.703 62.7295 119.575 62.6009 119.416 62.6009C117.931 62.0263 116.421 61.4518 114.912 60.9251C114.761 60.8847 114.602 60.9543 114.529 61.0927C114.481 61.251 114.565 61.4192 114.721 61.4757ZM50.3281 65.737C50.2324 65.7436 50.1406 65.6978 50.0886 65.6173C50.0344 65.5634 50.004 65.4902 50.004 65.4138C50.004 65.3374 50.0344 65.2642 50.0886 65.2103C51.4061 64.2767 52.7476 63.3909 54.137 62.6009C54.2779 62.5498 54.4352 62.6062 54.5114 62.7351C54.5876 62.864 54.5612 63.0289 54.4485 63.1276C53.083 63.9176 51.7175 64.7794 50.4479 65.6891C50.4192 65.7109 50.3867 65.7272 50.3521 65.737H50.3281ZM127.872 66.9579H128.016H128.04C128.139 66.9546 128.23 66.9003 128.279 66.8143C128.312 66.7445 128.315 66.6647 128.288 66.5927C128.261 66.5207 128.206 66.4626 128.136 66.4312C126.698 65.737 125.237 65.0906 123.752 64.4442C123.682 64.4119 123.602 64.409 123.53 64.436C123.458 64.463 123.4 64.5177 123.368 64.5879C123.299 64.7401 123.363 64.9198 123.512 64.9949C124.973 65.6173 126.459 66.2876 127.872 66.9579ZM43.1274 72.0138C43.0693 72.031 43.0072 72.0295 42.9498 72.0092C42.8957 71.9553 42.8653 71.8821 42.8653 71.8057C42.8653 71.7294 42.8957 71.6561 42.9498 71.6022C44.0757 70.4292 45.3454 69.2083 46.4473 68.2746C46.5678 68.1591 46.758 68.1591 46.8785 68.2746C46.9941 68.395 46.9941 68.5851 46.8785 68.7055C45.7047 69.7349 44.483 70.8362 43.4289 71.9853C43.3399 72.0464 43.2258 72.0569 43.1274 72.0138ZM144.928 76.079H144.785C143.443 75.2411 142.054 74.4271 140.664 73.685C140.574 73.6294 140.521 73.5301 140.524 73.4245C140.528 73.319 140.587 73.2232 140.68 73.1732C140.773 73.1232 140.886 73.1267 140.976 73.1823C141.702 73.5951 142.428 74.0211 143.147 74.443L143.148 74.4433C143.805 74.8286 144.456 75.2106 145.096 75.5762C145.15 75.6301 145.181 75.7034 145.181 75.7797C145.181 75.8561 145.15 75.9293 145.096 75.9832C145.054 76.0352 144.994 76.0694 144.928 76.079ZM36.9849 79.4784H37.1526C37.2493 79.5217 37.3626 79.5028 37.44 79.4305C38.2209 78.1651 39.0576 77.104 39.9009 76.0345C40.0148 75.8901 40.1288 75.7455 40.2428 75.6002C40.3047 75.5456 40.3402 75.4672 40.3402 75.3847C40.3402 75.3023 40.3047 75.2238 40.2428 75.1693C40.1889 75.1152 40.1156 75.0848 40.0392 75.0848C39.9628 75.0848 39.8895 75.1152 39.8356 75.1693C38.8534 76.4141 37.8952 77.7069 36.9849 79.0714C36.9308 79.1253 36.9003 79.1986 36.9003 79.2749C36.9003 79.3513 36.9308 79.4245 36.9849 79.4784ZM153.001 81.2739C152.949 81.2996 152.887 81.2996 152.834 81.2739L148.857 78.5926C148.718 78.5067 148.675 78.3245 148.761 78.1857C148.847 78.0468 149.03 78.004 149.169 78.0899C150.526 78.9517 151.868 79.8375 153.193 80.7472C153.294 80.8641 153.294 81.0373 153.193 81.1542C153.153 81.2236 153.081 81.2685 153.001 81.2739ZM32.4573 87.7376C32.3806 87.7068 32.3208 87.6445 32.2933 87.5666C32.2658 87.4887 32.2732 87.4027 32.3136 87.3306C32.9843 85.8703 33.7269 84.4339 34.4935 83.0454C34.5234 82.9174 34.6306 82.822 34.7613 82.8071C34.892 82.7921 35.0179 82.8608 35.0761 82.9787C35.1342 83.0966 35.112 83.2383 35.0205 83.3327C34.254 84.6973 33.5353 86.1337 32.8406 87.594C32.8092 87.6642 32.751 87.7189 32.679 87.7459C32.607 87.7729 32.5271 87.7699 32.4573 87.7376ZM168.165 92.765C168.227 92.789 168.295 92.789 168.357 92.765C168.424 92.7686 168.491 92.7519 168.549 92.7171C168.603 92.6632 168.633 92.59 168.633 92.5136C168.633 92.4372 168.603 92.364 168.549 92.3101C167.687 91.6486 166.894 90.997 166.113 90.3553L166.113 90.355C165.678 89.9981 165.248 89.6444 164.811 89.2937C164.679 89.221 164.513 89.254 164.418 89.3721C164.324 89.4902 164.328 89.6591 164.428 89.7725C165.354 90.4337 166.189 91.1291 167.028 91.8273C167.403 92.1402 167.78 92.4537 168.165 92.765ZM29.0796 96.7629C28.9317 96.698 28.8512 96.537 28.8879 96.3799C29.391 94.8238 29.918 93.2916 30.4929 91.8313C30.5659 91.6929 30.725 91.6234 30.8762 91.6637C30.9508 91.6904 31.0111 91.7466 31.0428 91.8191C31.0745 91.8916 31.0749 91.974 31.0439 92.0468C30.4929 93.4832 29.9659 95.0153 29.4629 96.5474C29.4163 96.7125 29.2449 96.8089 29.0796 96.7629ZM175.663 99.0283C175.631 99.0283 175.599 99.0233 175.568 99.0132C174.394 97.9359 173.172 96.8826 171.95 95.8532C171.846 95.7286 171.846 95.5469 171.95 95.4223C172.071 95.3068 172.261 95.3068 172.381 95.4223L175.999 98.5823C176.103 98.7069 176.103 98.8886 175.999 99.0132C175.899 99.0838 175.767 99.0889 175.663 99.0283ZM26.4829 105.926C26.5288 105.995 26.6021 106.041 26.684 106.052C26.775 106.059 26.8646 106.026 26.9292 105.961C26.9937 105.897 27.0267 105.807 27.0194 105.716C27.3548 104.16 27.7141 102.58 28.1213 101.048C28.1529 100.891 28.0595 100.735 27.9057 100.689C27.8263 100.659 27.7379 100.666 27.664 100.708C27.59 100.749 27.5383 100.821 27.5225 100.904C27.4449 101.239 27.3673 101.57 27.2904 101.899C26.987 103.195 26.6929 104.451 26.4445 105.692C26.4231 105.772 26.4371 105.857 26.4829 105.926ZM189.366 112.467C189.297 112.498 189.219 112.498 189.15 112.467C188.072 111.294 186.946 110.073 185.844 108.996C185.729 108.876 185.729 108.686 185.844 108.565C185.969 108.461 186.151 108.461 186.276 108.565C186.751 109.061 187.231 109.575 187.71 110.087L187.71 110.087L187.71 110.088C188.341 110.762 188.969 111.435 189.581 112.06C189.697 112.181 189.697 112.371 189.581 112.491C189.509 112.504 189.434 112.496 189.366 112.467ZM24.7915 115.173C24.777 115.336 24.8924 115.483 25.055 115.508C25.2112 115.524 25.355 115.421 25.3904 115.268C25.5821 113.616 25.7977 112.013 26.0372 110.48C26.0592 110.403 26.0449 110.32 25.9982 110.255C25.9516 110.19 25.8778 110.149 25.7977 110.145C25.7213 110.131 25.6426 110.149 25.5794 110.194C25.5162 110.239 25.474 110.308 25.4623 110.385C25.1988 111.965 24.9832 113.569 24.7915 115.173ZM195.738 119.649C195.661 119.681 195.575 119.681 195.499 119.649L192.36 116.01C192.306 115.957 192.276 115.883 192.276 115.807C192.276 115.731 192.306 115.657 192.36 115.603C192.415 115.542 192.493 115.506 192.576 115.506C192.658 115.506 192.737 115.542 192.792 115.603C193.553 116.453 194.328 117.355 195.106 118.261C195.38 118.58 195.655 118.9 195.93 119.218C196.045 119.339 196.045 119.529 195.93 119.649C195.868 119.673 195.8 119.673 195.738 119.649ZM24.0762 124.967C24.1309 125.026 24.2079 125.06 24.2885 125.06C24.4434 125.062 24.5761 124.949 24.5999 124.796C24.6289 124.149 24.6812 123.499 24.7334 122.85C24.8106 121.891 24.8874 120.937 24.8874 120.008C24.8891 119.84 24.7662 119.697 24.5999 119.673C24.5196 119.667 24.4402 119.694 24.3809 119.748C24.3217 119.803 24.2882 119.88 24.2885 119.961C24.2627 120.3 24.2347 120.641 24.2067 120.983C24.1043 122.23 24.001 123.489 24.001 124.748C23.9943 124.829 24.0216 124.908 24.0762 124.967ZM201.823 127.142C201.747 127.177 201.659 127.177 201.583 127.142C200.601 125.85 199.619 124.581 198.637 123.36C198.583 123.306 198.552 123.233 198.552 123.156C198.552 123.08 198.583 123.007 198.637 122.953C198.691 122.891 198.77 122.856 198.852 122.856C198.935 122.856 199.013 122.891 199.068 122.953C199.359 123.324 199.655 123.691 199.953 124.061L199.953 124.061L199.953 124.061L199.954 124.061L199.954 124.061L199.954 124.061L199.954 124.062L199.954 124.062L199.954 124.062L199.954 124.062L199.954 124.062L199.954 124.062L199.955 124.063L199.955 124.063L199.955 124.063L199.955 124.063L199.955 124.063L199.955 124.063L199.955 124.063L199.955 124.063L199.955 124.064L199.956 124.064L199.956 124.064L199.956 124.064L199.956 124.064L199.956 124.064L199.956 124.064L199.956 124.064L199.956 124.064L199.956 124.065L199.956 124.065L199.956 124.065L199.957 124.065L199.957 124.065C200.638 124.91 201.332 125.771 202.014 126.735C202.13 126.856 202.13 127.046 202.014 127.166L201.823 127.142ZM24.001 134.372C24.001 134.531 24.1297 134.66 24.2885 134.66H24.3124C24.393 134.66 24.47 134.626 24.5247 134.567C24.5793 134.508 24.6066 134.429 24.5999 134.348V130.997V129.56C24.6002 129.48 24.5666 129.403 24.5074 129.348C24.4482 129.294 24.3688 129.266 24.2885 129.273C24.1297 129.273 24.001 129.402 24.001 129.56V130.997V134.372ZM207.309 134.947C207.223 134.978 207.13 134.978 207.045 134.947C206.183 133.654 205.272 132.337 204.338 130.997C204.284 130.943 204.254 130.87 204.254 130.793C204.254 130.717 204.284 130.644 204.338 130.59C204.459 130.474 204.649 130.474 204.769 130.59C205.728 131.906 206.638 133.247 207.5 134.54C207.601 134.657 207.601 134.83 207.5 134.947C207.439 134.973 207.37 134.973 207.309 134.947ZM212.148 142.943C212.193 143.032 212.286 143.088 212.387 143.086L212.555 142.943C212.609 142.889 212.639 142.816 212.639 142.739C212.639 142.663 212.609 142.59 212.555 142.536C211.86 141.171 211.022 139.807 210.159 138.418C210.042 138.317 209.869 138.317 209.752 138.418C209.647 138.543 209.647 138.724 209.752 138.849C210.212 139.667 210.697 140.486 211.183 141.304L211.183 141.305C211.507 141.851 211.831 142.397 212.148 142.943ZM24.6718 144.235C24.5219 144.236 24.3968 144.121 24.3843 143.972C24.3843 142.994 24.2978 142.016 24.2132 141.059C24.157 140.423 24.1016 139.796 24.0729 139.184C24.0724 139.021 24.1978 138.885 24.3603 138.873C24.4406 138.866 24.5201 138.893 24.5793 138.948C24.6385 139.003 24.672 139.08 24.6718 139.16C24.6718 140.276 24.7703 141.417 24.8703 142.573C24.9097 143.029 24.9493 143.488 24.9832 143.948C24.9899 144.028 24.9626 144.108 24.9079 144.167C24.8533 144.226 24.7763 144.26 24.6957 144.259L24.6718 144.235ZM216.651 151.369C216.714 151.469 216.821 151.532 216.939 151.537V151.513C217.088 151.438 217.152 151.258 217.082 151.106C216.388 149.694 215.645 148.257 214.879 146.821C214.795 146.68 214.617 146.628 214.471 146.701C214.37 146.818 214.37 146.991 214.471 147.108C215.238 148.545 215.98 149.981 216.651 151.369ZM25.6779 153.787C25.523 153.789 25.3903 153.677 25.3665 153.524C25.1748 151.944 24.9832 150.34 24.8155 148.736C24.8017 148.656 24.8226 148.574 24.8728 148.51C24.923 148.446 24.9979 148.407 25.079 148.401C25.2428 148.386 25.3897 148.502 25.4144 148.664C25.5821 150.244 25.7737 151.848 25.9654 153.452C25.9791 153.532 25.9583 153.614 25.9081 153.678C25.8578 153.742 25.7829 153.782 25.7018 153.787H25.6779ZM220.436 160.131C220.485 160.247 220.598 160.323 220.724 160.323L220.819 160.299C220.894 160.272 220.954 160.216 220.986 160.144C221.018 160.071 221.018 159.989 220.987 159.916C220.436 158.432 219.813 156.947 219.167 155.463C219.091 155.314 218.912 155.25 218.759 155.32C218.689 155.351 218.634 155.409 218.607 155.481C218.58 155.553 218.583 155.633 218.616 155.703C219.262 157.187 219.861 158.671 220.436 160.131ZM27.1152 163.268C26.9734 163.269 26.8514 163.168 26.8278 163.028C26.5403 161.448 26.2768 159.844 26.0372 158.24C26.0235 158.157 26.0437 158.073 26.0933 158.005C26.1429 157.938 26.2177 157.893 26.3007 157.881C26.4646 157.867 26.6114 157.982 26.6361 158.144C26.8168 159.336 27.0111 160.528 27.2087 161.74L27.2088 161.74C27.2732 162.135 27.3379 162.532 27.4027 162.932C27.4323 163.097 27.3266 163.256 27.1631 163.291L27.1152 163.268ZM223.646 169.181C223.67 169.32 223.792 169.422 223.934 169.42L224.006 169.396C224.083 169.379 224.15 169.331 224.191 169.263C224.232 169.195 224.243 169.113 224.221 169.037C223.79 167.529 223.311 165.973 222.808 164.441C222.786 164.362 222.732 164.296 222.659 164.259C222.586 164.223 222.501 164.219 222.424 164.249C222.346 164.271 222.28 164.325 222.243 164.398C222.206 164.471 222.203 164.556 222.233 164.632C222.736 166.14 223.215 167.696 223.646 169.181ZM29.0796 172.676C28.9378 172.678 28.8157 172.576 28.7921 172.436C28.4328 170.856 28.0974 169.276 27.8099 167.648C27.7885 167.569 27.8025 167.484 27.8484 167.415C27.8943 167.346 27.9675 167.3 28.0495 167.289C28.1259 167.276 28.2046 167.293 28.2678 167.338C28.3309 167.383 28.3732 167.452 28.3849 167.529C28.514 168.164 28.6472 168.807 28.7828 169.462L28.7828 169.462L28.7829 169.463L28.7833 169.465L28.7833 169.465C28.9747 170.389 29.1709 171.337 29.367 172.317C29.3887 172.393 29.3778 172.475 29.337 172.543C29.2961 172.611 29.229 172.659 29.1514 172.676H29.0796ZM225.563 178.469C225.597 178.613 225.727 178.713 225.874 178.709L225.922 178.685C225.999 178.673 226.067 178.631 226.113 178.568C226.158 178.505 226.175 178.426 226.162 178.35C225.922 176.722 225.635 175.142 225.275 173.562C225.239 173.398 225.081 173.293 224.916 173.322C224.762 173.368 224.669 173.524 224.7 173.681C225.036 175.357 225.323 176.937 225.563 178.469ZM31.3314 182.228C31.1969 182.232 31.0775 182.143 31.0439 182.012V181.773C30.6367 180.217 30.2294 178.661 29.8461 176.985C29.828 176.823 29.9291 176.671 30.0857 176.626C30.2412 176.605 30.3904 176.694 30.445 176.841L30.4451 176.841C30.8283 178.397 31.2116 179.954 31.6189 181.486V181.725C31.6649 181.89 31.5685 182.062 31.4033 182.108L31.3314 182.228ZM226.401 187.997C226.401 188.156 226.53 188.285 226.689 188.285L226.713 188.261C226.875 188.248 227 188.112 227 187.949C226.989 187.207 226.935 186.453 226.881 185.699C226.821 184.849 226.76 183.999 226.76 183.161C226.754 183.079 226.715 183.002 226.653 182.948C226.59 182.894 226.508 182.868 226.425 182.874C226.344 182.88 226.269 182.919 226.219 182.983C226.169 183.047 226.148 183.129 226.162 183.209C226.281 184.813 226.401 186.417 226.401 187.997ZM33.8707 191.445C33.745 191.445 33.6316 191.369 33.5832 191.253C33.1281 189.721 32.6729 188.165 32.2417 186.633C32.2201 186.556 32.2309 186.475 32.2718 186.407C32.3126 186.339 32.3797 186.29 32.4573 186.274C32.5304 186.251 32.6093 186.259 32.6768 186.295C32.7442 186.331 32.7945 186.392 32.8166 186.465C33.2478 188.021 33.703 189.553 34.1581 191.062C34.2063 191.22 34.1221 191.388 33.9665 191.445H33.8707ZM225.884 197.791C225.935 197.851 226.011 197.886 226.09 197.884L226.186 197.86C226.313 197.831 226.408 197.726 226.425 197.597C226.461 197.264 226.5 196.928 226.54 196.59L226.54 196.59L226.54 196.59L226.54 196.589L226.54 196.589L226.54 196.588L226.54 196.588C226.685 195.351 226.832 194.087 226.832 192.809C226.823 192.65 226.702 192.52 226.545 192.498C226.465 192.491 226.385 192.518 226.326 192.573C226.267 192.628 226.233 192.705 226.233 192.785C226.138 194.413 225.994 196.017 225.826 197.573C225.812 197.651 225.833 197.731 225.884 197.791ZM36.8412 200.59C36.7117 200.579 36.5997 200.495 36.5537 200.374C36.0506 198.866 35.5476 197.358 35.0684 195.826C35.0556 195.682 35.1433 195.548 35.2802 195.503C35.4171 195.457 35.5674 195.511 35.6434 195.634C36.1224 197.166 36.6254 198.674 37.1284 200.182L37.1284 200.182L37.1286 200.183C37.1588 200.259 37.1551 200.344 37.1185 200.417C37.0819 200.49 37.0159 200.544 36.937 200.566L36.8412 200.59ZM224.245 206.862C224.215 207.026 224.321 207.185 224.485 207.221L224.628 207.436C224.728 207.411 224.81 207.342 224.852 207.249C224.894 207.156 224.891 207.048 224.844 206.958C225.179 205.306 225.491 203.726 225.73 202.17C225.744 202.093 225.727 202.015 225.681 201.951C225.636 201.888 225.568 201.846 225.491 201.834C225.326 201.805 225.167 201.911 225.131 202.074C224.892 203.702 224.58 205.282 224.245 206.862ZM39.9075 209.615C39.7817 209.615 39.6683 209.539 39.62 209.423C39.069 207.939 38.518 206.431 37.991 204.923C37.9315 204.771 38.0066 204.599 38.1587 204.54C38.3109 204.48 38.4825 204.555 38.542 204.707C38.7257 205.21 38.9067 205.713 39.0877 206.216C39.4497 207.221 39.8117 208.226 40.1949 209.232C40.2431 209.39 40.1589 209.558 40.0033 209.615H39.9075ZM221.778 216.15C221.73 216.309 221.814 216.477 221.969 216.533H222.065C222.191 216.533 222.304 216.458 222.353 216.342C222.856 214.834 223.335 213.278 223.766 211.745C223.806 211.587 223.709 211.426 223.55 211.386C223.392 211.347 223.231 211.443 223.191 211.602C222.76 213.11 222.305 214.642 221.778 216.15ZM43.4529 218.544C43.3378 218.552 43.231 218.484 43.1894 218.377C42.5665 216.893 41.9676 215.408 41.3927 213.924C41.3533 213.849 41.3492 213.76 41.3816 213.681C41.4139 213.603 41.4794 213.543 41.5604 213.517C41.7188 213.469 41.8872 213.553 41.9437 213.709C42.5186 215.193 43.1175 216.677 43.7403 218.137C43.7939 218.296 43.7223 218.47 43.5727 218.544H43.4529ZM218.184 224.984C218.115 225.136 218.179 225.316 218.328 225.391C218.48 225.46 218.66 225.397 218.735 225.247C219.43 223.835 220.077 222.351 220.7 220.867C220.751 220.715 220.678 220.549 220.532 220.483C220.462 220.451 220.382 220.448 220.31 220.475C220.238 220.502 220.18 220.557 220.149 220.627C219.526 222.111 218.879 223.572 218.184 224.984ZM47.3337 227.354C47.2205 227.355 47.1173 227.289 47.0702 227.187C46.3994 225.726 45.7526 224.266 45.1058 222.782C45.0735 222.712 45.0705 222.632 45.0975 222.56C45.1245 222.488 45.1793 222.43 45.2495 222.399C45.3248 222.359 45.4137 222.355 45.4923 222.388C45.5708 222.42 45.6311 222.485 45.6568 222.566C46.1455 223.712 46.6636 224.858 47.1766 225.992L47.1771 225.993L47.1774 225.994C47.318 226.305 47.4581 226.614 47.5972 226.923C47.6665 227.076 47.603 227.255 47.4534 227.33L47.3337 227.354ZM213.513 233.746H213.657L213.705 233.77C213.83 233.798 213.96 233.751 214.04 233.65C214.406 233.011 214.788 232.361 215.173 231.705L215.174 231.703C215.596 230.984 216.022 230.258 216.436 229.533C216.527 229.438 216.549 229.297 216.491 229.179C216.433 229.061 216.307 228.992 216.176 229.007C216.046 229.022 215.939 229.117 215.909 229.245C215.19 230.634 214.375 231.999 213.513 233.339C213.459 233.393 213.428 233.466 213.428 233.543C213.428 233.619 213.459 233.692 213.513 233.746ZM51.5019 235.996C51.3887 235.997 51.2856 235.932 51.2384 235.829C50.4958 234.392 49.7771 232.932 49.1064 231.52C49.0741 231.45 49.0711 231.37 49.0981 231.298C49.1251 231.226 49.1799 231.168 49.2501 231.137C49.3592 231.039 49.5243 231.039 49.6334 231.137L51.7654 235.446C51.8385 235.592 51.7862 235.77 51.6457 235.853L51.5019 235.996ZM207.836 241.479H208.027H208.075C208.122 241.492 208.172 241.492 208.219 241.479C209.249 240.234 210.231 238.941 211.165 237.672C211.22 237.618 211.25 237.545 211.25 237.469C211.25 237.392 211.22 237.319 211.165 237.265C211.111 237.211 211.038 237.181 210.962 237.181C210.885 237.181 210.812 237.211 210.758 237.265C209.994 238.401 209.198 239.376 208.383 240.375L208.383 240.375C208.201 240.597 208.019 240.821 207.836 241.048C207.72 241.168 207.72 241.358 207.836 241.479ZM56.0535 244.447C55.9468 244.448 55.8474 244.393 55.79 244.304L55.609 243.981C54.899 242.717 54.167 241.414 53.3944 240.09C53.3625 239.954 53.4256 239.813 53.5485 239.746C53.6715 239.679 53.824 239.702 53.9214 239.803C54.688 241.239 55.4785 242.652 56.317 243.992C56.418 244.109 56.418 244.282 56.317 244.399L56.0535 244.447ZM201.368 248.565C201.428 248.595 201.499 248.595 201.559 248.565C201.615 248.603 201.683 248.62 201.751 248.613C202.806 247.624 203.841 246.495 204.819 245.428L204.819 245.427L204.82 245.426L204.82 245.426L205.081 245.141C205.196 245.021 205.196 244.831 205.081 244.711C205.027 244.656 204.953 244.626 204.877 244.626C204.801 244.626 204.727 244.656 204.673 244.711C204.097 245.286 203.5 245.919 202.893 246.562C202.389 247.096 201.878 247.637 201.368 248.158C201.307 248.208 201.271 248.283 201.271 248.361C201.271 248.44 201.307 248.515 201.368 248.565ZM60.9883 252.635C60.8827 252.631 60.7851 252.578 60.7248 252.491C59.8864 251.174 59.024 249.786 58.1855 248.421C58.0845 248.304 58.0845 248.131 58.1855 248.014C58.2395 247.96 58.3127 247.93 58.3891 247.93C58.4655 247.93 58.5388 247.96 58.5928 248.014C59.279 249.164 59.9993 250.314 60.7106 251.449L60.7152 251.456L60.746 251.506L60.7602 251.528L60.7826 251.564L61.1081 252.084C61.2091 252.201 61.2091 252.374 61.1081 252.491L60.9883 252.635ZM194.205 254.909C194.265 254.98 194.351 255.024 194.444 255.029L194.516 255.005C194.544 254.985 194.568 254.96 194.588 254.933L198.229 251.797C198.345 251.676 198.345 251.486 198.229 251.366C198.175 251.312 198.102 251.281 198.026 251.281C197.949 251.281 197.876 251.312 197.822 251.366C197.347 251.775 196.879 252.185 196.413 252.593L196.412 252.594C195.68 253.235 194.951 253.873 194.205 254.502C194.151 254.556 194.12 254.629 194.12 254.705C194.12 254.782 194.151 254.855 194.205 254.909ZM66.4023 260.607C66.3029 260.603 66.2123 260.549 66.1627 260.463C65.2284 259.218 64.2942 257.901 63.3839 256.561C63.2792 256.436 63.2792 256.254 63.3839 256.13C63.5044 256.014 63.6946 256.014 63.8151 256.13C64.7254 257.446 65.6596 258.763 66.5699 260.032C66.6241 260.086 66.6545 260.159 66.6545 260.235C66.6545 260.312 66.6241 260.385 66.5699 260.439C66.5522 260.495 66.519 260.545 66.4741 260.583L66.4023 260.607ZM186.587 260.846C186.663 260.881 186.751 260.881 186.827 260.846L186.898 260.822C186.921 260.834 186.945 260.842 186.97 260.846C188.312 259.912 189.605 258.955 190.851 257.997C190.905 257.943 190.936 257.87 190.936 257.794C190.936 257.717 190.905 257.644 190.851 257.59C190.797 257.536 190.724 257.506 190.648 257.506C190.571 257.506 190.498 257.536 190.444 257.59C189.323 258.452 188.163 259.294 186.982 260.152L186.587 260.439C186.533 260.493 186.503 260.566 186.503 260.642C186.503 260.719 186.533 260.792 186.587 260.846ZM178.802 266.137C178.701 266.138 178.608 266.083 178.562 265.993C178.508 265.939 178.477 265.866 178.477 265.789C178.477 265.713 178.508 265.64 178.562 265.586C179.951 264.724 181.317 263.862 182.61 263C182.664 262.946 182.738 262.916 182.814 262.916C182.89 262.916 182.964 262.946 183.018 263C183.072 263.054 183.102 263.128 183.102 263.204C183.102 263.28 183.072 263.354 183.018 263.407C181.724 264.269 180.359 265.131 178.969 265.993L178.802 266.137ZM72.1276 268.124C72.2048 268.153 72.2901 268.153 72.3672 268.124L72.5828 268.171C72.6984 268.051 72.6984 267.861 72.5828 267.741C72.047 267.052 71.5045 266.411 70.9624 265.771L70.9622 265.771C70.4863 265.209 70.0107 264.647 69.5404 264.054C69.4412 263.928 69.2589 263.907 69.1332 264.006C69.0075 264.105 68.986 264.287 69.0853 264.413C70.0914 265.73 71.0975 266.951 72.1276 268.124ZM170.585 270.948C170.475 270.939 170.376 270.877 170.321 270.781C170.248 270.635 170.3 270.457 170.441 270.374C171.854 269.608 173.268 268.818 174.609 267.98C174.726 267.879 174.9 267.879 175.017 267.98C175.071 268.034 175.101 268.107 175.101 268.183C175.101 268.26 175.071 268.333 175.017 268.387L170.824 270.781L170.585 270.948ZM78.7873 275.114C78.8489 275.138 78.9173 275.138 78.9789 275.114V275.09C79.0467 275.124 79.1267 275.124 79.1945 275.09C79.2554 275.04 79.2907 274.965 79.2907 274.887C79.2907 274.808 79.2554 274.733 79.1945 274.683C78.0925 273.654 76.9666 272.457 75.8407 271.26C75.7202 271.144 75.53 271.144 75.4095 271.26C75.3486 271.31 75.3133 271.384 75.3133 271.463C75.3133 271.542 75.3486 271.617 75.4095 271.667C76.5434 272.864 77.6693 274.013 78.7873 275.114ZM162.057 275.353C161.943 275.354 161.84 275.289 161.793 275.186C161.753 275.114 161.745 275.028 161.773 274.95C161.8 274.872 161.86 274.81 161.937 274.779L166.201 272.624C166.295 272.533 166.437 272.511 166.555 272.569C166.673 272.627 166.742 272.753 166.727 272.883C166.712 273.014 166.616 273.121 166.488 273.151C165.051 273.893 163.638 274.611 162.176 275.305L162.057 275.353ZM153.097 279.232C153.137 279.344 153.242 279.42 153.361 279.423L153.481 279.399L157.84 277.388C157.97 277.37 158.075 277.271 158.101 277.143C158.127 277.014 158.07 276.883 157.958 276.815C157.846 276.746 157.703 276.755 157.601 276.838C156.584 277.329 155.555 277.796 154.522 278.265L154.52 278.266L154.519 278.266L154.518 278.267L154.518 278.267L154.517 278.267L154.516 278.268L154.515 278.268L154.515 278.268L154.514 278.269L154.513 278.269L154.512 278.269L154.511 278.27L154.511 278.27L154.51 278.271C154.087 278.462 153.664 278.654 153.241 278.849C153.171 278.88 153.116 278.938 153.089 279.01C153.062 279.082 153.065 279.162 153.097 279.232ZM86.2853 281.386C86.2309 281.404 86.172 281.404 86.1176 281.386C85.378 280.818 84.6722 280.232 83.9399 279.625L83.9393 279.624L83.9387 279.624L83.9368 279.622C83.4368 279.208 82.9244 278.783 82.3806 278.346C82.2549 278.24 82.2388 278.053 82.3446 277.927C82.4505 277.801 82.6382 277.785 82.7639 277.891L83.0321 278.122L83.0325 278.123C84.1589 279.095 85.2562 280.042 86.477 280.907C86.5388 280.962 86.5743 281.04 86.5743 281.123C86.5743 281.205 86.5388 281.284 86.477 281.338C86.4045 281.381 86.3169 281.39 86.2374 281.362L86.2853 281.386ZM144.33 283.038C144.371 283.146 144.478 283.213 144.593 283.206L144.713 283.182C146.198 282.583 147.659 281.961 149.145 281.314C149.215 281.283 149.27 281.225 149.297 281.153C149.324 281.081 149.321 281.001 149.288 280.931C149.215 280.793 149.056 280.723 148.905 280.764C147.444 281.41 145.959 282.033 144.473 282.631C144.324 282.706 144.26 282.886 144.33 283.038ZM94.2865 286.581H94.1427C92.8804 285.907 91.6182 285.154 90.3738 284.411L89.9984 284.187C89.8974 284.07 89.8974 283.897 89.9984 283.78C90.0524 283.726 90.1256 283.696 90.202 283.696C90.2785 283.696 90.3517 283.726 90.4057 283.78C91.7472 284.666 93.1366 285.48 94.5021 286.174C94.6031 286.291 94.6031 286.464 94.5021 286.581C94.4296 286.599 94.3531 286.591 94.2865 286.557V286.581ZM135.394 286.605C135.434 286.717 135.539 286.793 135.658 286.797L135.777 286.773L140.233 285.001C140.379 284.936 140.452 284.77 140.401 284.618C140.335 284.472 140.169 284.399 140.018 284.45L135.562 286.222C135.482 286.242 135.416 286.297 135.383 286.372C135.351 286.447 135.354 286.533 135.394 286.605ZM126.698 290.172C126.564 290.176 126.444 290.087 126.411 289.957C126.363 289.798 126.447 289.63 126.602 289.574C127.297 289.358 128.016 289.095 128.734 288.831L131.13 287.946C131.203 287.915 131.285 287.915 131.358 287.947C131.43 287.979 131.487 288.039 131.513 288.113C131.553 288.185 131.557 288.271 131.524 288.346C131.491 288.421 131.425 288.477 131.346 288.496L128.95 289.406C128.231 289.669 127.489 289.933 126.77 290.148L126.698 290.172ZM98.5745 288.664C100.053 289.295 101.565 289.846 103.102 290.316V290.292C103.253 290.332 103.412 290.263 103.485 290.124C103.531 289.959 103.435 289.788 103.27 289.741C101.756 289.28 100.269 288.736 98.8141 288.113C98.6555 288.06 98.4817 288.131 98.4068 288.281C98.3558 288.433 98.4283 288.598 98.5745 288.664ZM117.284 291.992C117.125 291.992 116.996 291.863 116.996 291.704C116.982 291.627 117.003 291.547 117.054 291.486C117.105 291.426 117.181 291.392 117.26 291.393C118.868 291.284 120.468 291.076 122.051 290.771C122.216 290.741 122.374 290.847 122.41 291.01C122.424 291.086 122.406 291.165 122.361 291.228C122.316 291.291 122.247 291.333 122.171 291.345C120.588 291.656 118.988 291.872 117.38 291.992H117.284ZM112.493 291.992C110.886 291.895 109.286 291.704 107.702 291.417C107.62 291.406 107.546 291.36 107.5 291.292C107.455 291.223 107.441 291.138 107.462 291.058C107.474 290.981 107.516 290.912 107.579 290.867C107.642 290.822 107.721 290.805 107.797 290.818C109.381 291.106 110.981 291.297 112.588 291.393C112.669 291.393 112.746 291.426 112.801 291.485C112.855 291.545 112.883 291.624 112.876 291.704C112.871 291.797 112.826 291.882 112.752 291.938C112.678 291.993 112.583 292.013 112.493 291.992ZM182.586 105.597C182.627 105.617 182.672 105.625 182.717 105.621C182.808 105.677 182.924 105.678 183.018 105.621C183.133 105.5 183.133 105.31 183.018 105.19C182.165 104.3 181.208 103.411 180.277 102.545L180.276 102.544L180.276 102.544L180.275 102.543L180.275 102.543C180.029 102.314 179.784 102.087 179.544 101.862C179.424 101.747 179.233 101.747 179.113 101.862C179.059 101.916 179.028 101.989 179.028 102.066C179.028 102.142 179.059 102.215 179.113 102.269C179.825 102.98 180.599 103.712 181.381 104.451L181.381 104.452L181.384 104.455C181.785 104.834 182.189 105.215 182.586 105.597ZM160.667 86.8518H160.835C160.905 86.8522 160.974 86.8267 161.027 86.78C161.081 86.7261 161.111 86.6529 161.111 86.5765C161.111 86.5002 161.081 86.427 161.027 86.3731C159.733 85.4155 158.439 84.4579 157.122 83.5242C156.987 83.4758 156.837 83.5254 156.757 83.6444C156.678 83.7635 156.69 83.9213 156.786 84.027C158.08 84.9367 159.398 85.8943 160.667 86.8518ZM136.568 71.291H136.424C135.019 70.5249 133.605 69.7828 132.184 69.0646C132.099 69.0214 132.039 68.9417 132.02 68.8484C132.002 68.7551 132.027 68.6583 132.088 68.5858C132.124 68.5133 132.188 68.459 132.265 68.4362C132.343 68.4135 132.426 68.4243 132.496 68.4661C133.885 69.1604 135.322 69.9264 136.736 70.6925C136.79 70.7464 136.82 70.8196 136.82 70.896C136.82 70.9724 136.79 71.0456 136.736 71.0995C136.721 71.1827 136.668 71.2539 136.592 71.291H136.568ZM96.155 56.616C97.784 56.8553 99.365 57.1666 100.946 57.5017C101.098 57.5316 101.246 57.4365 101.281 57.2863C101.311 57.1217 101.205 56.9631 101.042 56.9272C99.389 56.5681 97.784 56.2808 96.2508 56.0175C96.1744 56.0036 96.0957 56.0213 96.0325 56.0664C95.9694 56.1115 95.9271 56.1802 95.9154 56.2569C95.8858 56.4214 95.9916 56.58 96.155 56.616ZM76.7886 55.9015C76.8433 55.9516 76.9167 55.9763 76.9906 55.9696H76.9666C78.5477 55.802 80.1527 55.6584 81.7577 55.6584C81.8383 55.6586 81.9153 55.6251 81.97 55.5659C82.0246 55.5068 82.0519 55.4274 82.0452 55.3471C82.0338 55.1935 81.9115 55.0713 81.7577 55.0599C80.1288 55.1077 78.5237 55.2274 76.9666 55.395C76.8876 55.3937 76.8121 55.4279 76.7611 55.4882C76.71 55.5485 76.6887 55.6286 76.7031 55.7062C76.7028 55.7804 76.7338 55.8513 76.7886 55.9015Z" fill="#D8D5DB"/>
<path d="M224.824 190.049C224.824 190.338 224.824 190.578 224.824 190.843C224.227 197.549 218.496 211.851 212.883 224.495C213.074 229.062 213.218 233.149 213.242 236.514C213.242 237.139 213.242 237.716 213.242 238.293H212.549C212.716 241.273 212.931 246.441 213.098 252.379C192.44 264.95 166.839 272.57 140.186 278.82L135.625 279.853C131.663 280.759 127.6 281.131 123.541 280.959C123.296 279.953 123.208 278.916 123.278 277.882C123.842 264.331 125.246 250.827 127.481 237.451L126 237.235C131.422 218.822 134.144 192.261 135.553 169.209C135.72 166.493 135.864 163.848 135.983 161.228C132.52 164.786 130.132 166.997 130.132 166.997L122.8 154.858C113.749 161.445 105.199 167.262 101.02 169.954C97.557 173.223 91.6581 173.704 87.025 167.55C79.5261 157.671 68.9463 116.206 67.7045 109.163C67.5232 109.094 67.354 108.997 67.2029 108.875C65.4834 106.471 59.4652 93.3705 60.0383 90.8225C60.6115 88.2745 63.4296 82.7699 66.7014 82.0248C66.3193 80.8469 65.8894 79.621 65.2685 77.9144C63.8833 74.1164 62.2355 70.2704 64.7192 70.7031C67.2029 71.1358 72.8869 85.1256 73.866 87.5294C74.0093 86.3996 74.1526 85.4862 74.1526 85.4862C74.9168 83.2267 78.929 82.0248 78.332 85.4862C77.6394 90.2937 79.3111 92.6974 79.2395 96.6636C79.2395 96.88 79.2395 97.1203 79.2395 97.4569C79.249 97.6009 79.249 97.7455 79.2395 97.8895C79.2522 97.9933 79.2522 98.0983 79.2395 98.202C79.2395 98.202 79.2395 98.3222 79.2395 98.3703C78.658 101.324 77.6269 104.17 76.1826 106.807C78.7857 115.365 90.7267 137.744 97.6764 150.075C101.927 146.517 107.229 142.287 112.722 138.056L112.244 137.263C112.244 137.263 140.569 110.605 155.232 108.586C155.447 107.553 155.59 106.423 155.734 105.245C155.877 104.067 155.972 102.072 156.02 100.438C145.249 100.317 144.246 92.3369 145.321 82.193L143.625 81.7604L146.133 75.2222V74.7414C145.858 74.4188 145.698 74.0125 145.679 73.5876C145.679 72.7944 145.894 72.1213 146.324 72.0973C146.386 72.0731 146.454 72.0731 146.515 72.0973C146.515 71.5204 146.706 70.9435 146.778 70.3666C146.969 69.0926 147.208 67.9628 147.447 66.785C146.808 66.6586 146.151 66.6586 145.512 66.785L145.321 65.6072C146.111 65.4655 146.919 65.4655 147.709 65.6072C148.502 62.3843 149.783 59.3035 151.507 56.4729C148.067 56.2325 146.444 55.1028 148.832 52.3144C152.533 47.9877 170.063 45.8243 178.899 47.6511C182.004 48.3001 184.034 49.4299 184.058 51.1125C184.058 51.3048 184.058 51.425 184.058 51.5933C184.961 51.2084 185.739 50.5753 186.303 49.7664L187.306 50.4395C186.729 51.2603 185.979 51.9417 185.109 52.4346L184.75 52.6269C194.208 58.8286 180.834 92.0484 180.786 92.0484C180.523 97.7453 180.356 103.37 180.38 107.336C188.882 108.322 194.255 110.822 197.814 114.74C207.367 122.456 222.03 154.113 222.03 154.113L216.036 155.7C220.311 169.497 223.941 183.343 224.992 187.982C225.023 188.676 224.967 189.37 224.824 190.049Z" fill="#D1CDD3"/>
<rect opacity="0.3" x="181" y="137" width="161" height="126" rx="33.6" transform="rotate(180 181 137)" fill="#4D8DFF"/>
<path opacity="0.3" fill-rule="evenodd" clip-rule="evenodd" d="M19.26 148H170.74C175.86 148 180.77 145.968 184.384 142.352C187.998 138.737 190.019 133.836 190 128.732V19.1959C190 8.59428 181.377 0 170.74 0H19.26C8.62299 0 0 8.59428 0 19.1959V128.804C0 139.406 8.62299 148 19.26 148ZM0.52965 19.1958C0.542913 8.8913 8.921 0.541105 19.26 0.527886H170.74C181.079 0.541105 189.457 8.8913 189.47 19.1958V128.732C189.457 139.037 181.079 147.387 170.74 147.4H19.26C8.921 147.387 0.542913 139.037 0.52965 128.732V19.1958Z" fill="#4D8DFF"/>
<g opacity="0.3">
<rect x="59.8237" y="49.1882" width="26.7521" height="21.1266" rx="5.6" transform="rotate(180 59.8237 49.1882)" fill="#4D8DFF"/>
<rect x="95.4297" y="49.1882" width="26.7521" height="21.1266" rx="5.6" transform="rotate(180 95.4297 49.1882)" fill="#4D8DFF"/>
<rect x="131.059" y="49.1882" width="26.7521" height="21.1266" rx="5.6" transform="rotate(180 131.059 49.1882)" fill="#4D8DFF"/>
<rect x="166.689" y="49.1882" width="26.7521" height="21.1266" rx="5.6" transform="rotate(180 166.689 49.1882)" fill="#4D8DFF"/>
</g>
<g opacity="0.3">
<rect x="59.8237" y="84.2124" width="26.7521" height="21.1266" rx="5.6" transform="rotate(180 59.8237 84.2124)" fill="#4D8DFF"/>
<rect x="95.4297" y="84.2124" width="26.7521" height="21.1266" rx="5.6" transform="rotate(180 95.4297 84.2124)" fill="#4D8DFF"/>
<rect x="131.059" y="84.2124" width="26.7521" height="21.1266" rx="5.6" transform="rotate(180 131.059 84.2124)" fill="#4D8DFF"/>
<rect x="166.689" y="84.2124" width="26.7521" height="21.1266" rx="5.6" transform="rotate(180 166.689 84.2124)" fill="#4D8DFF"/>
</g>
<g opacity="0.3">
<rect x="59.8237" y="120.212" width="26.7521" height="21.1266" rx="5.6" transform="rotate(180 59.8237 120.212)" fill="#4D8DFF"/>
<rect x="95.4297" y="120.212" width="26.7521" height="21.1266" rx="5.6" transform="rotate(180 95.4297 120.212)" fill="#4D8DFF"/>
<rect x="131.059" y="120.212" width="26.7521" height="21.1266" rx="5.6" transform="rotate(180 131.059 120.212)" fill="#4D8DFF"/>
<rect x="166.689" y="120.212" width="26.7521" height="21.1266" rx="5.6" transform="rotate(180 166.689 120.212)" fill="#4D8DFF"/>
</g>
<rect x="135" y="45" width="26" height="21" rx="5.6" transform="rotate(180 135 45)" fill="#4D8DFF"/>
<rect x="135" y="117" width="26" height="21" rx="5.6" transform="rotate(180 135 117)" fill="#FF4E4A"/>
<rect x="64" y="82" width="26" height="21" rx="5.6" transform="rotate(180 64 82)" fill="#FFC84D"/>
<path d="M200 72C199.187 77.2434 197.608 105.673 198.254 112.167C198.9 118.662 167.155 120.634 171.389 113.394C175.623 106.154 172.609 82.1261 172.609 82.1261L200 72Z" fill="#FFAD69"/>
<path d="M197 72L172 81.2199C172.936 89.1098 173.159 97.0694 172.665 105C182.969 100.713 180.689 91.9964 180.689 87.3026C180.689 83.0399 197.024 72.8142 197 72Z" fill="#D88344"/>
<path d="M164.28 74L161 82.1206L165 84L164.28 74Z" fill="#D88344"/>
<path d="M163.982 69.9412C161.635 86.1884 157.786 102.387 176.938 99.7076C196.089 97.0279 199.046 71.8243 198.999 67.0443C198.694 41.6475 168.488 38.0263 163.982 69.9412Z" fill="#FFAD69"/>
<path d="M202.672 52.6599C203.691 52.1366 204.576 51.3886 205.26 50.4731L204.244 49.8002C203.627 50.6229 202.789 51.2559 201.826 51.6266C201.839 51.4586 201.839 51.2899 201.826 51.1219C201.826 44.5853 171.212 46.4597 166.158 52.2995C163.159 55.76 166.351 56.6733 171.526 56.505C171.142 56.7989 170.856 57.2008 170.704 57.6586C167.294 74.2645 183.399 90.6062 185.213 92H198.368C198.368 92 212.151 58.764 202.672 52.6599Z" fill="#232323"/>
<path d="M241.945 187.834C240.226 180.156 231.276 146.931 224.163 131L206 134.875C206 134.875 217.719 174.152 223.948 188.815C222.492 196.708 215.141 233.426 210.606 243.688C208.602 248.472 216.191 250.313 218.029 248.017C219.867 245.721 240.727 203.717 241.897 190.609C241.897 190.322 241.897 190.083 241.897 189.82C242.016 189.164 242.032 188.494 241.945 187.834Z" fill="#FFAD69"/>
<path d="M215.084 114.616C224.472 122.091 239 153.88 239 153.88L208.255 162C208.255 162 190.371 94.9363 215.084 114.616Z" fill="#E6E3DC"/>
<path d="M230 240.073C224.867 244.536 219.312 248.505 213.412 251.925C192.618 264.322 166.847 271.837 140.018 278C139.994 277.692 139.994 277.383 140.018 277.076C140.883 262.402 142.422 245.643 144.826 235L213.605 236.351L229.856 236.683C229.856 237.489 230 238.627 230 240.073Z" fill="#232323"/>
<path d="M192.191 107.059C211.102 107.679 217.51 114.006 220.762 124.963C224.472 137.376 231 212.453 231 237.519C231 237.519 174.365 241.506 143 236.397C152.829 203.478 153.889 144.299 154.105 126.586C154.25 113.433 168.198 106.271 192.191 107.059Z" fill="#FBFBFB"/>
<path d="M154.473 131.023C154.323 139.699 153.974 153.537 153 169C161.315 159.44 169.48 148.135 169.955 139.651C170.629 127.988 163.712 127.271 154.473 131.023Z" fill="#E6E3DC"/>
<path d="M165 135.011L155.406 119.15C155.406 119.15 129.023 138.064 114.848 149.775C107.845 137.515 95.8765 115.31 93.2622 106.843C94.7081 104.235 95.7358 101.418 96.3082 98.4947C96.3224 98.4399 96.3224 98.3825 96.3082 98.3277C96.3082 98.3277 96.3082 98.113 96.3082 98.0176C96.3187 97.8747 96.3187 97.7312 96.3082 97.5883C96.3082 97.2544 96.3082 96.992 96.3082 96.7774C96.3082 92.9373 94.7013 90.576 95.3968 85.7103C95.8765 82.2996 91.967 83.4683 91.1995 85.7103L90.8877 87.7139C89.9043 85.3287 83.9802 71.328 81.7256 71.0179C79.4711 70.7078 80.8862 74.4764 82.2773 78.1733C82.8769 79.8191 83.3326 81.107 83.7163 82.2519C80.4065 83.0151 77.4803 88.6441 77.0246 91.0053C76.5689 93.3666 82.5651 106.533 84.22 108.918C84.3482 109.077 84.5022 109.214 84.6757 109.323C85.8989 116.335 96.668 157.455 104.055 167.282C108.708 173.364 114.656 172.887 118.134 169.667C126.673 164.253 152.912 146.317 165 135.011Z" fill="#FFAD69"/>
<path d="M180.957 118.604C179.994 136.06 147.25 166 147.25 166L129 136.512C129 136.512 182.738 86.8568 180.957 118.604Z" fill="white"/>
<path d="M171.696 75.7585C170.97 80.0413 169.904 84.2997 173.9 83.9834C177.897 83.6671 178.914 76.9996 178.987 75.7342C179.326 68.9207 173.125 67.2903 171.696 75.7585Z" fill="#FFAD69"/>
</svg>