<svg width="414" height="736" viewBox="0 0 414 736" fill="none" xmlns="http://www.w3.org/2000/svg">
<g opacity="0.1">
<path fill-rule="evenodd" clip-rule="evenodd" d="M446.692 654.64C446.697 654.243 446.652 653.955 446.592 653.647C446.495 653.142 446.321 652.662 446.205 652.167C446.028 651.413 445.681 650.721 445.404 650.006C445.313 649.772 445.227 649.514 445.079 649.288C444.936 649.07 444.799 648.84 444.712 648.59C444.703 648.562 444.666 648.471 444.554 648.549C444.582 648.658 444.576 648.765 444.648 648.906C444.923 649.439 445.096 650.016 445.322 650.571C445.564 651.164 445.757 651.771 445.928 652.382C446.02 652.707 446.128 653.038 446.224 653.357C446.345 653.753 446.386 654.194 446.692 654.64ZM414.446 633.043C414.619 633.036 414.679 633.202 414.883 633.134C415.085 633.066 415.21 632.932 415.377 632.842C415.611 632.716 415.702 632.496 415.713 632.269C415.722 632.077 415.886 632.144 415.972 632.055C415.988 631.665 415.967 631.277 415.534 630.949C415.19 631.672 414.566 632.194 414.446 633.043ZM428.818 684.859C427.857 685.311 425.755 686.899 425.469 687.734C425.724 687.579 426.012 687.549 426.1 687.227C426.133 687.109 426.317 687.038 426.394 686.922C426.505 686.755 426.71 686.912 426.834 686.76C426.963 686.602 427.211 686.515 427.291 686.346C427.401 686.114 427.655 686.121 427.791 685.954C427.92 685.798 428.059 685.605 428.237 685.54C428.446 685.464 428.469 685.179 428.702 685.196C428.949 685.213 428.885 684.857 429.13 684.897C429.343 684.658 429.68 684.565 429.88 684.304C429.951 684.211 429.987 684.142 429.884 684.042C429.604 684.082 429.412 684.289 429.21 684.419C429.062 684.398 429.01 684.212 428.855 684.316C428.845 684.326 428.82 684.34 428.82 684.355C428.817 684.516 428.818 684.677 428.818 684.859ZM434.099 687.255C433.495 687.466 433.161 687.984 432.654 688.293C432.13 688.613 431.651 688.99 431.174 689.367C430.682 689.756 430.211 690.169 429.734 690.57C429.834 690.618 429.966 690.644 430.057 690.553C430.395 690.217 430.977 690.234 431.235 689.788C431.585 689.783 431.743 689.5 431.979 689.324C432.146 689.199 432.35 689.116 432.511 689.128C432.662 688.883 432.806 688.736 433.047 688.629C433.245 688.541 433.357 688.301 433.599 688.248C433.437 687.918 433.463 687.888 433.967 687.755C433.953 687.68 433.83 687.665 433.868 687.51C433.923 687.45 434.011 687.352 434.099 687.255ZM417.989 669.575C418.736 668.648 419.322 667.646 419.877 666.63C420.546 665.406 421.179 664.163 421.837 662.934C421.911 662.796 421.916 662.694 421.817 662.555C420.44 664.78 419.243 667.077 417.994 669.346C417.96 669.406 417.989 669.498 417.989 669.575ZM372.112 637.92C371.898 638.126 371.684 638.302 371.509 638.509C371.336 638.712 371.102 638.842 370.918 639.04C370.673 639.304 370.497 639.617 370.228 639.862C369.694 640.348 369.255 640.913 368.798 641.465C368.083 642.331 367.534 643.295 366.946 644.237C366.811 644.454 366.711 644.692 366.595 644.921C368.496 642.664 370.121 640.217 372.154 638.074C372.167 638.059 372.136 638.004 372.112 637.92ZM400.605 700.61C400.651 700.792 400.678 700.899 400.705 701.007C400.369 701.023 400.576 701.435 400.255 701.521C399.914 701.542 399.508 701.482 399.114 701.635C398.933 701.705 398.95 701.765 399.034 701.885C399.336 701.879 399.645 701.94 399.885 701.758C400.032 701.812 399.934 701.968 400.066 702.007C400.456 702.007 400.886 702.098 401.243 701.982C401.638 701.855 402.012 701.912 402.393 701.89C402.789 701.868 403.188 701.885 403.586 701.885C403.69 701.885 403.795 701.89 403.899 701.883C403.935 701.881 403.968 701.851 404.003 701.834C404.005 701.738 404.042 701.64 403.979 701.549C403.608 701.688 403.618 701.672 403.366 701.456C403.233 701.343 403.375 701.27 403.351 701.195C403.282 700.974 403.025 701.086 402.903 700.977C402.788 700.903 402.99 700.741 402.784 700.684C402.696 700.875 402.863 701.153 402.554 701.259C402.22 701.107 402.22 701.107 401.998 701.44C401.988 701.592 402.237 701.451 402.233 701.633C402.077 701.612 401.898 701.754 401.853 701.465C401.84 701.379 401.598 701.326 401.519 701.287C401.374 701.276 401.372 701.424 401.273 701.364C401.109 701.264 401.095 701.088 401.011 700.962C401.084 700.858 401.21 700.815 401.23 700.708C401.025 700.584 400.971 700.86 400.805 700.79C400.765 700.754 400.72 700.714 400.605 700.61ZM404.601 685.249C404.62 684.818 404.92 684.485 405.021 684.083C405.146 683.59 405.314 683.109 405.45 682.618C405.566 682.199 405.703 681.789 405.786 681.359C405.871 680.918 406.056 680.498 406.167 680.058C406.282 679.602 406.378 679.137 406.54 678.694C406.63 678.446 406.732 678.206 406.788 677.945C406.851 677.651 406.915 677.349 407.045 677.081C407.177 676.808 407.058 676.447 407.381 676.241C407.459 676.191 407.423 676.056 407.393 675.963C407.378 675.916 407.309 675.845 407.316 675.838C407.581 675.598 407.483 675.243 407.642 674.935C407.522 674.957 407.453 674.935 407.405 675.078C407.183 675.735 406.918 676.378 406.703 677.037C406.627 677.268 406.481 677.494 406.531 677.756C406.232 678.235 406.175 678.796 406.056 679.317C405.933 679.854 405.77 680.385 405.626 680.91C405.307 682.072 405.049 683.251 404.642 684.39C404.715 684.681 404.383 684.933 404.601 685.249ZM364.001 678.635C363.925 678.492 363.882 678.331 363.775 678.237C363.717 678.185 363.623 678.202 363.586 678.073C363.438 677.549 363.286 677.023 363.079 676.52C362.974 676.262 362.941 675.973 362.732 675.748C362.175 675.148 361.632 674.534 361.086 673.924C361.035 673.866 360.947 673.837 360.948 673.736C360.948 673.596 360.81 673.545 360.726 673.464C360.653 673.394 360.603 673.274 360.411 673.265C360.79 674.116 361.249 674.874 361.719 675.624C362.166 676.336 362.623 677.042 363.095 677.738C363.31 678.055 363.485 678.39 363.672 678.72C363.697 678.762 363.752 678.788 363.777 678.808C363.855 678.748 363.92 678.698 364.001 678.635ZM398.756 644.702C399.022 644.66 398.954 644.413 399.105 644.291C399.254 644.17 399.376 644.014 399.495 643.85C399.942 643.232 400.446 642.65 400.933 642.059C401.285 641.633 401.653 641.211 401.974 640.772C402.295 640.332 402.678 639.936 402.972 639.481C403.253 639.049 403.715 638.737 403.855 638.213C403.558 638.01 403.33 638.009 403.094 638.286C402.752 638.687 402.441 639.112 402.126 639.533C401.906 639.827 401.724 640.148 401.485 640.426C401.014 640.972 400.641 641.584 400.248 642.177C399.774 642.895 399.302 643.615 398.818 644.327C398.727 644.462 398.705 644.566 398.756 644.702ZM424.593 689.623C424.832 689.387 425.153 689.289 425.446 689.139C425.791 688.961 426.107 688.73 426.448 688.542C426.577 688.472 426.537 688.23 426.761 688.275C427.095 687.691 427.638 687.318 428.19 686.939C428.266 686.988 428.328 687.029 428.386 687.067C428.447 687.011 428.507 686.956 428.566 686.902C428.524 686.858 428.484 686.815 428.446 686.775C428.529 686.632 428.735 686.814 428.808 686.637C428.732 686.609 428.66 686.583 428.588 686.556C428.608 686.187 428.608 686.185 428.96 686.112C429.029 686.098 429.071 686.072 429.07 686C429.086 685.9 428.99 685.869 428.946 685.808C429.014 685.67 429.298 685.623 429.17 685.411C428.768 685.536 428.55 685.86 428.252 686.084C427.906 686.345 427.54 686.58 427.208 686.864C426.888 687.139 426.563 687.411 426.232 687.67C425.859 687.962 425.442 688.203 425.102 688.538C424.985 688.654 424.885 688.819 424.742 688.868C424.552 688.933 424.442 689.063 424.311 689.182C424.171 689.308 424.039 689.442 423.911 689.566C424.159 689.779 424.384 689.323 424.593 689.623ZM419.376 704.745C419.499 704.826 419.611 704.812 419.729 704.76C420.223 704.543 420.746 704.388 421.254 704.211C422.17 703.892 423.056 703.516 423.936 703.126C425.44 702.458 426.912 701.729 428.335 700.912C428.943 700.563 429.547 700.206 430.132 699.823C430.759 699.413 431.352 698.956 431.977 698.544C432.576 698.148 433.111 697.675 433.688 697.254C434.173 696.9 434.572 696.446 435.094 696.135C435.198 696.073 435.277 695.969 435.363 695.88C435.447 695.793 435.561 695.721 435.605 695.617C435.462 695.539 435.403 695.594 435.344 695.656C435.082 695.935 434.759 696.16 434.45 696.369C433.709 696.872 433.037 697.454 432.313 697.975C431.927 698.254 431.56 698.575 431.158 698.813C430.254 699.35 429.39 699.946 428.482 700.479C427.261 701.196 425.991 701.819 424.752 702.499C424.459 702.66 424.125 702.711 423.841 702.868C423.215 703.215 422.572 703.529 421.892 703.753C421.377 703.924 420.909 704.194 420.376 704.337C420.046 704.425 419.684 704.541 419.376 704.745ZM357.489 641.7C357.562 641.626 357.618 641.57 357.674 641.514C357.538 641.414 357.528 641.253 357.446 641.134C357.525 640.902 357.866 641.178 357.919 640.907C357.871 640.804 357.704 640.903 357.677 640.766C357.639 640.558 357.804 640.417 357.867 640.245C357.968 640.22 358.081 640.291 358.168 640.196C358.068 640.07 357.98 639.94 358.092 639.782C358.315 639.47 358.377 639.06 358.715 638.82C358.838 638.732 358.787 638.549 358.935 638.482C358.849 638.195 359.065 638.007 359.191 637.797C359.601 637.11 360.002 636.417 360.453 635.755C361.051 634.877 361.651 633.995 362.33 633.174C362.797 632.608 363.215 631.994 363.782 631.506C363.872 631.429 363.882 631.346 363.8 631.286C361.511 633.194 359.95 635.607 358.625 638.186C358.547 638.106 358.484 638.017 358.356 638.071C358.256 638.27 358.179 638.488 358.048 638.671C357.887 638.896 357.887 639.093 358.067 639.264C357.941 639.494 357.833 639.69 357.734 639.871C357.632 639.881 357.501 639.861 357.477 639.901C357.314 640.18 357.044 640.431 357.191 640.805C356.91 640.786 356.946 641.045 356.811 641.138C356.914 641.343 356.526 641.477 356.742 641.723C356.895 641.898 356.807 642.073 356.574 642.154C356.544 642.124 356.514 642.096 356.472 642.055C356.494 642.238 356.212 642.311 356.305 642.501C356.408 642.605 356.446 642.334 356.558 642.513C356.425 642.824 356.32 643.173 356.131 643.472C356.005 643.672 356.032 643.818 356.085 644.041C356.231 643.797 356.263 643.537 356.536 643.452C356.449 643.367 356.348 643.301 356.471 643.155C356.584 643.023 356.718 643.038 356.861 643.027C356.912 643.023 356.92 642.973 356.891 642.945C356.819 642.92 356.746 642.895 356.638 642.858C356.879 642.42 357.044 641.963 357.356 641.573C357.402 641.617 357.432 641.645 357.489 641.7ZM363.074 639.161C363.55 638.908 363.761 638.485 364.081 638.169C364.356 637.898 364.592 637.571 364.837 637.264C365.101 636.933 365.427 636.659 365.686 636.333C366.068 635.85 366.445 635.367 366.894 634.939C367.013 634.826 367.177 634.729 367.237 634.591C367.397 634.22 367.752 634.03 368.01 633.751C368.268 633.472 368.442 633.128 368.756 632.892C368.839 632.829 368.941 632.839 369.025 632.715C369.373 632.204 369.933 631.861 370.265 631.327C370.52 631.293 370.538 631.031 370.699 630.903C370.862 630.773 371.002 630.616 371.167 630.458C370.864 630.331 370.804 630.588 370.663 630.668C370.044 631.02 369.46 631.431 368.927 631.896C367.886 632.806 366.958 633.822 366.089 634.884C365.874 635.147 365.618 635.376 365.418 635.644C364.736 636.558 364.071 637.486 363.419 638.42C363.275 638.626 363.133 638.854 363.074 639.161ZM385.668 617.348C385.426 617.173 385.275 617.273 385.122 617.382V617.797C384.742 617.815 384.827 618.274 384.477 618.421C384.19 618.542 383.981 618.837 383.741 619.053C383.801 619.188 384 619.085 384.045 619.257C384.256 619.077 384.404 618.807 384.742 618.871V618.584C384.99 618.521 385.137 618.328 385.306 618.164C385.467 618.01 385.774 617.996 385.79 617.701C386.091 617.728 386.077 617.392 386.296 617.295C386.493 617.208 386.635 617.005 386.797 616.849C386.969 616.684 387.099 616.471 387.261 616.318C387.426 616.164 387.539 615.963 387.727 615.838C387.923 615.706 388.178 615.625 388.267 615.395C388.362 615.148 388.554 615.037 388.787 614.938C388.69 614.549 389.015 614.529 389.3 614.476C389.235 614.413 389.205 614.385 389.174 614.355C389.182 614.209 389.349 614.323 389.395 614.228C389.522 613.967 389.637 613.674 389.89 613.524C390.175 613.355 390.316 613.081 390.536 612.87C391.403 612.038 392.286 611.224 393.199 610.439C393.261 610.385 393.311 610.291 393.38 610.277C393.793 610.194 394.001 609.855 394.301 609.63C394.625 609.386 394.898 609.07 395.235 608.869C395.741 608.566 396.236 608.261 396.634 607.856C396.717 607.885 396.724 607.975 396.768 607.954C397.01 607.739 397.198 607.439 397.443 607.386C397.773 607.315 397.871 607.077 398.167 606.897C397.57 606.957 397.57 606.957 397.251 607.256C397.052 607.113 396.847 607.401 396.615 607.248C396.561 607.468 396.599 607.765 396.221 607.722C396.146 607.714 396.091 607.75 396.067 607.8C395.891 608.174 395.482 608.284 395.18 608.51C394.942 608.687 394.686 608.912 394.359 608.828C394.226 609.131 394.037 609.317 393.782 609.444C393.715 609.383 393.669 609.342 393.616 609.295C393.543 609.449 393.471 609.603 393.397 609.76C393.179 609.767 392.994 609.872 392.804 609.973V610.214C392.603 610.243 392.487 610.388 392.367 610.517C392.257 610.636 392.059 610.631 391.999 610.846C391.956 610.998 391.749 611.108 391.616 611.237C391.474 611.266 391.312 611.2 391.147 611.306C391.263 611.35 391.335 611.377 391.494 611.437C391.157 611.448 391.156 611.705 391.004 611.834C390.752 612.047 390.525 612.288 390.288 612.516C390.393 612.762 390.016 612.623 390.028 612.831C390.042 613.071 389.721 612.821 389.674 613.011C389.71 613.054 389.743 613.094 389.711 613.056C389.413 613.344 389.135 613.612 388.858 613.879C388.794 613.963 388.777 613.728 388.677 613.842C388.5 614.014 388.964 614.08 388.736 614.256C388.652 614.281 388.649 614.125 388.542 614.193C388.481 614.288 388.589 614.432 388.459 614.521C388.394 614.442 388.328 614.362 388.27 614.383C388.132 614.44 388.147 614.505 388.148 614.563C388.153 614.821 388.1 615.047 387.81 615.147C387.806 615.395 387.529 615.376 387.413 615.522C387.285 615.68 387.083 615.789 386.979 615.958C386.645 616.502 386.1 616.849 385.668 617.348ZM352.636 652.192C352.455 652.082 352.477 651.891 352.522 651.758C352.81 650.915 352.955 650.037 353.214 649.186C353.35 648.738 353.464 648.264 353.524 647.789C353.572 647.413 353.766 647.074 353.825 646.695C353.888 646.286 354.068 645.902 354.161 645.494C354.24 645.151 354.445 644.843 354.537 644.492C354.671 643.985 354.851 643.487 355.037 642.994C355.156 642.679 355.231 642.339 355.466 642.075C355.528 642.006 355.514 641.93 355.54 641.861C355.653 641.562 355.756 641.262 355.907 640.975C356.223 640.375 356.478 639.745 356.802 639.15C357.038 638.718 357.246 638.275 357.468 637.837C357.682 637.417 357.904 636.999 358.135 636.587C358.677 635.621 359.263 634.679 359.918 633.781C360.431 633.078 360.999 632.418 361.592 631.773C362.073 631.25 362.539 630.712 363.085 630.258C363.522 629.894 363.907 629.467 364.37 629.148C364.807 628.847 365.23 628.521 365.656 628.211C366.642 627.494 367.656 626.818 368.695 626.181C369.307 625.805 369.931 625.44 370.534 625.056C371.242 624.606 371.997 624.237 372.706 623.789C373.121 623.528 373.588 623.31 374.027 623.07C374.452 622.838 374.908 622.664 375.318 622.406C375.727 622.149 376.178 621.952 376.607 621.739C377.011 621.538 377.395 621.234 377.88 621.192C378.088 620.862 378.498 620.862 378.804 620.698C379.106 620.535 379.431 620.386 379.72 620.207C380.018 620.023 380.328 619.842 380.628 619.668C381.238 619.313 381.809 618.905 382.415 618.552C382.785 618.336 383.059 618.028 383.399 617.788C384.046 617.331 384.642 616.797 385.187 616.22C385.406 615.989 385.645 615.773 385.924 615.616C386.137 615.496 386.144 615.255 386.322 615.112C386.611 614.88 386.86 614.601 387.131 614.348C387.221 614.264 387.3 614.18 387.276 614.051C387.406 614.038 387.505 614.027 387.597 614.018C387.694 613.926 387.536 613.937 387.546 613.862C387.647 613.748 387.726 613.6 387.908 613.546C388.079 613.495 388.049 613.296 388.184 613.195C388.479 612.975 388.55 612.529 388.984 612.438C389.105 612.102 389.4 611.885 389.604 611.605C389.707 611.465 389.844 611.341 390.037 611.3C390.202 611.265 390.092 610.967 390.337 610.999C390.591 610.448 391.16 610.193 391.597 609.834C392.297 609.26 392.957 608.63 393.763 608.166C394.167 607.934 394.516 607.58 394.923 607.335C395.836 606.787 396.713 606.177 397.695 605.735C398.101 605.552 398.464 605.281 398.872 605.102C399.736 604.722 400.6 604.34 401.493 604.025C401.66 603.966 401.815 603.876 402.012 603.909C402.224 603.944 402.298 603.71 402.488 603.649C402.713 603.577 402.952 603.617 403.18 603.499C403.306 603.434 403.531 603.421 403.677 603.346C404.153 603.102 404.716 603.152 405.185 602.897C405.363 602.801 405.588 602.838 405.777 602.826C406.421 602.787 407.011 602.466 407.66 602.511C408.015 602.535 408.342 602.459 408.654 602.326C408.754 602.284 408.856 602.235 408.939 602.268C409.225 602.387 409.504 602.265 409.781 602.25C410.077 602.234 410.364 602.119 410.674 602.137C410.987 602.156 411.327 602.213 411.612 602.125C412.123 601.968 412.631 602.032 413.139 602.028C413.394 602.026 413.67 601.919 413.911 602.135C414.039 602.249 414.145 601.873 414.336 602.074C414.449 602.192 414.577 602.158 414.722 602.085C414.855 602.018 415.01 602.234 415.139 602.134C415.265 602.035 415.471 601.956 415.517 602.029C415.632 602.213 415.808 601.961 415.891 602.119C415.898 602.132 415.927 602.142 415.944 602.14C416.501 602.076 417.029 602.314 417.592 602.276C417.921 602.254 418.272 602.33 418.59 602.431C418.895 602.528 419.21 602.565 419.515 602.611C420.046 602.689 420.528 602.919 421.055 602.991C421.198 603.011 421.233 603.348 421.462 603.121C421.577 603.296 421.768 603.193 421.914 603.241C422.023 603.277 422.107 603.382 422.23 603.477C422.525 603.451 422.799 603.582 423.102 603.698C423.682 603.92 424.249 604.166 424.79 604.455C425.535 604.852 426.309 605.22 426.905 605.828C427.028 605.954 427.179 605.851 427.298 605.95C427.993 606.522 428.747 607.024 429.336 607.72C429.583 608.011 429.949 608.227 430.205 608.524C430.718 609.12 431.31 609.645 431.74 610.321C431.995 610.722 432.323 611.097 432.594 611.501C433.157 612.339 433.686 613.197 434.027 614.144C434.283 614.852 434.554 615.555 434.751 616.284C434.819 616.535 434.793 616.797 434.879 617.021C434.968 617.252 434.995 617.473 434.983 617.704C434.975 617.887 435.163 617.999 435.125 618.202C435.095 618.361 435.06 618.544 435.221 618.709C435.295 618.786 435.238 618.98 435.239 619.121C435.24 619.323 435.272 619.532 435.229 619.725C435.195 619.884 435.461 620.018 435.248 620.169C435.447 620.325 435.347 620.54 435.362 620.729C435.377 620.91 435.365 621.093 435.365 621.275V621.882C435.365 622.064 435.317 622.262 435.376 622.424C435.49 622.737 435.404 623.056 435.474 623.373C435.551 623.721 435.504 624.098 435.488 624.461C435.473 624.778 435.67 625.055 435.626 625.383C435.584 625.701 435.541 626.052 435.637 626.346C435.746 626.679 435.638 627.035 435.772 627.321C435.931 627.663 435.778 627.998 435.876 628.313C436.09 628.999 436.07 629.727 436.265 630.403C436.512 631.258 436.646 632.136 436.937 632.983C437.126 633.534 437.334 634.082 437.522 634.633C437.709 635.179 438.012 635.692 438.295 636.204C438.648 636.843 439.075 637.439 439.531 638.018C439.99 638.598 440.534 639.105 441 639.676C441.213 639.936 441.47 640.153 441.676 640.422C441.898 640.712 442.237 640.918 442.46 641.207C443.018 641.93 443.772 642.495 444.248 643.282C445.104 644.063 445.642 645.081 446.373 645.956C446.736 646.393 446.974 646.926 447.275 647.412C447.777 648.218 448.191 649.066 448.613 649.911C449.001 650.689 449.313 651.493 449.592 652.311C449.792 652.899 449.963 653.497 450.175 654.081C450.261 654.318 450.14 654.596 450.349 654.8C450.326 655.368 450.644 655.888 450.601 656.459C450.795 656.789 450.74 657.152 450.718 657.5C450.701 657.766 450.916 657.964 450.863 658.241C450.815 658.495 450.776 658.794 450.87 659.021C451.04 659.434 450.966 659.843 450.974 660.251C450.99 661.202 450.991 662.153 450.972 663.103C450.966 663.415 451.074 663.738 450.901 664.043C450.749 664.31 450.961 664.63 450.771 664.902C450.701 665.001 450.896 665.064 450.858 665.198C450.784 665.46 450.942 665.741 450.759 666.011C450.618 666.22 450.833 666.515 450.622 666.745C450.496 666.885 450.921 667.083 450.602 667.241C450.655 667.579 450.532 667.897 450.475 668.222C450.427 668.49 450.556 668.766 450.387 669.037C450.243 669.268 450.468 669.593 450.223 669.82C450.315 670.221 450.075 670.584 450.085 670.983C450.092 671.284 450.008 671.592 449.93 671.888C449.809 672.346 449.702 672.809 449.607 673.272C449.572 673.443 449.521 673.603 449.468 673.765C449.438 673.856 449.336 673.898 449.337 674.018C449.344 674.776 449.053 675.477 448.819 676.177C448.678 676.599 448.576 677.043 448.353 677.448C448.293 677.558 448.298 677.761 448.202 677.868C447.921 678.183 447.852 678.584 447.721 678.951C447.648 679.155 447.567 679.338 447.441 679.508C447.417 679.541 447.357 679.565 447.357 679.594C447.348 680.136 446.981 680.539 446.768 680.999C446.561 681.443 446.269 681.851 446.075 682.3C445.684 683.204 445.104 684.011 444.678 684.897C444.539 685.186 444.337 685.446 444.207 685.651C444.137 685.853 444.327 685.868 444.298 686.026C444.268 686.164 444.123 686.221 443.929 686.268C444.015 686.71 443.666 687 443.461 687.332C442.976 688.115 442.455 688.88 441.905 689.622C441.543 690.11 441.194 690.606 440.767 691.056C439.415 692.482 438.007 693.855 436.561 695.19C436.01 695.699 435.459 696.213 434.88 696.693C434.389 697.102 433.896 697.516 433.381 697.891C432.176 698.769 430.969 699.646 429.696 700.436C428.722 701.04 427.716 701.584 426.709 702.132C426.064 702.483 425.406 702.804 424.733 703.102C423.658 703.577 422.574 704.03 421.476 704.458C420.443 704.861 419.341 705.042 418.334 705.497C417.649 705.498 417.052 705.909 416.363 705.89C416.071 706.082 415.712 706.05 415.392 706.109C415.063 706.17 414.737 706.316 414.377 706.263C414.213 706.239 414.064 706.412 413.863 706.381C413.696 706.356 413.512 706.347 413.362 706.467C413.21 706.276 413.113 706.565 412.946 706.509C412.777 706.452 412.551 706.444 412.388 706.507C411.988 706.661 411.551 706.516 411.185 706.641C410.789 706.776 410.398 706.644 410.037 706.751C409.593 706.883 409.18 706.649 408.751 706.733C408.713 706.74 408.658 706.663 408.61 706.625C408.519 706.661 408.564 706.758 408.507 706.848C408.366 706.772 408.231 706.66 408.077 706.627C407.897 706.588 407.702 706.618 407.482 706.618C407.378 706.74 407.26 706.879 407.157 707C406.905 706.942 406.709 707.025 406.498 706.92C406.405 706.874 406.178 706.962 406.012 706.99C405.796 707.027 405.605 706.791 405.451 706.893C405.246 707.027 405.052 706.977 404.856 706.978C403.031 706.985 401.205 706.984 399.379 706.978C399.184 706.977 398.959 707.066 398.797 706.87C398.597 707.168 398.417 706.811 398.211 706.85C398.023 706.886 397.826 706.811 397.63 706.762C397.296 706.678 396.922 706.747 396.566 706.736C396.328 706.729 396.095 706.771 395.854 706.632C395.661 706.52 395.392 706.602 395.145 706.542C394.847 706.468 394.529 706.368 394.204 706.373C393.984 706.376 393.773 706.382 393.557 706.265C393.396 706.179 393.142 706.336 392.987 706.132C392.558 706.156 392.173 705.982 391.767 705.896C390.792 705.69 389.84 705.414 388.899 705.098C388.11 704.833 387.316 704.58 386.531 704.308C386.276 704.22 386.021 704.121 385.775 704.016C384.888 703.637 383.985 703.277 383.15 702.807C382.406 702.389 381.641 702.002 380.914 701.551C380.527 701.311 380.083 701.142 379.679 700.916C378.726 700.382 377.789 699.824 376.882 699.22C376.087 698.69 375.277 698.18 374.595 697.507C374.416 697.33 374.184 697.204 373.993 697.037C373.775 696.847 373.6 696.602 373.361 696.448C373.049 696.247 372.815 695.969 372.521 695.762C372.293 695.602 372.319 695.258 371.961 695.186C371.701 695.134 371.693 694.723 371.387 694.652C371.283 694.277 370.847 694.198 370.66 693.863C370.479 693.539 370.118 693.308 369.836 693.036C369.554 692.764 369.236 692.518 368.997 692.214C368.555 691.655 367.98 691.215 367.533 690.672C367.107 690.155 366.561 689.725 366.249 689.126C366.175 688.985 366.044 689.043 365.961 688.953C365.874 688.86 365.886 688.733 365.792 688.652C365.411 688.322 365.098 687.932 364.778 687.55C364.324 687.007 363.884 686.45 363.426 685.912C362.715 685.076 362.097 684.183 361.483 683.284C361.084 682.698 360.706 682.099 360.321 681.504C359.875 680.813 359.422 680.125 358.992 679.425C358.664 678.892 358.373 678.337 358.051 677.8C357.796 677.374 357.524 676.957 357.251 676.541C356.874 675.966 356.518 675.378 356.146 674.802C355.616 673.984 355.153 673.136 354.724 672.271C354.508 671.835 354.287 671.398 354.127 670.931C354.026 670.638 353.898 670.328 353.753 670.052C353.457 669.487 353.335 668.882 353.135 668.294C353.065 668.088 353.055 667.878 353.001 667.679C352.951 667.492 352.921 667.307 352.882 667.12C352.764 666.561 352.753 665.98 352.535 665.441C352.521 665.406 352.511 665.364 352.515 665.328C352.591 664.69 352.328 664.077 352.38 663.436C352.426 662.865 352.176 662.306 352.262 661.727C352.047 661.399 352.207 661.025 352.128 660.687C351.915 659.777 352.038 658.859 352.015 657.945C351.993 657.035 352.013 656.125 352.009 655.215C352.006 654.57 352.175 653.946 352.28 653.316C352.303 653.18 352.4 653.035 352.386 652.878C352.363 652.611 352.459 652.389 352.636 652.192Z" fill="black"/>
</g>
<g opacity="0.1">
<path fill-rule="evenodd" clip-rule="evenodd" d="M39.9422 599.245C37.1125 602.299 34.3973 605.8 32.274 610.747C34.8301 606.912 37.3861 603.078 39.9422 599.245ZM16.6971 663.903C15.0729 665.801 13.7309 667.48 12.3358 668.974C10.8495 670.567 9.47427 671.972 7.56163 670.119C6.6198 669.205 5.15545 669.148 3.90534 669.135C3.65079 669.132 3.38988 669.338 3.1424 669.28C2.58805 669.153 2.10795 668.558 2.033 667.49C1.81239 664.312 -1.40693 662.391 0.727732 658.447C3.39412 653.518 5.101 647.25 7.42446 641.919C11.5092 632.548 16.649 625.347 21.6134 617.846C25.7151 611.646 29.8862 605.619 34.0275 599.518C36.9492 595.214 40.1268 591.694 43.298 588.16C43.6289 587.792 43.9916 587.508 44.3551 587.276C44.7171 587.047 45.1689 586.742 45.4404 587.387C45.7395 588.097 45.3712 588.748 45.1732 589.362C44.8111 590.483 44.1557 591.248 44.0065 593.453C45.1774 592.122 46.1291 590.979 47.1113 589.948C47.9322 589.087 48.6803 588.914 48.5629 591.437C48.5191 592.386 48.5169 592.806 49.089 592.735C51.2668 592.467 51.2088 594.805 50.5123 598.093C51.0645 597.634 51.4831 597.287 51.9618 596.89C52.1329 598.955 51.0087 599.713 51.0603 601.385C51.3877 601.61 51.6316 600.648 52 601.29C51.9272 601.566 51.8826 601.941 51.7631 602.159C51.0115 603.517 50.2069 604.771 49.4899 606.192C48.4144 608.325 48.4625 609.161 49.7331 611.209C50.1637 611.905 49.9636 612.527 49.7876 613.163C49.6065 613.819 49.3753 614.423 49.1554 615.037C48.9737 615.542 48.7779 616.027 48.5749 616.557C49.0812 617.293 49.2488 616.226 49.545 615.977C49.8837 615.696 50.1984 615.306 50.7768 614.695C50.3956 617.19 49.5924 618.502 48.8874 619.793C40.5284 635.096 31.8773 649.754 22.8288 663.503C21.5547 665.44 20.4092 667.944 18.3467 667.544C17.0513 667.291 16.4588 666.949 16.6971 663.903Z" fill="black"/>
<path fill-rule="evenodd" clip-rule="evenodd" d="M93.9111 602.21C91.6962 605.246 89.0842 607.162 87.371 611.503C89.573 608.44 92.3165 606.903 93.9111 602.21ZM85.9517 638.456C87.969 635.991 89.5683 632.63 91.1919 629.317C89.2305 631.895 87.3656 634.685 85.8775 638.309C84.1178 639.987 83.132 643.209 81.9049 645.958C83.2608 643.467 84.9208 641.613 85.9517 638.456ZM99.3967 595.935C100.807 595.431 101.609 594.064 102.523 593.155C103.021 592.661 103.537 591.291 104.112 592.711C104.659 594.063 104.01 594.83 103.572 595.654C103.326 596.117 103.117 596.656 102.854 597.243C103.65 597.712 104.12 596.923 104.652 596.327C105.064 595.864 105.496 594.393 106.03 595.744C106.358 596.573 106.747 597.424 106.424 598.936C106.087 600.508 105.71 601.875 104.952 602.953C105.172 603.046 105.298 603.185 105.359 603.112C105.84 602.534 106.312 600.811 106.851 601.968C107.335 603.005 106.515 603.963 106.146 604.851C98.651 622.842 88.5428 635.272 80.1613 651.387C78.2249 655.11 75.4504 655.454 73.0177 657C72.5276 655.513 73.4553 654.924 73.274 653.84C69.8744 656.679 64.6093 649.833 66.3515 641.265C65.7299 640.601 64.9269 643.143 64.465 641.049C63.9431 638.684 63.6613 636.105 64.7219 633.988C66.0913 631.257 67.5261 628.643 68.9764 626.075C71.8702 620.95 74.8004 615.902 77.703 610.795C78.6632 609.106 79.659 607.533 80.8248 606.414C81.3891 605.871 82.1449 605.226 82.5549 606.124C83.6546 608.534 84.4657 606.914 85.3563 605.763C89.9041 599.883 94.582 594.45 99.5579 590.048C99.9469 589.704 100.332 589.321 100.738 589.085C101.028 588.918 101.38 588.963 101.564 589.529C101.775 590.18 101.485 590.622 101.291 591.065C100.674 592.466 99.8559 593.577 99.3967 595.935Z" fill="black"/>
<path fill-rule="evenodd" clip-rule="evenodd" d="M2.27873 591.148C3.47008 590.474 4.15707 589.884 4.87339 589.74C5.55813 589.601 6.07 587.656 6.87275 589.081C7.64543 590.455 6.38042 591.356 6.55555 592.705C7.52667 593.892 8.24073 589.913 9.3509 592.288C10.1717 594.044 9.80339 595.546 9.30355 597.197C9.90186 597.322 10.2995 596.187 11 596.915C9.87705 598.941 10.074 601.31 10.5077 603.668C10.8707 605.643 9.9011 606.577 9.36068 607.401C3.22053 616.756 -1.60274 628.173 -6.95817 638.756C-7.74213 640.304 -8.61855 641.75 -9.92039 642.244C-7.95936 636.004 -4.71453 631.58 -2.06274 625.108C-4.63486 628.646 -6.37716 632.328 -8.20589 635.857C-9.11688 637.616 -10.0091 639.415 -10.9922 641.045C-11.5304 641.937 -12.1204 643.362 -13.0465 641.801C-13.4125 641.183 -13.8642 641.595 -14.1438 642.106C-15.1398 643.923 -16.7099 643.842 -17.7472 645.511C-17.9253 645.797 -18.4214 646.042 -18.4365 645.994C-19.0956 643.849 -20.7508 644.248 -21.3904 642.945C-22.3119 641.066 -22.693 640.656 -23.5814 642.653C-23.7776 643.094 -24.3541 643.397 -24.657 643.229C-25.1666 642.947 -24.9194 642.029 -24.8427 641.367C-24.3556 637.142 -24.3609 637.127 -26.7391 638.186C-26.9578 636.801 -27.178 635.344 -26.7774 634.031C-24.4669 626.465 -22.8245 618.285 -18.6635 612.652C-13.6049 605.807 -8.86734 598.242 -3.97867 591.015C-2.09507 588.229 0.234266 587.235 2.55909 586.27C3.01158 586.082 3.60988 585.69 3.90828 586.449C4.27283 587.376 3.63093 587.817 3.3453 588.423C3.05066 589.047 2.8169 589.758 2.27873 591.148Z" fill="black"/>
<path fill-rule="evenodd" clip-rule="evenodd" d="M47.7376 724.821C47.9827 725.5 47.9999 726.204 47.6981 726.789C43.8741 734.21 40.0673 741.673 35.9931 748.479C35.8721 748.681 35.6913 748.72 35.3896 748.947C35.6378 747.911 35.8231 747.134 36.0083 746.359C34.5454 748.818 32.7127 750.316 32.367 755.025C32.1251 758.318 31.0556 758.862 29.7971 756.733C29.3744 756.018 29.0154 756.005 28.5366 756.091C25.3753 756.651 22.8404 750.456 23.5311 743.763C23.7475 741.664 23.8258 739.849 23.2994 737.82C22.7538 735.716 22.9722 733.479 23.8055 731.725C24.2969 730.691 24.7998 729.631 25.3759 728.839C31.9749 719.757 37.4509 707.693 43.6799 697.634C44.5508 696.229 45.4662 694.931 46.4039 693.736C46.8922 693.114 47.5574 692.548 48.0253 693.535C48.6103 694.77 47.9088 695.699 47.6408 696.683C47.4969 697.212 47.3327 697.716 47.1054 698.472C48.0845 698.224 48.7173 696.917 49.4672 696.208C49.9026 695.796 50.5844 695.188 50.7296 696.043C51.4305 700.167 53.9004 699.683 54.7535 703.453C55.2239 705.528 54.9725 707.044 54.4084 708.437C52.5725 712.979 50.8174 717.696 48.6625 721.603C48.1724 722.494 47.7586 723.468 47.4301 724.626C47.4104 724.695 47.4384 724.915 47.4467 724.915C47.5536 724.923 47.6612 724.902 47.7688 724.889L47.7376 724.821Z" fill="black"/>
<path fill-rule="evenodd" clip-rule="evenodd" d="M50.0148 723L51.8258 715C51.8837 715.316 51.9421 715.63 52 715.946C51.3472 718.349 51.1169 723.081 50.0005 722.931C49.9968 722.914 50.0148 723 50.0148 723Z" fill="black"/>
</g>
<g opacity="0.1">
<path fill-rule="evenodd" clip-rule="evenodd" d="M576.849 276.26C579.672 275.278 585.813 268.428 586.154 265.691C583.321 270.083 580.206 273.362 576.849 276.26ZM385.095 88.9672C384.831 88.4216 385.185 87.9007 385.159 87.3144C384.543 88.1123 383.399 88.1278 383.246 89.8649C383.962 89.3876 384.442 88.6979 385.136 88.9109C384.355 90.4534 382.918 91.226 382.463 93.2458C382.216 94.3383 380.878 94.5731 380.422 95.7563C379.244 94.6286 379.535 95.9728 379.494 96.7075C379.452 97.4717 378.965 97.755 378.588 98.1051C378.147 98.5136 377.852 99.0296 377.513 99.5639C375.782 102.285 373.94 104.888 372.171 107.569C371.507 108.575 370.675 109.486 370.147 110.492C369.583 111.567 369.107 112.822 368.518 113.946C366.339 118.096 363.937 122.082 362.06 126.451C359.812 131.681 357.464 136.861 355.589 142.361C354.003 147.01 352.145 151.519 351.023 156.409C350.312 159.513 349.061 162.338 348.634 165.607C348.126 169.498 347.078 173.239 346.63 177.185C346.072 182.096 345.358 186.998 345.115 191.938C344.776 198.849 344.351 205.755 344.195 212.688C343.962 223.06 344.149 233.354 345.99 243.505C346.989 249.015 348.166 254.471 350.023 259.59C354.382 271.605 360.265 282.394 366.248 293.083C372.804 304.799 381.265 313.033 392.015 317.256C399.676 320.267 407.462 322.335 415.368 323.854C423.124 325.345 430.761 324.924 438.419 322.805C448.22 320.094 457.411 315.251 466.415 309.707C478.108 302.509 489.731 295.117 502.046 289.801C509.906 286.408 517.902 284.092 526.213 283.867C530.637 283.747 535.007 284.593 539.39 285.122C550.458 286.457 560.929 283.524 571.041 277.919C576.086 275.121 580.687 271.397 584.334 265.955C589.883 257.677 591.929 247.71 592.222 237.015C592.527 225.938 589.702 216.047 584.926 207.068C578.646 195.262 572.188 183.612 566.353 171.417C560.312 158.791 552.307 148.815 542.654 140.999C536.553 136.058 530.481 131.067 524.702 125.484C519.263 120.229 514.158 114.434 508.833 108.998C502.971 103.012 496.974 97.2544 489.976 93.6486C484.052 90.5954 478.089 87.6701 472.128 84.7413C466.434 81.9433 460.556 79.8686 454.788 77.3574C452.827 76.5033 450.721 76.0231 448.72 75.7672C446.793 75.5204 445.337 73.8444 443.155 74.0145C441.037 74.1805 438.564 73.102 436.295 72.2183C435.567 71.935 434.337 71.9301 433.331 71.9427C431.395 71.9666 429.432 71.9174 427.529 71.5104C425.75 71.13 423.598 72.7111 422.194 69.8301C422.679 70.7827 422.719 71.7037 422.24 72.4018C421.789 73.0605 421.049 72.9579 420.438 72.7168C419.278 72.2598 418.134 72.5059 416.964 72.5522C415.186 72.624 413.731 74.1952 411.927 74.1334C411.412 74.1158 410.876 73.4992 410.334 74.1214C409.482 75.1 408.274 74.9207 407.371 75.4747C405.687 76.5082 403.884 75.9535 402.22 76.6994C401.103 77.2007 400.065 77.832 399.034 78.6067C398.131 79.2851 397.157 80.0247 396.045 80.1224C395.479 80.1723 395.165 81.0279 394.549 80.8873C394.62 82.5781 393.45 82.3116 392.766 82.8326C391.906 83.4857 390.909 83.7149 390.103 84.5754C388.545 86.238 387.016 87.9879 385.095 88.9672ZM385.961 83.5623C388.423 81.0617 391.085 78.9589 393.802 76.9792C395.503 75.7405 397.272 74.6592 398.989 73.4556C399.677 72.9727 400.223 72.747 400.539 74.2887C400.197 72.6479 400.953 72.3195 401.692 71.9701C402.657 71.5139 403.659 71.1525 404.576 70.5669C405.43 70.0228 405.777 70.3159 405.847 71.7241C406.174 68.9162 408.09 69.0652 409.279 68.2652C411.796 66.5709 414.57 65.6703 417.462 65.6739C417.999 65.6746 418.572 65.6928 419.066 65.4672C420.666 64.7346 422.292 65.0608 423.908 65.1466C425.535 65.2331 427.175 65.2998 428.782 65.6176C431.501 66.1568 434.252 66.251 436.966 66.9618C440.098 67.7822 443.238 68.6174 446.39 69.2853C454.641 71.0344 462.528 74.4209 470.372 78.0049C476.797 80.9407 483.164 84.1015 489.412 87.63C496.758 91.7786 503.505 97.2608 509.797 103.696C516.735 110.79 523.431 118.29 530.618 124.963C534.367 128.444 538.323 131.526 542.255 134.648C550.763 141.402 558.412 149.5 564.805 159.508C568.829 165.807 572.091 172.806 575.484 179.678C579.57 187.952 584.028 195.886 588.353 203.943C591.403 209.625 593.963 215.629 595.711 222.194C597.208 227.814 598.175 233.607 597.974 239.55C597.763 245.768 597.314 251.984 595.392 257.846C594.507 260.545 593.508 263.106 592.398 265.672C590.859 269.226 588.743 271.925 586.573 274.6C582.203 279.986 577.006 283.609 571.316 286.124C567.422 287.846 563.516 289.473 559.456 290.368C552.81 291.834 546.159 292.07 539.451 290.856C530.025 289.15 520.711 289.951 511.515 293.355C506.947 295.046 502.378 296.815 497.991 299.078C488.668 303.887 479.616 309.546 470.501 315C462.904 319.547 455.217 323.83 447.068 326.507C442.893 327.878 438.672 328.996 434.404 329.591C427.727 330.52 421.08 329.759 414.459 328.385C406.771 326.791 399.189 324.651 391.733 321.709C379.972 317.068 370.233 308.606 362.782 295.835C356.844 285.657 351.202 275.182 346.756 263.765C340.823 248.531 338.438 232.287 339.11 215.193C339.443 206.716 339.755 198.24 340.432 189.803C341.226 179.896 342.499 170.082 344.94 160.604C347.004 152.584 349.389 144.728 352.426 137.227C357.249 125.315 362.623 113.857 369.28 103.526C372.886 97.93 376.701 92.5582 381.24 88.1439C382.825 86.6015 384.254 84.7849 385.995 83.5145C386.039 84.143 385.824 84.4397 385.405 84.8271C384.102 86.0328 382.796 87.2729 381.847 89.0065C381.394 88.9454 381.066 89.0881 380.704 89.5655C379.417 91.2619 377.999 92.7916 376.735 94.5133C375.235 96.5563 373.47 98.3012 372.396 100.843C371.183 101.842 370.389 103.276 369.824 104.947C370.716 103.613 372.222 102.896 372.356 100.793C372.808 100.685 373.156 100.331 373.451 99.9133C375.028 97.677 376.713 95.5855 378.375 93.4609C379.527 91.986 381.178 91.1072 381.823 88.9728C382.421 89.2765 382.711 88.6269 383.073 88.2557C384.786 86.4946 386.478 84.7026 388.314 83.1532C389.409 82.2287 390.469 81.2339 391.545 80.2708C391.478 80.1407 391.41 80.0106 391.342 79.8806C389.91 81.0265 388.458 82.1352 387.058 83.343C386.67 83.6776 386.411 84.1451 385.961 83.5623Z" fill="black"/>
</g>
<g opacity="0.1">
<path fill-rule="evenodd" clip-rule="evenodd" d="M16.8669 127.438C16.6944 127.645 16.5505 127.816 16.3685 128.034C15.4305 127.909 14.4617 127.729 13.4873 127.664C12.5235 127.599 11.5536 127.65 10.5864 127.65C9.82316 127.65 8.98819 127.417 8.31506 127.712C7.56689 128.04 6.74985 127.7 6.16072 128.079C5.47639 128.52 4.65207 128.018 4.0943 128.746C2.93789 128.61 1.97804 129.464 0.910107 129.665C-0.291107 129.891 -1.36856 130.451 -2.47121 130.953C-3.74522 131.534 -5.06067 131.975 -6.28205 132.743C-7.1523 133.289 -8.09087 133.705 -8.9936 134.168C-10.5997 134.99 -11.9812 136.182 -13.3852 137.348C-14.1541 137.986 -14.8216 138.797 -15.5367 139.526C-16.2126 140.218 -16.9681 140.823 -17.5555 141.608C-19.6326 144.387 -21.8368 147.061 -23.1841 150.504C-24.1104 151.498 -24.4834 152.924 -24.9487 154.198C-25.4141 155.472 -26.1057 156.683 -26.2272 158.13C-27.2464 160.138 -27.6502 162.434 -28.208 164.632C-28.6476 166.363 -29.2988 168.074 -29.2815 169.953C-29.8353 170.5 -29.5195 171.363 -29.8208 172.067C-30.1265 172.781 -30.3197 173.695 -30.2128 174.616C-30.1114 175.49 -30.6356 176.275 -30.5258 177.207C-30.4323 178.006 -30.5359 178.804 -30.7638 179.627C-30.985 180.423 -30.7369 181.365 -31.0864 182.214C-31.1709 182.419 -30.859 182.82 -30.8265 183.145C-30.8041 183.37 -31.0701 183.725 -30.9996 183.841C-30.5869 184.517 -30.9352 185.256 -30.8075 185.817C-31.0097 186.27 -31.167 186.621 -31.3949 187.131C-31.2118 187.248 -30.9587 187.41 -30.7308 187.555C-30.7308 189.965 -30.733 192.201 -30.7218 194.436C-30.7213 194.522 -30.5869 194.608 -30.5129 194.696C-30.6115 194.826 -30.7101 194.956 -30.8086 195.086C-30.5572 196.251 -30.1753 197.373 -30.1792 198.619C-30.1814 199.299 -30.0313 199.991 -29.8846 200.658C-29.5805 202.036 -29.3358 203.441 -29.1208 204.832C-28.8777 206.401 -28.1861 207.678 -27.644 209.044C-27.1098 210.392 -26.3734 211.578 -25.2214 212.404C-23.6321 213.542 -22.077 214.759 -20.3987 215.692C-19.5967 216.137 -18.7164 216.468 -17.9156 216.891C-17.0767 217.334 -16.183 217.526 -15.3441 217.822C-14.5976 218.084 -13.7217 218.179 -12.8963 218.268C-12.217 218.341 -11.5539 218.283 -10.8719 218.602C-10.262 218.887 -9.48248 218.392 -8.87152 219.005C-8.84184 219.036 -8.77239 219.01 -8.72143 219.01C-6.21373 218.989 -3.70826 219.794 -1.22015 219.32C0.462105 219.001 2.2334 218.977 3.80198 217.983C6.23129 217.618 8.33298 216.025 10.6805 215.355C11.3234 214.626 12.2329 214.544 12.9637 214.001C13.6788 213.47 14.5076 213.164 15.2502 212.68C17.8749 210.968 20.5126 209.284 23.0191 207.325C23.5075 206.943 23.8541 206.389 24.4068 206.055C25.0923 205.64 25.6719 204.937 26.233 204.28C26.7572 203.664 27.3121 203.097 27.6767 202.266C28.0351 201.447 28.7194 200.884 29.1999 200.11C30.3205 198.303 31.5071 196.536 32.2492 194.479C32.7106 193.2 33.1524 191.878 33.5456 190.55C33.9247 189.267 34.0563 187.915 34.5071 186.647C34.8565 185.666 34.7709 184.46 34.8621 183.353C34.9736 182.004 35.1091 180.655 35.1589 179.302C35.2099 177.904 35.2396 176.495 35.1505 175.103C35.0621 173.725 34.898 172.353 34.6348 170.99C34.4847 170.216 34.315 169.406 34.2769 168.612C34.2181 167.368 33.7914 166.295 33.4044 165.197C32.6361 163.015 31.5206 161.113 30.3323 159.209C29.0202 157.106 27.1357 155.821 25.7363 153.88C25.1516 153.07 24.3139 152.48 23.5198 151.941C22.9155 151.531 22.1842 151.447 21.5312 151.073C20.7304 150.615 19.8254 150.419 18.9669 150.104C18.8785 150.072 18.804 149.958 18.7177 149.948C17.6408 149.816 16.5634 149.686 15.4848 149.582C15.0799 149.544 14.6633 149.52 14.2657 149.593C13.9319 149.655 13.6368 148.998 13.3053 149.547C12.7688 149.053 12.2754 149.787 11.7081 149.612C11.2097 149.458 10.6817 149.66 10.1457 149.885C9.53308 150.143 8.79107 149.858 8.14538 150.295C7.74554 150.566 7.29137 150.721 6.83497 150.942C6.70841 150.79 6.52864 150.575 6.34216 150.352C6.27944 150.409 6.15736 150.47 6.16072 150.522C6.19488 151.11 6.03864 151.491 5.55928 151.788C4.71479 152.313 3.92182 152.956 3.05885 153.584C2.91213 153.484 2.70829 153.345 2.33588 153.09C2.27652 153.372 2.20876 153.693 2.15836 153.934C2.08612 153.892 2.281 154.005 2.52348 154.145C1.7826 155.015 1.04843 155.85 0.341141 156.716C-1.33272 158.764 -2.73161 161.06 -3.87066 163.579C-4.45475 164.871 -5.08195 166.143 -5.58428 167.48C-6.20085 169.12 -6.83477 170.752 -7.31302 172.471C-7.6563 173.703 -8.03263 174.917 -8.35463 176.162C-8.55455 176.934 -8.43807 177.723 -8.75167 178.52C-9.12632 179.473 -8.90343 180.735 -9.15152 181.793C-9.44104 183.027 -9.394 184.25 -9.44048 185.488C-9.45448 185.868 -9.63032 186.24 -9.73616 186.631C-9.64208 186.758 -9.54296 186.89 -9.44272 187.025C-9.50208 187.106 -9.56592 187.191 -9.61688 187.261C-9.55248 187.757 -9.43656 188.238 -9.43656 188.719C-9.43712 190.13 -9.12856 191.462 -8.81999 192.802C-8.33391 194.91 -7.11478 196.291 -5.51652 197.043C-3.64218 197.924 -1.66032 198.339 0.36858 198.637C2.02284 198.88 3.6547 198.755 5.27255 198.935C6.03192 198.29 6.93297 198.06 7.71082 197.499C7.97178 197.311 8.3089 197.205 8.57883 196.933C9.70556 195.796 10.9381 194.826 12.0313 193.618C12.5201 193.078 13.0914 192.578 13.5898 192.013C15.1578 190.238 16.1367 188.025 16.8378 185.619C17.0713 184.819 17.1184 183.894 17.488 183.21C17.9164 182.417 17.4717 181.419 18.0648 180.745C18.1661 179.274 18.3829 177.796 18.3308 176.332C18.2944 175.295 17.9819 174.266 18.0592 173.192C18.0765 172.956 17.0226 170.066 16.7885 169.813C16.28 169.262 15.7284 168.769 15.1953 168.252C14.6667 168.595 14.2438 167.741 13.6038 168.157C13.0757 168.501 12.2749 168.563 11.6852 168.366C11.0188 168.144 11.4729 168.782 11.2489 168.909C9.439 169.938 8.2837 171.968 6.65409 173.282C6.57457 173.346 6.52137 173.457 6.60313 173.346C6.41496 174.128 6.40712 174.798 6.12824 175.199C5.31231 176.375 5.13031 177.891 4.50478 179.159C4.36702 179.439 4.36031 179.822 4.32222 180.161C4.23934 180.906 4.51711 181.708 4.02822 182.399C3.92742 182.541 3.97446 182.883 4.02094 183.112C4.1531 183.762 4.32054 184.402 4.50198 185.162C6.49448 183.54 7.22585 180.846 8.66619 178.845H9.77948C9.56052 179.423 9.36171 179.947 9.03411 180.809C9.5006 180.571 9.72684 180.52 9.87804 180.365C10.2236 180.008 10.5327 179.599 10.8743 179.19C11.3273 179.553 11.5704 180.162 11.9937 180.586C12.3891 180.981 12.5173 181.758 12.8881 182.678C12.9026 184.04 11.9422 185.398 11.6499 187.006C11.0989 187.44 10.4772 187.698 10.382 188.738C10.3255 189.354 9.81196 189.91 9.57956 190.349C8.92547 190.697 8.39627 190.384 7.84858 190.776C7.08137 191.325 6.26096 190.345 5.41927 190.505C4.2315 189.564 2.81749 189.203 1.60508 188.259C0.693386 187.55 0.124981 186.581 -0.487667 185.628C-0.912151 184.967 -1.11432 184.109 -1.49008 183.395C-1.86192 182.69 -1.86192 181.854 -2.0288 181.113C-2.28417 179.977 -2.25841 178.659 -2.0568 177.49C-1.77064 175.839 -1.5192 174.156 -0.886391 172.598C-0.0967827 170.653 0.903389 168.896 2.15108 167.349C3.31925 165.901 4.49471 164.476 5.9804 163.436C6.94305 162.763 8.01826 162.55 9.00275 162.008C9.46363 161.753 9.88924 162.395 10.4476 162.049C10.8491 161.801 11.4489 161.953 11.9529 162.014C12.4753 162.077 13.177 162.035 13.4688 162.409C14.1206 163.244 15.2569 162.768 15.7564 163.808C16.7297 163.81 17.3295 164.672 17.9768 165.311C19.6305 166.947 21.357 168.539 22.1416 171.082C22.2559 171.453 22.3583 171.827 22.4653 172.196C22.6059 172.233 22.7447 172.27 22.8696 172.304C23.0959 173.317 23.3154 174.302 23.5411 175.313C23.503 175.372 23.4425 175.463 23.3322 175.632C23.5175 175.984 23.7231 176.375 23.9863 176.874C23.578 176.951 23.298 177.005 22.9917 177.063C22.9822 177.246 22.9738 177.411 22.962 177.646H23.6441C23.7432 177.755 23.7802 177.796 23.8171 177.836C23.3938 178.299 24.0787 178.721 23.8631 179.148C23.3579 180.148 23.6682 181.245 23.5517 182.288C23.4632 183.077 23.3227 183.871 23.1087 184.623C22.9732 185.101 22.6602 185.506 22.4295 185.938C23.0583 187.049 21.8806 188.139 22.2805 189.337C22.1674 189.365 22.0285 189.399 21.8734 189.438C21.5704 190.228 21.2557 191.048 20.8094 192.211V193.434C20.47 194.412 20.0825 195.14 19.299 195.406V196.212C18.4596 197.198 17.6509 198.315 16.69 199.192C16.3086 199.54 15.9351 199.919 15.5492 200.27C15.2037 200.585 14.7977 200.822 14.4981 201.187C13.4974 202.405 12.2295 203.131 10.9902 203.865C9.25419 204.894 6.77393 205.351 4.86319 205.102C4.1671 205.011 3.49229 204.682 2.72676 204.436C2.56044 204.513 2.26028 204.802 2.03964 204.732C-0.385746 203.961 -2.88113 203.602 -5.23764 202.381C-6.99326 201.47 -8.69511 200.47 -10.2122 199.153C-11.3182 198.194 -12.3016 196.945 -13.071 195.498C-13.9653 193.816 -14.8697 192.16 -15.325 190.216C-15.3625 190.057 -15.5076 189.928 -15.5289 189.771C-15.6459 188.911 -15.8122 188.049 -15.8273 187.184C-15.8682 184.81 -15.9321 182.427 -15.8066 180.061C-15.7338 178.7 -15.4857 177.325 -15.2931 175.965C-15.1072 174.655 -14.8501 173.372 -14.6429 172.073C-14.4094 170.609 -13.9384 169.249 -13.5364 167.863C-13.2132 166.751 -12.9248 165.574 -12.4427 164.578C-11.6111 162.86 -11.0623 160.988 -10.1629 159.29C-9.30104 157.663 -8.49687 155.975 -7.58798 154.373C-7.12542 153.556 -6.66789 152.711 -6.09333 152.014C-4.68435 150.305 -3.37562 148.452 -1.69336 147.099C-0.237904 145.929 1.18451 144.757 2.89253 144.022C4.5927 143.291 6.26824 142.75 8.05802 142.619C8.37666 142.595 8.68691 142.389 9.01675 142.261C9.12147 142.371 9.23347 142.487 9.34772 142.606C9.41324 142.54 9.48492 142.469 9.56276 142.392C9.85564 142.471 10.1816 142.489 10.4476 142.648C10.8166 142.87 11.0109 142.135 11.4713 142.524C11.7804 142.785 12.3465 142.597 12.7962 142.638C13.1782 142.671 13.62 142.439 13.9062 142.957C14.3441 142.183 14.7423 143.105 15.1656 143C15.7245 142.861 16.21 143.172 16.7213 143.355C17.1777 143.518 17.6526 143.607 18.1191 143.729C18.5861 143.851 19.1058 143.856 19.5107 144.115C21.2193 145.208 23.2667 145.547 24.6292 147.367C25.6635 147.331 26.3047 148.234 27.0377 148.831C29.6625 150.97 31.8633 153.697 34.0104 156.456C36.1126 159.158 37.8688 162.211 38.9597 165.682C39.5387 167.523 40.1934 169.354 40.4096 171.375C40.5479 172.672 40.8637 173.97 40.9539 175.283C41.0446 176.614 40.9735 177.96 40.9735 179.3C40.9735 180.274 40.9813 181.249 40.9718 182.223C40.9623 183.213 41.0284 184.173 40.5064 185.109C40.2063 185.647 40.2802 186.484 40.1856 187.187C40.7708 187.572 39.6659 188.257 40.3312 188.606C39.8977 189.614 39.4648 190.619 39.0286 191.634C38.883 191.476 38.7844 191.33 38.6573 191.246C38.5828 191.197 38.4624 191.247 38.309 191.255C38.2054 191.705 38.6433 191.748 38.785 192.185V193.672C38.6489 193.835 38.4691 194.05 38.2513 194.311C38.323 194.423 38.3997 194.542 38.4871 194.677C37.8419 195.453 37.7613 196.583 37.3111 197.498C36.8009 198.535 36.3462 199.617 35.6327 200.365C35.1371 200.207 34.7429 200.081 34.3486 199.956C34.324 200.044 34.2993 200.132 34.2747 200.22C34.4578 200.315 34.6409 200.41 34.9333 200.563C34.6566 200.79 34.4158 200.987 34.1756 201.184C34.212 201.266 34.2484 201.348 34.2848 201.43C34.525 201.366 34.7658 201.302 35.099 201.212C35.122 201.431 35.1545 201.74 35.1886 202.064C34.9685 202.16 34.7921 202.237 34.5345 202.35C34.5984 202.71 34.6639 203.084 34.7613 203.637C34.4085 203.878 33.9331 204.204 33.3871 204.577C33.1614 205.186 32.8943 205.906 32.6277 206.624C32.6731 206.657 32.719 206.689 32.7649 206.721C31.6539 208.05 30.6201 209.491 29.4127 210.679C27.9634 212.105 26.4038 213.388 24.8246 214.608C22.5857 216.338 20.293 217.969 18.0026 219.602C17.731 219.795 17.3323 219.733 16.9235 219.801C16.4155 220.907 15.3011 221.056 14.4393 221.662C13.6346 222.227 12.7251 222.582 11.8241 223.049C11.7244 222.809 11.6241 222.568 11.5222 222.323C11.0193 223.789 9.73804 223.811 8.72835 224.401C8.59339 224.311 8.39795 224.18 8.12858 223.999C8.0485 224.31 7.99586 224.517 7.94266 224.724C7.90682 224.767 7.8581 224.856 7.83626 224.846C7.20849 224.6 6.67817 225.077 6.13776 225.256C3.55165 226.118 0.914024 225.84 -1.70904 225.983C-3.72506 226.092 -5.69628 225.657 -7.6899 225.533C-8.44815 225.486 -9.2736 225.398 -9.99265 225.154C-10.7352 224.902 -11.4733 225.041 -12.1649 224.821C-13.0413 224.543 -13.9177 224.296 -14.8009 224.054C-15.7624 223.792 -16.7161 223.444 -17.6507 223.038C-18.5815 222.633 -19.543 222.33 -20.4726 221.924C-21.4 221.519 -22.2921 220.999 -23.2222 220.605C-25.9371 219.456 -28.2208 217.381 -30.6826 215.688C-31.8038 214.149 -33.1444 212.877 -34.2107 211.244C-35.0512 209.958 -35.7731 208.589 -36.4764 207.224C-37.2353 205.751 -37.7331 204.078 -38.1385 202.394C-38.5647 200.626 -38.9584 198.853 -39.067 197.003C-39.0967 196.5 -39.2731 196.011 -39.3577 195.509C-39.4434 195.004 -39.1723 194.411 -39.6371 193.995C-39.6898 193.949 -39.6606 193.769 -39.6668 193.652C-39.7687 191.571 -39.9115 189.491 -39.9614 187.408C-40.0123 185.278 -39.9798 183.146 -39.9608 181.015C-39.9586 180.818 -39.7883 180.625 -39.6959 180.43C-39.7827 180.313 -39.8818 180.181 -40 180.022C-39.8897 179.714 -39.6573 179.386 -39.687 179.097C-39.8718 177.288 -39.2989 175.556 -39.3532 173.764C-39.3666 173.311 -39.5195 172.778 -39.0788 172.443C-39.5537 172.047 -39.0054 171.69 -39.0357 171.294C-39.0704 170.848 -39.1085 170.407 -38.8553 169.926C-38.5305 169.308 -38.9545 168.395 -38.4454 167.762C-38.4387 165.829 -37.6838 164.114 -37.3383 162.284C-37.0734 160.882 -36.6327 159.601 -36.1584 158.295C-35.7675 157.221 -35.5508 156.053 -35.2007 154.936C-34.3708 152.289 -33.3499 149.753 -32.305 147.238C-31.6094 145.565 -30.5656 144.107 -29.8633 142.416C-28.9421 141.893 -28.7596 140.638 -28.0932 139.822C-27.4116 138.988 -26.8001 138.031 -26.1018 137.187C-25.3861 136.321 -24.6894 135.429 -23.9374 134.61C-22.7098 133.271 -21.3098 132.172 -20.0532 130.892C-18.7836 129.598 -17.3158 128.736 -15.9393 127.703C-14.6407 126.727 -13.1488 126.053 -11.6749 125.503C-10.6372 125.116 -9.6684 124.518 -8.59095 124.241C-7.25254 123.898 -5.95444 123.336 -4.62947 122.909C-4.07394 122.729 -3.35378 122.865 -2.95897 122.484C-2.36817 121.915 -1.67152 122.496 -1.13839 121.954C-0.673027 121.481 0.0824165 122.186 0.516422 121.441C0.533222 121.412 0.614983 121.428 0.664265 121.438C1.92204 121.708 3.10589 120.991 4.35638 121.058C5.57552 121.123 6.83385 120.853 8.01266 121.122C9.91556 121.557 11.898 121.581 13.6704 122.857C15.0049 123.817 16.135 124.871 16.7325 126.615C16.8227 126.878 16.8272 127.181 16.8669 127.438Z" fill="black"/>
</g>
<g opacity="0.1">
<path fill-rule="evenodd" clip-rule="evenodd" d="M129 141.5C127.084 143.079 126.184 145.366 125.799 147.936C125.587 149.355 124.355 149.549 123.429 149.798C122.627 150.014 121.888 150.043 121.24 150.738C120.972 151.026 120.135 151.089 119.784 150.864C118.66 150.143 117.456 149.617 116.419 148.656C112.765 145.276 110.088 141.095 107.581 136.829C105.024 132.477 102.347 128.172 100.388 123.452C99.7792 121.983 99.7545 121.994 101.288 120.854C102.534 123.347 103.696 125.877 105.042 128.296C106.109 130.214 107.4 131.993 108.701 134.001C109.007 133.192 109 132.675 108.525 131.954C105.938 128.026 103.483 124.009 101.536 119.408C101.847 119.195 102.223 118.936 102.597 118.68C102.684 118.758 102.876 118.934 103.206 119.234V117.596C104.13 117.402 104.968 117.228 106.058 117C106.908 117.417 107.312 118.999 108.711 119.195C108.666 120.795 109.996 121.593 110.665 122.762C111.494 124.211 112.618 125.473 113.413 126.545C114.312 126.419 114.984 126.287 115.662 126.237C118.042 126.062 117.984 126.141 119.466 127.515C121.114 129.043 122.241 131.181 124.366 132.151C124.503 132.213 124.655 132.432 124.662 132.585C124.728 134.192 125.585 134.776 127.02 135.166C128.224 135.495 128.566 136.829 128.623 138.143C128.666 139.149 128.842 140.149 129 141.5Z" fill="black"/>
<path fill-rule="evenodd" clip-rule="evenodd" d="M102.346 65C101.112 63.6107 100.076 62.2502 98.869 61.1224C95.4056 57.8869 93.7613 53.3094 91.69 49.049C90.7595 47.1359 91.0255 44.9871 91.0657 42.9176C91.073 42.5585 91.5136 42.2096 91.7714 41.8329C92.1233 42.6171 92.4532 43.3519 92.935 44.4242V40.5929C93.6598 40.1884 94.3755 39.9682 94.8636 39.4681C95.4696 38.8475 96.1543 38.97 96.71 39.1274C97.3572 39.3106 97.9092 39.9188 98.5601 40.384C98.1789 42.3948 98.8818 44.0784 99.7529 45.833C100.533 45.5953 101.453 46.219 102.234 45.3175C102.399 45.1261 102.942 45.1106 103.176 45.2691C105.088 46.5647 107.435 47.2522 108.402 49.9114C108.575 50.3909 108.768 51.0104 109.117 51.2235C109.644 51.5445 109.171 52.5469 110.075 52.586C110.819 52.6179 110.344 53.472 110.478 53.9372C110.643 54.5135 110.869 55.0774 110.958 55.6681C111.041 56.2094 110.976 56.7796 110.976 57.3414C109.062 59.1897 107.831 61.5443 106.888 64.1675C105.357 64.4474 103.803 64.7324 102.346 65Z" fill="black"/>
<path fill-rule="evenodd" clip-rule="evenodd" d="M140.227 9.29537C140.296 8.79384 140.366 8.29131 140.443 7.73893C140.633 7.88251 140.803 7.93935 140.847 8.05002C141.521 9.75503 142.36 11.3892 142.755 13.2129C143.004 14.3595 143.321 15.4573 142.249 16.3507C141.519 16.9589 142.259 18.7058 140.617 18.6081C139.843 19.8953 138.602 19.7667 137.415 19.6789C137.148 20.5404 136.981 21.38 136.631 22.1288C136.237 22.9723 134.978 23.2106 133.629 22.8118C133.321 22.721 133.023 22.4109 132.741 22.4369C130.554 22.6343 130.558 22.6512 129.638 20.8665C129.179 19.9761 128.624 19.1256 128.267 18.1933C127.834 17.0566 127.16 16.3467 126.051 15.8561C124.405 15.1273 123.336 13.6496 123.052 11.8918C122.794 10.3004 123.514 8.8407 124.887 7.69406C125.567 8.61337 126.245 9.52969 127.195 10.8139C127.195 9.49977 127.182 8.61536 127.199 7.73195C127.217 6.85353 127.309 7.033 128.652 6.40684C129.611 5.95915 131.001 6.50156 131.553 5.1236C132.501 5.08571 133.448 5.04981 134.396 5.01192C136.146 4.94013 137.698 5.13756 138.514 7.15165C138.838 7.94932 139.613 8.55155 140.227 9.29537Z" fill="black"/>
<path fill-rule="evenodd" clip-rule="evenodd" d="M75.6732 161.218C74.1608 161.177 72.7299 160.779 71.9989 162.411C70.7641 160.827 70.6183 159.704 71.8756 158.446C72.7438 157.578 73.3162 156.494 74.4223 155.744C75.3902 155.086 75.7461 153.633 76.58 152.708C77.221 151.996 78.1835 151.558 79.0035 151C79.2596 151.243 79.5362 151.508 79.9724 151.924C79.5094 152.245 79.0549 152.56 78.5994 152.874C78.6498 152.987 78.7012 153.101 78.7516 153.215C79.4183 153.113 80.0839 153.01 80.8331 152.896C81.0325 153.187 81.264 153.934 81.7603 154.185C84.7411 155.696 86.6437 158.217 88.4551 160.805C89.05 161.654 89.2547 162.753 89.7328 163.693C90.9129 166.016 91.2173 166.445 90.8582 168.556C90.5988 170.083 90.3126 171.71 89.0811 172.954C88.5944 173.444 88.0757 174.152 88.0499 174.78C87.9856 176.366 87.0906 176.62 85.7744 176.538C85.4067 176.515 85.0177 176.561 84.6597 176.655C82.3637 177.256 82.1269 177.193 80.9821 175.48C79.2864 172.944 78.4761 170.044 77.49 167.225C76.7933 165.234 76.2617 163.186 75.6732 161.218Z" fill="black"/>
<path fill-rule="evenodd" clip-rule="evenodd" d="M34.9992 127C33.3179 126.074 31.6155 125.264 30.2449 123.924C27.6914 121.423 24.9503 119.08 22.5942 116.416C20.1172 113.614 17.4949 110.853 16 107.568C16.1576 106.272 17.8999 107.649 17.9332 106.119C17.9432 105.682 19.0474 105.26 19.66 104.846C21.1804 103.817 22.0294 103.645 23.1369 104.788C24.23 105.917 25.494 106.321 26.9245 106.615C29.1341 107.069 30.6589 108.715 32.5499 109.727C34.573 110.81 36.0146 112.553 37.6582 114.068C38.5094 114.851 39.567 115.453 40.2983 116.32C41.0341 117.193 41.7099 118.242 41.9707 119.315C42.1283 119.968 41.6223 120.954 41.1073 121.536C40.4714 122.254 40.1707 123.29 39.0576 123.638C38.4139 123.838 38.5049 124.536 38.3795 125.11C38.2353 125.77 38.0455 126.573 36.8647 125.744C36.039 125.166 35.3443 125.986 34.9992 127Z" fill="black"/>
<path fill-rule="evenodd" clip-rule="evenodd" d="M151.21 114C147.966 112.682 146.572 110.231 145.185 107.85C143.967 105.756 142.857 103.577 141.951 101.335C141.048 99.0964 139.473 96.9752 140.175 94.158C142.227 95.5687 142.057 98.2654 144.028 100.068C143.667 97.2162 142.167 95.0127 141.418 92.0081C142.454 92.5682 142.83 92.7711 143.289 93.0192C143.378 92.5301 143.471 92.0173 143.562 91.5066C144.42 91.346 145.267 91.1874 146.267 91C146.532 91.4181 146.88 92.0359 147.293 92.6084C148.904 94.8356 148.914 94.8253 151.841 95.8519C152.167 95.9672 152.473 96.1546 152.77 96.3399C155.037 97.7527 157.1 99.3445 158.347 101.8C158.809 102.709 159.437 104.377 159.409 105.343C159.403 105.57 159.595 105.836 159.762 106.027C160.188 106.514 159.996 106.929 159.555 107.175C158.276 107.887 157.722 109.287 156.587 110.125C156.102 110.483 156.016 110.958 155.928 111.548C155.807 112.351 154.21 113.392 153.467 113.224C153.006 113.119 152.709 112.285 152.082 112.899C151.753 113.223 151.502 113.624 151.21 114Z" fill="black"/>
<path fill-rule="evenodd" clip-rule="evenodd" d="M58.7823 45.4132C58.3048 45.5049 57.8043 45.6 57.1132 45.7323C57.386 46.3243 57.5806 46.7444 57.7842 47.1854C56.4852 48.6884 55.1331 50.2529 53.7388 51.8673C53.5142 51.8673 53.2393 51.8198 52.9805 51.8743C49.9121 52.5312 47.8689 50.5164 46.1647 48.0872C44.8336 46.1896 43.6891 44.0994 42.7984 41.8188C42.2427 40.3947 41.7462 39.0832 42.1434 37.1485C43.0742 39.5161 43.9038 41.6238 44.7333 43.7326C44.8808 43.6769 45.0282 43.6224 45.1767 43.5666C45.1095 43.1651 45.0994 42.7345 44.965 42.3654C44.4103 40.8404 43.7794 39.3501 43.2568 37.8123C43.0251 37.131 42.5286 36.2826 43.7934 35.9658C44.1836 35.8683 44.4123 34.8945 44.7102 34.3177C44.971 33.8117 45.2238 33.2999 45.4304 32.8913C46.7093 32.7555 46.7214 34.0496 47.5188 34.5835C47.3333 33.7688 47.1477 32.954 46.9029 31.8816C47.3122 31.5067 47.8589 31.0053 48.4055 30.5028C48.7506 30.8997 49.208 31.5323 49.6323 30.3658C50.0927 29.1054 50.7728 28.6145 51.8751 29.442C51.9755 29.5174 52.1831 29.5755 52.2493 29.5128C53.5262 28.2953 54.2785 29.5081 54.8693 30.439C56.2796 32.6638 56.9436 35.3356 57.7882 37.8773C57.9868 38.4739 58.4192 39.8747 56.9647 39.942C56.8825 39.9455 56.8193 40.469 56.748 40.7498C57.051 40.8346 57.5164 41.1061 57.6317 40.9715C58.4472 40.0256 58.8866 41.2605 58.8063 41.4775C58.3158 42.8111 59.4523 44.0994 58.7823 45.4132Z" fill="black"/>
<path fill-rule="evenodd" clip-rule="evenodd" d="M49.5879 -18.9533C49.9189 -18.5803 50.251 -18.2061 50.7548 -17.6396C50.8469 -18.5384 50.9235 -19.2797 51.0073 -20.0887C52.168 -20.3626 53.365 -20.7077 54.5805 -20.9105C55.315 -21.0329 56.0909 -21.0294 56.8234 -20.9023C57.382 -20.8044 56.9434 -19.6318 57.9852 -19.5292C58.6586 -19.4627 59.1759 -18.1735 59.6549 -17.2759C60.0439 -16.5474 59.4614 -14.9703 60.9388 -15.0647C60.9894 -14.0331 61.0401 -13.0003 61.0929 -11.9687C61.097 -11.8684 61.1177 -11.7693 61.1312 -11.6691L65.3231 -6.94583C65.7721 -6.94583 66.248 -7.01111 66.7021 -6.93067C67.4025 -6.80362 68.1567 -6.02146 67.7977 -5.53654C66.999 -4.4583 68.4308 -3.71344 67.8629 -2.83336C65.681 -2.09666 64.9931 -2.01507 63.2178 -2.36477C63.6627 -1.28187 64.0496 -0.337677 64.5358 0.848969C64.2524 1.15554 63.8789 1.90273 63.5106 1.9004C61.186 1.88058 58.7393 2.54501 56.6672 0.685774C56.1054 0.181042 55.4268 -0.214117 54.9902 -0.830753C53.9939 -2.23654 53.1022 -3.73676 52.1928 -5.21948C51.7449 -5.95035 51.3621 -6.73368 50.9317 -7.4797C50.2655 -8.63488 50.4631 -10.2994 49.2413 -11.1259C49.4265 -12.527 48.7251 -13.5866 48.2771 -14.7954C47.6678 -16.4378 48.0454 -18.0091 49.5879 -18.9533Z" fill="black"/>
<path fill-rule="evenodd" clip-rule="evenodd" d="M13.6369 40.9914C13.6369 40.7204 13.5763 40.3434 13.6584 40.0054C13.7134 39.7794 14.0744 39.6254 14.1061 39.4084C14.1406 39.1713 13.8813 38.8993 13.8785 38.6413C13.8767 38.4123 14.177 38.1313 14.1183 37.9623C14.011 37.6513 13.7703 37.3632 13.5231 37.1472C13.359 37.0032 13.0857 37.0012 12.748 36.9032C12.9066 37.4942 13.0344 37.9703 13.1631 38.4473C12.2648 37.8603 11.2668 37.3922 11.7061 35.9772C12.0774 36.1472 12.4421 36.3162 12.8945 36.5242C13.04 34.8211 11.5671 35.7072 11 34.9011C11.8302 35.0061 12.3833 34.3931 13.2181 34.5121C13.6052 34.5671 14.1089 33.685 14.7022 33.083C15.5258 33.804 16.4493 34.6111 17.5294 35.5561C17.6348 34.8651 17.7104 34.3731 17.8018 33.774C19.0228 33.521 20.2746 33.262 21.5403 33C22.1905 33.89 22.6988 34.7021 23.3182 35.4011C23.8555 36.0052 24.5942 36.4082 25.1119 37.0272C26.5726 38.7753 27.2349 40.9824 27.8356 43.1656C28.0511 43.9466 28.288 45.1827 26.8954 45.3917C26.9019 46.8258 25.4916 47.0398 24.8554 47.9488C24.0579 49.0869 22.6475 49.2829 21.1252 48.6239C18.8455 47.6368 17.3475 45.7287 15.8915 43.8706C15.163 42.9396 14.3449 42.0615 13.6369 40.9914Z" fill="black"/>
<path fill-rule="evenodd" clip-rule="evenodd" d="M59.4149 84.4775C59.8487 84.6242 60.2678 84.7649 60.748 84.9273C60.8456 82.6843 58.5077 82.0556 58.1823 79.9907C58.6556 80.1979 59.0412 80.2859 59.3202 80.5059C59.7679 80.8599 60.1446 81.2999 60.7027 81.8533C60.5124 80.7289 60.3861 80.4707 59.7393 79.7013C61.1533 78.0059 61.1533 78.0059 62.8227 78C63.7407 79.0256 64.5246 80.3769 65.701 81.0887C66.9997 81.8757 67.3823 83.2191 68.3397 84.1822C69.2548 85.1042 69.8622 86.3596 70.4686 87.5378C70.8019 88.1831 71.0849 89.0073 70.9765 89.6859C70.8384 90.5434 70.4696 91.8037 69.8583 92.0471C68.8525 92.449 69.0773 93.1539 68.7608 93.7601C68.3269 94.5882 67.7333 95.3939 66.6447 95.5718C66.0087 95.6755 65.2514 96.1565 64.785 95.9483C63.65 95.4408 62.4776 94.7945 61.6384 93.9077C60.0548 92.2339 58.6388 90.3928 57.284 88.5273C56.9438 88.0599 57.1006 87.2386 57 86.3147C57.4516 86.6764 57.6311 86.8192 58.0117 87.1232C57.8145 85.7632 59.0135 85.2968 59.4149 84.4775Z" fill="black"/>
<path fill-rule="evenodd" clip-rule="evenodd" d="M45 189.745C44.2152 189.318 43.837 189.112 43.4704 188.912C42.8246 191.223 42.6645 191.343 40.7566 190.51C41.2602 191.672 41.6637 192.6 42.103 193.61C41.6047 193.896 41.0948 194.191 40.5797 194.487C39.6484 193.566 38.7035 192.63 37.6711 191.606C37.0495 192.993 38.7603 193.633 38.5918 194.972C37.0569 195.184 36.1667 194.15 35.2829 193.198C34.8004 192.679 34.5391 191.953 34.0419 191.453C31.8254 189.224 29.8343 186.815 27.9781 184.289C27.8117 184.063 27.581 183.881 27.3745 183.685C26.2557 182.628 25.0832 181.607 25 179.884C26.1167 179.207 26.7098 180.25 27.4693 180.896C28.2415 179.63 26.4548 179.461 26.5349 178.529C26.6034 177.404 28.764 178.839 28.2152 177H31.326C32.2162 177.621 33.119 178.235 34.004 178.873C34.892 179.513 35.4788 180.432 36.566 180.953C37.6215 181.46 38.321 182.655 39.2502 183.466C39.8559 183.995 40.2405 184.722 41.2086 184.96C41.9091 185.131 42.2831 186.184 43.3471 186.049C43.6431 186.01 44.1772 186.54 44.3279 186.917C44.6155 187.635 44.704 188.429 45 189.745Z" fill="black"/>
<path fill-rule="evenodd" clip-rule="evenodd" d="M25.0967 -6.21604C26.211 -6.14957 26.9808 -6.66957 28 -6.0059C27.4821 -5.84507 27.1067 -5.7282 26.6968 -5.60062C27.0794 -4.42873 27.5046 -3.26436 27.8171 -2.07639C27.8967 -1.7719 27.7196 -1.17041 27.4856 -1.08142C26.186 -0.586075 25.7928 0.675869 24.7807 1.36742C24.3329 1.67406 23.6617 1.77377 23.076 1.83381C22.7826 1.86276 22.4369 1.46284 22.1435 1.49072C21.7859 1.52503 21.4581 1.80701 21.0815 2C20.5255 0.22663 20.554 0.154795 18.3647 -0.518528C17.0544 -0.921664 16.7824 -2.0839 15.8534 -2.81512C15.6455 -2.4152 15.4448 -2.02922 15.2202 -1.59606C14.8936 -1.90485 14.3435 -2.18575 14.3447 -2.46452C14.3614 -5.948 14.3578 -6.02627 12.5961 -8.11378C11.603 -6.53877 13.5061 -5.62742 13.6094 -4.08671C13.1378 -4.15319 12.4334 -4.10387 12.3514 -4.28506C11.5234 -6.10132 10.2618 -7.81679 11.5555 -9.99544C11.957 -10.672 12.0295 -11.0269 12.9311 -11.0408C13.487 -11.0483 14.0846 -11.3432 14.5799 -11.6262C15.8641 -12.3585 17.1007 -13.1562 18.4728 -14C18.7864 -13.5776 19.0763 -13.1862 19.0062 -13.2816C20.0884 -12.6008 21.2169 -14.4342 21.3975 -12.5225C21.4497 -11.98 22.7933 -13.2741 22.7933 -11.8535C22.7933 -11.3046 23.9111 -10.7545 24.473 -10.2474C24.2723 -9.77779 24.0822 -9.32963 23.8909 -8.88146C24.0501 -8.78175 24.2093 -8.68203 24.3697 -8.58232C24.6512 -9.06587 24.9328 -9.54942 25.288 -10.1573C25.8665 -9.26958 26.2027 -8.75601 26.6434 -8.08162C26.1646 -7.50479 25.6313 -6.86042 25.0967 -6.21604Z" fill="black"/>
<path fill-rule="evenodd" clip-rule="evenodd" d="M-7.75096 117.016C-7.3037 118.009 -6.978 118.731 -6.51239 119.762C-6.21652 119.011 -6.08004 118.666 -5.93554 118.301C-5.79563 118.384 -5.56627 118.441 -5.53645 118.549C-5.25433 119.577 -4.74515 120.456 -3.97104 121.237C-3.50773 121.704 -3.17286 122.306 -2.85748 122.886C-2.30128 123.912 -1.51227 124.613 -0.234709 124.83C-0.0340157 124.441 0.172412 124.038 0.268744 123.851C0.860503 124.276 1.50387 124.739 1.98324 125.083C1.98324 125.457 2.02452 125.618 1.9775 125.648C1.41098 126.001 0.831833 126.334 0.303149 126.644C0.456823 127.464 0.594441 128.206 0.802015 129.318C-0.134935 128.881 -0.647564 128.642 -1.38612 128.296C-1.79553 129.086 -2.20609 129.88 -2.64762 130.734C-3.06735 130.779 -3.55934 130.834 -4.16142 130.899V132.232C-5.73256 133.36 -7.01814 133.209 -8.38056 132.017C-9.86455 130.719 -11.5378 129.623 -13.0516 128.077C-12.4151 127.674 -11.8004 127.284 -11.126 126.858C-11.4701 125.648 -12.0882 124.568 -12.9793 123.512C-13.8704 122.455 -14.3589 121.084 -15 119.894C-14.0837 118.81 -13.36 119.612 -12.5194 119.951C-12.4839 119.649 -12.3382 119.326 -12.438 119.109C-13.0653 117.756 -12.7935 117.087 -11.4644 117.029C-10.2166 116.972 -8.96429 117.016 -7.75096 117.016Z" fill="black"/>
<path fill-rule="evenodd" clip-rule="evenodd" d="M-0.681341 76.6562C0.0386739 76.8802 0.790547 77.1132 1.71446 77.4003C2.10633 76.4108 2.22208 75.4606 1.39587 74.5769C2.41111 73.5986 3.08652 75.0734 4.08159 74.9135C4.17398 74.381 4.27274 73.8204 4.36832 73.271C5.1478 72.3862 5.85083 74.0185 6.79279 73.2485C7.756 72.4605 7.99919 74.1615 8.81797 74.3562C9.2778 74.4654 9.7079 74.9732 10.036 75.401C11.1235 76.8149 11.2934 78.8154 12.7579 80.0503C13.1083 80.3453 12.9214 81.3596 13 82.2613C11.3763 81.4159 11.2775 84.147 9.71321 83.4997C9.23214 84.3249 9.68666 85.821 7.92698 86C7.74113 85.6645 7.45015 85.1388 7.03598 84.389C6.68341 85.1692 6.51243 85.5474 6.33721 85.937C5.3517 86.1846 4.90037 85.284 4.57647 84.711C3.50069 82.8028 2.10739 81.3427 0.305228 80.2012C-0.803467 79.4987 -1.41198 78.3538 -0.681341 76.6562Z" fill="black"/>
</g>
<g opacity="0.1">
<path fill-rule="evenodd" clip-rule="evenodd" d="M154.201 687.903C155.276 687.903 156.221 688.063 157.081 687.868C158.673 687.509 160.815 684.347 160.693 682.741C160.675 682.495 160.592 682.137 160.418 682.039C159.619 681.592 158.777 681.218 157.951 680.818C157.461 681.641 155.943 680.718 155.736 682.081C155.651 682.643 154.334 682.284 154.685 683.28C153.835 684.754 154.457 686.323 154.201 687.903ZM150 681.519C150.258 681.087 150.594 680.688 150.754 680.231C151.334 678.575 152.84 677.938 154.286 677.54C155.291 677.263 156.361 676.933 157.516 677.012C160.14 677.192 161.984 678.393 163.297 680.562C163.909 681.573 164.484 682.596 164.743 683.734C164.917 684.505 165.13 685.398 164.898 686.101C163.996 688.83 162.456 691.121 159.544 692.206C158.741 692.504 157.907 692.723 157.082 692.965C156.952 693.004 156.776 693.019 156.66 692.964C154.548 691.963 152.507 690.824 151.281 688.796C150.754 687.925 150.266 686.918 150.396 685.823C150.552 684.496 149.97 683.099 150.783 681.834C150.54 681.736 150.296 681.638 150 681.519Z" fill="black"/>
<path fill-rule="evenodd" clip-rule="evenodd" d="M82.3158 710.242C81.6272 710.085 81.2256 709.795 81.4729 708.976C81.5795 708.927 81.7679 708.877 81.9151 708.769C83.3194 707.749 85.0466 707.596 86.6275 707.091C87.317 706.87 88.4112 707.068 88.9886 707.512C90.7834 708.894 92.7746 710.094 93.6239 712.466C94.3253 714.425 94.0422 716.939 92.8033 718.541C92.0844 719.471 91.0776 720.055 90.3373 721C89.1238 720.803 87.845 721.298 86.6379 720.565C86.0741 720.222 83.6192 718.918 83.1389 718.557C82.02 717.718 81.5834 716.489 81.1652 715.243C81.0785 714.986 80.9409 714.658 81.0276 714.446C81.5827 713.081 81.1874 711.441 82.3158 710.242Z" fill="black"/>
<path fill-rule="evenodd" clip-rule="evenodd" d="M183.675 663.577C185.51 665.231 188.575 666.154 191.094 666.063C192.302 666.021 193.214 665.62 194.014 664.839C194.477 664.387 194.952 663.947 195.434 663.491C195.16 663.135 194.915 662.938 194.838 662.693C194.48 661.57 193.83 660.865 192.486 660.769C191.877 660.726 191.299 660.35 190.691 660.177C190.293 660.064 189.592 659.874 189.494 660.013C188.938 660.802 188.636 659.565 187.907 660.165C187.487 660.538 186.785 661.161 186.079 661.788C185.508 661.363 185.058 661.029 184.66 660.734C183.214 661.416 183.946 662.569 183.675 663.577ZM198.006 665.003C198.448 665.148 198.716 665.236 199 665.329C198.771 666.012 198.556 666.652 198.34 667.295C197.978 667.335 197.615 667.376 197.106 667.431C197.274 667.644 197.38 667.78 197.545 667.989C196.762 668.899 195.863 669.597 194.475 669.54C194.129 669.525 193.767 669.657 193.426 669.762C192.481 670.056 191.561 670.117 190.621 669.717C190.299 669.581 189.69 669.425 189.586 669.551C188.721 670.608 188.009 669.249 187.161 669.432C186.804 669.509 186.466 668.628 185.704 668.604C185.297 668.591 184.936 668.024 184.504 667.793C183.997 667.524 183.798 666.803 183.048 666.907C182.696 665.831 181.557 665.334 180.986 664.441C179.713 662.454 179.711 659.598 180.758 657.675C181.683 655.972 183.428 655.473 185.032 656.619C185.809 657.175 186.399 657.617 187.285 656.946C187.59 657.403 187.874 657.219 188.095 656.892C188.448 656.371 188.986 656.34 189.511 656.444C191.337 656.806 193.19 657.295 194.659 658.335C195.951 659.25 196.876 660.627 197.964 661.8C197.876 662.841 199.275 663.825 198.006 665.003Z" fill="black"/>
<path fill-rule="evenodd" clip-rule="evenodd" d="M216.984 714.592C217.697 714.27 218.498 713.738 219.668 714.15C219.544 714.296 219.439 714.422 219.224 714.676C219.686 714.78 220.436 714.801 220.492 714.983C220.88 716.241 222.522 716.597 223.014 717.763C223.843 719.735 224.571 721.703 223.353 723.746C223.217 723.973 223.079 724.025 223.273 724.346C223.811 725.232 223.31 725.87 222.37 726.33C221.716 726.649 222.078 726.968 222.459 727.287C221.641 728.195 220.821 729.105 220.015 730H217.408C216.926 729.552 216.334 729.011 215.753 728.461C215.231 727.967 214.547 727.658 214.076 727.064C213.007 725.718 212.805 724.264 213.162 722.768C213.442 721.604 214.103 720.511 214.434 719.353C214.651 718.596 214.864 717.988 215.739 717.575C216.09 717.409 216.332 716.8 216.321 716.399C216.307 715.812 216.78 715.591 217.076 715.219C217.173 715.098 217.027 714.834 216.984 714.592Z" fill="black"/>
<path fill-rule="evenodd" clip-rule="evenodd" d="M238.575 647.759C238.463 647.662 238.299 647.582 238.245 647.465C237.853 646.607 236.802 646.75 236.07 646.519C235.679 646.396 234.987 646.956 234.443 647.225C234.201 647.345 233.717 648.031 233.394 648.527C233.145 648.913 232.871 649.543 232.535 649.58C231.778 649.666 231.932 650.029 231.863 650.419C231.816 650.687 231.609 650.934 231.489 651.16C233.168 652.632 234.748 652.015 236.478 651.322C238.366 650.566 238.695 649.303 238.575 647.759ZM234.15 655.011C233.787 655.468 233.468 655.866 233.139 656.281C232.924 656.108 232.733 655.842 232.593 655.86C230.884 656.081 230.32 654.664 229.171 654.098C229.041 654.034 228.952 653.631 229.031 653.572C230.226 652.693 228.952 652.043 228.794 651.282C228.604 651.429 228.436 651.56 228.266 651.69C228.209 651.64 228.102 651.59 228.105 651.543C228.16 650.642 227.591 649.66 228.643 648.88C228.882 648.702 228.837 648.267 229.014 647.995C229.468 647.297 229.589 646.376 230.422 645.939C231.276 645.488 230.942 644.572 231.793 644.043C233.237 643.145 235.495 642.691 237.187 643.236C239.644 644.028 241.209 645.641 242.125 647.591C242.862 649.16 243.21 650.939 242.868 652.662C242.667 653.665 241.645 654.354 240.738 654.957C240.465 655.137 239.784 654.86 239.146 654.772C239.187 654.914 239.194 655.223 239.36 655.443C239.613 655.782 239.715 656.099 239.226 656.234C238.728 656.373 238.545 656.076 238.576 655.653C238.581 655.584 238.357 655.502 238.108 655.342C237.733 655.612 237.328 655.904 236.84 656.255C236.763 656.026 236.688 655.803 236.547 655.38C235.917 655.884 235.35 656.337 234.519 657C234.361 656.155 234.261 655.612 234.15 655.011Z" fill="black"/>
<path fill-rule="evenodd" clip-rule="evenodd" d="M121.143 677.269C121.544 677.586 121.722 677.727 121.94 677.898C122.093 677.609 122.207 677.103 122.411 677.069C122.929 676.984 123.621 676.934 124.002 677.187C125.147 677.948 126.35 678.732 127.199 679.751C128.003 680.717 128.537 681.949 128.899 683.142C129.108 683.832 128.99 684.624 128.559 685.458C127.673 687.166 126.786 688.699 124.938 689.704C124.12 690.148 123.202 690.168 122.428 690.616C122.122 690.795 121.75 690.872 121.394 691C121.261 690.78 121.09 690.497 120.92 690.214C120.646 690.58 120.462 690.537 120.043 690.266C119.29 689.779 117.828 688.535 117.194 688.05C115.153 686.491 116.328 684.551 116.417 682.773C116.438 682.327 117.2 681.913 117.65 681.455C119.317 682.294 120.179 683.634 120.762 685.114C122.398 684.923 122.663 683.496 123.561 682.7C123.759 682.525 123.625 682.019 123.662 681.296C122.878 682.029 122.358 682.515 121.921 682.923C120.691 682.842 120.84 681.455 119.804 681.371C119.787 680.472 119.622 679.544 119.809 678.685C119.916 678.197 120.6 677.819 121.143 677.269Z" fill="black"/>
<path fill-rule="evenodd" clip-rule="evenodd" d="M204 619.814C204.742 619.238 205.291 618.812 205.932 618.315H209.142C209.476 617.229 208.441 617.668 207.774 617.525C207.845 617.385 207.865 617.218 207.983 617.139C208.8 616.594 207.589 616.382 207.705 615.828C208.253 614.818 209.78 614.634 210.927 614.084C211.252 613.928 211.885 614.014 212.299 614.141C214.401 614.784 215.163 616.247 216.009 617.721C216.554 618.669 216.047 619.789 217 620.617C216.622 621.701 216.476 622.882 215.802 623.841C215.087 624.86 213.557 625.414 212.119 625.525C211.322 625.587 210.627 626.313 209.845 625.842C209.181 625.443 208.247 625.668 207.643 625.036C207.212 624.586 206.257 624.556 205.998 623.77C205.87 623.382 204.914 623.32 204.481 622.703C203.784 621.709 204.301 620.76 204 619.814Z" fill="black"/>
<path fill-rule="evenodd" clip-rule="evenodd" d="M196.309 688.345C196.635 689.389 196.921 690.266 197.175 691.149C197.232 691.348 197.295 691.663 197.166 691.759C196.014 692.618 197.085 693.323 197.365 694.081C199.378 694.107 199.323 694.005 200.356 692.822C201.584 691.413 201.373 689.881 201.339 688.348C201.333 688.069 201.002 687.733 200.707 687.533C200.117 687.131 199.145 687.751 198.608 687.083L198.06 687.756C197.043 687.21 196.786 688.087 196.309 688.345ZM193.918 689.696C193.604 689.206 193.271 688.686 193 688.262C193.295 687.004 195.075 687.352 195.654 686.375C196.222 685.415 197.957 685.824 198.887 684.856C198.519 684.657 198.162 684.465 197.798 684.268C197.85 684.215 197.923 684.066 198.024 684.051C199.786 683.793 201.071 684.551 202.27 685.412C203.269 686.128 203.841 687.108 204.591 687.975C205.012 688.462 204.278 688.91 204.915 689.221C205.485 689.499 205.66 689.952 205.554 690.472C205.436 691.042 206.105 691.657 205.986 691.953C205.702 692.651 205.68 693.381 205.389 694.058C204.846 695.321 204.05 696.472 202.819 697.399C202.113 697.931 201.12 698.11 199.876 697.935C196.874 697.513 196.838 697.538 195.484 696.341C194.424 695.403 193.736 694.332 193.451 693.021C193.288 692.276 192.739 691.62 193.39 690.884C192.517 690.209 193.837 690.226 193.918 689.696Z" fill="black"/>
<path fill-rule="evenodd" clip-rule="evenodd" d="M135.328 631C137.5 632.133 138 633.079 136.807 634.806C136.192 635.697 136.953 636.701 136.084 637.432C135.955 637.54 136.294 638.13 136.423 638.495C136.779 639.498 137.131 639.588 138.308 639.3C140.557 638.752 141.622 637.278 142.164 635.28C141.325 635.06 140.482 634.849 139.645 634.615C138.624 634.331 138.995 633.268 138.577 632.78C139.058 632.334 139.587 631.844 140.116 631.354C141.57 630.601 142.473 632.073 143.799 632.407C144.772 633.862 146.13 635.124 145.99 637.074C145.811 639.536 144.667 641.588 141.765 642.573C139.343 643.397 137.426 643.051 135.348 641.34C134.082 640.297 133.049 639.223 133.005 637.371C132.944 634.926 133.448 632.777 135.328 631Z" fill="black"/>
<path fill-rule="evenodd" clip-rule="evenodd" d="M133.926 719.871C131.435 720.397 129.98 719.19 128.305 718.471C126.768 717.811 126.568 716.51 126.113 715.441C125.694 714.452 126.54 713.423 127.04 712.465C127.46 711.659 128.154 710.924 128.723 710.163C128.463 710.095 128.131 710.009 127.731 709.904C128.154 709.585 128.527 709.303 128.99 708.952C128.395 708.875 127.872 708.807 127.011 708.695C127.567 708.397 127.96 708.013 128.316 708.03C129.31 708.079 130.284 707.831 131.329 708.241C133.992 709.285 135.353 711.031 136.334 712.905C137.711 715.535 136.974 717.925 133.926 719.871Z" fill="black"/>
<path fill-rule="evenodd" clip-rule="evenodd" d="M159.271 730.071C158.984 730.496 158.738 730.861 158.453 731.284C160.432 732.789 161.25 734.602 160.934 736.702C160.858 737.199 160.877 737.629 160.373 738.095C159.417 738.981 159.287 740.273 157.433 740.741C156.63 740.944 155.754 741.111 155.213 740.907C153.709 740.335 151.979 739.894 151.046 738.749C150.579 738.177 150.147 737.585 150.049 736.833C149.723 734.363 151.08 732.313 152.779 730.347C153.16 729.905 153.807 729.585 154.577 729.328C155.464 729.031 156.012 728.791 156.9 729.281C157.546 729.639 158.399 729.792 159.271 730.071Z" fill="black"/>
<path fill-rule="evenodd" clip-rule="evenodd" d="M239.19 681C237.998 680.311 237.299 679.069 235.441 679.12C234.975 678.515 234.238 677.943 234.098 677.298C233.759 675.734 234.247 674.338 236.4 673.572C236.655 673.481 236.83 673.263 237.106 673.055C236.73 672.96 236.395 672.874 236.362 672.866C236.886 672.472 237.532 671.987 238.178 671.503C238.038 671.379 237.899 671.256 237.759 671.132C238.036 671.104 238.325 671.024 238.586 671.059C239.798 671.216 241.193 670.597 242.221 671.525C243.558 672.732 244.545 674.046 244.935 675.634C245.454 677.742 242.742 680.073 240.683 680.825C240.158 681.016 239.507 680.243 239.19 681Z" fill="black"/>
<path fill-rule="evenodd" clip-rule="evenodd" d="M177.947 705.796C177.947 706.418 177.917 706.726 177.952 707.02C178.133 708.552 177.146 709.095 176.459 709.77C175.776 710.441 175.122 709.455 174.483 709.211C173.887 708.983 173.395 708.241 172.892 707.673C172.044 706.719 171.727 704.451 172.264 703.093C172.387 702.784 172.256 702.258 172.823 702.189C173.161 702.148 173.481 701.449 173.753 700.991C174.466 699.796 175.09 699.659 175.853 700.703C176.351 701.385 176.929 701.943 177.285 702.858C177.697 703.916 178.159 704.878 177.947 705.796Z" fill="black"/>
<path fill-rule="evenodd" clip-rule="evenodd" d="M151.623 659.002C152.43 660.038 153.328 660.932 153.751 662.389C154.276 664.193 153.99 665.178 152.706 666.229C151.242 667.428 150.264 667.22 148.986 665.664C148.813 665.452 148.636 665.245 148.496 665.078C148.284 664.297 148.77 663.396 148.074 662.785C147.688 660.728 148.852 659.042 150.688 659.003C150.998 658.997 151.308 659.002 151.623 659.002Z" fill="black"/>
<path fill-rule="evenodd" clip-rule="evenodd" d="M176.837 634.981C177.169 634.644 177.373 634.439 177.576 634.233C177.338 633.974 177.1 633.714 176.868 633.461C176.963 633.324 177.077 633.158 177.238 632.927C176.82 632.807 176.447 632.702 176 632.575C176.523 630.752 177.808 630.619 178.815 630.024C179.012 629.908 179.437 630.244 179.68 630.495C180.668 631.51 181.387 632.807 181.887 634.304C181.953 634.502 182.041 634.859 181.979 634.929C181.107 635.894 182.258 637.763 181.115 638.41C180.891 638.536 180.388 637.791 179.787 637.736C180.031 638.083 180.274 638.431 180.552 638.827C180.104 639.213 179.681 639.614 179.228 639.945C179.089 640.048 178.866 639.98 178.685 639.954C178.577 639.938 178.38 639.832 178.384 639.797C178.533 638.488 177.331 639.461 177.197 638.602C177.13 638.176 176.884 637.787 176.853 637.365C176.797 636.578 176.837 635.779 176.837 634.981Z" fill="black"/>
<path fill-rule="evenodd" clip-rule="evenodd" d="M178.1 603.295V602H179.047C179.527 603.996 180.184 605.887 179.952 608.894C179.8 608.921 179.609 608.954 179.342 609V606.572C179.172 606.662 179.041 606.623 178.993 606.78C178.913 607.04 178.905 607.46 178.833 607.75C178.701 608.283 178.628 608.163 178.45 607.372C178.33 606.837 178.166 606.377 178 605.814C178.218 605.536 178.362 605.352 178.516 605.156C178.069 604.544 178.076 604.566 178.445 603.505C178.509 603.322 178.473 602.872 178.49 602.299C178.332 602.705 178.258 602.892 178.1 603.295Z" fill="black"/>
</g>
<g opacity="0.1">
<path fill-rule="evenodd" clip-rule="evenodd" d="M347.099 300.082C346.982 299.732 346.865 299.382 346.748 299.031C343.04 300.959 339.333 302.888 335.626 304.815C335.696 305.085 335.767 305.354 335.836 305.623C339.591 303.775 343.345 301.929 347.099 300.082ZM365.37 290.788C365.439 291.06 365.507 291.332 365.576 291.604C383.407 285.168 401.238 278.731 419.069 272.296C419.026 272.04 418.983 271.784 418.94 271.528C401.084 277.947 383.226 284.368 365.37 290.788ZM350.216 280.635C350.127 280.375 350.038 280.116 349.948 279.857C337.838 285.841 325.812 292.111 314.443 302.186C326.637 294.84 338.427 287.737 350.216 280.635ZM351.522 346.178C350.871 346.957 350.22 347.735 349.645 348.421C348.19 348.039 346.796 347.675 345.403 347.309C345.386 347.028 345.368 346.746 345.35 346.464C344.807 347.173 344.264 347.883 343.621 348.722C341.488 345.97 339.534 343.419 340.474 338.407C342.317 328.589 343.882 318.663 345.552 308.778C345.92 306.609 346.249 304.428 346.711 301.535C343.925 302.899 341.498 303.883 339.192 305.29C337.614 306.253 336.21 307.816 334.718 309.084C334.323 309.42 333.905 309.723 333.472 309.933C329.439 311.886 325.412 313.856 321.363 315.732C319.744 316.482 318.077 317.01 316.432 317.641C316.491 317.224 316.55 316.807 316.609 316.39C315.397 315.095 314.27 313.565 312.954 312.553C309.732 310.071 308.861 303.571 311.774 300.293C315.075 296.58 318.584 292.962 322.373 290.523C331.186 284.848 340.202 279.827 349.188 274.736C350.816 273.813 351.623 272.705 352.097 270.172C353.178 264.397 354.458 258.666 356.011 253.127C356.602 251.02 358.129 249.438 359.308 247.733C359.586 247.331 360.272 247.088 360.614 247.3C361.996 248.158 363.32 249.216 364.662 250.211C368.012 252.7 369.009 256.878 368.7 262.029C368.628 263.224 368.69 264.436 368.69 266.026C374.342 264.087 379.656 261.938 385.056 260.471C401.053 256.128 417.068 251.927 433.109 247.958C437.083 246.976 441.181 247.021 445.226 246.729C446.167 246.661 447.127 247.152 448.077 247.385C448.128 247.824 448.18 248.265 448.23 248.704C446.24 249.547 444.276 250.945 442.257 251.142C429.481 252.389 416.968 256.013 404.494 259.862C393.069 263.39 381.727 267.489 370.353 271.358C369.566 271.627 368.81 272.085 368.038 272.455C368.085 272.756 368.13 273.058 368.177 273.36C368.773 273.228 369.376 273.143 369.965 272.957C386.856 267.587 403.696 261.849 420.655 256.979C429.421 254.462 438.392 253.454 447.279 251.857C448.111 251.709 449.001 252.239 449.864 252.454C449.447 253.461 449.03 254.47 448.554 255.62C452.847 254.421 450.05 259.495 450.665 261.818C450.123 262.228 449.269 262.872 448.172 263.7C448.873 263.945 449.295 264.092 449.718 264.241C449.735 264.414 449.752 264.588 449.77 264.763C446.252 265.754 442.734 266.744 439.216 267.733C439.163 267.473 439.109 267.212 439.056 266.951C440.196 266.55 441.335 266.149 442.474 265.749C442.428 265.509 442.383 265.268 442.337 265.029L426.541 269.386C426.556 269.646 426.571 269.904 426.586 270.162C428.074 269.877 429.562 269.589 431.051 269.304C431.091 269.546 431.131 269.788 431.171 270.03C429.536 270.592 427.897 271.131 426.266 271.718C406.296 278.902 386.327 286.102 366.353 293.271C364.861 293.806 363.799 294.667 363.647 297.221C363.603 297.951 362.84 298.584 362.418 299.279C362.223 299.603 361.851 300.147 361.909 300.282C363.903 305.056 360.779 308.706 360.594 312.99C360.551 313.978 360.37 315.16 359.946 315.854C359.457 316.656 360.227 319.648 358.278 318.117C357.941 319.595 357.604 321.076 357.267 322.555C355.681 328.233 354.032 333.877 352.544 339.609C352.005 341.69 351.852 343.983 351.522 346.178Z" fill="black"/>
<path fill-rule="evenodd" clip-rule="evenodd" d="M354 339.722C355.055 335.693 356.148 331.681 357.148 327.63C357.601 325.795 357.871 323.881 358.224 322.003C358.6 321.576 358.975 321.15 359.351 320.722C359.567 320.871 359.784 321.016 360 321.163C358 327.35 356 333.537 354 339.722Z" fill="black"/>
</g>
</svg>