<svg width="149" height="165" viewBox="0 0 149 165" fill="none" xmlns="http://www.w3.org/2000/svg">
<mask id="mask0" mask-type="alpha" maskUnits="userSpaceOnUse" x="0" y="17" width="149" height="147">
<path fill-rule="evenodd" clip-rule="evenodd" d="M0.00033474 17.2846H148.938V164H0.00033474V17.2846Z" fill="white"/>
</mask>
<g mask="url(#mask0)">
<path fill-rule="evenodd" clip-rule="evenodd" d="M130.791 157.359C126.937 159.685 122.452 161.364 117.51 162.455C114.229 163.173 110.733 163.647 107.094 163.848C93.7127 164.666 78.3256 162.154 63.4972 157.129C60.1734 156.01 56.8782 154.761 53.6403 153.383C29.5281 143.219 8.56779 126.624 2.69375 107.388C-8.03712 72.2743 15.0006 47.023 41.6773 23.8533C52.4941 14.4505 66.5918 15.7999 81.1766 23.7385C84.5864 25.5903 88.0106 27.8011 91.4347 30.3133C104.286 39.7735 117.008 53.5404 127.753 68.8433C148.843 98.8893 161.049 139.142 130.791 157.359Z" fill="#FDE6D6"/>
</g>
<path fill-rule="evenodd" clip-rule="evenodd" d="M119.063 44.7686C116.515 39.8605 115.583 33.6489 120.691 31.6489C126.397 29.4163 135.487 33.0266 138.133 41.2186C139.825 46.4533 139.244 53.7608 134.571 56.5695C130.572 58.9745 122.189 50.7882 119.063 44.7686Z" fill="#E8E5EA"/>
<path fill-rule="evenodd" clip-rule="evenodd" d="M40.7925 19.4652C40.7882 19.4652 40.7839 19.4652 40.7796 19.4652C39.8195 19.3994 38.8567 19.3636 37.921 19.3578C37.8206 19.3578 37.7417 19.2777 37.7417 19.1789C37.7431 19.0802 37.822 19 37.921 19H37.9225C38.8667 19.0057 39.8368 19.0415 40.8054 19.1074C40.9044 19.1145 40.9776 19.2004 40.9719 19.2992C40.9647 19.3936 40.8858 19.4652 40.7925 19.4652ZM32.1911 19.74C32.1035 19.74 32.026 19.6756 32.0131 19.5869C31.9988 19.4895 32.0662 19.3979 32.1652 19.3836C33.0922 19.2491 34.0594 19.1489 35.0367 19.0845C35.1486 19.0658 35.2218 19.1532 35.2275 19.2519C35.2347 19.3493 35.1601 19.4351 35.0611 19.4409C34.0924 19.5053 33.1353 19.6055 32.2169 19.7372C32.2083 19.7386 32.1997 19.74 32.1911 19.74ZM46.4952 20.1737C46.4837 20.1737 46.4737 20.1723 46.4636 20.1709C45.5208 20.002 44.568 19.8588 43.6309 19.7415C43.5319 19.7286 43.4616 19.6398 43.4745 19.5411C43.4874 19.4437 43.5692 19.3779 43.6754 19.3865C44.6196 19.5038 45.5782 19.6498 46.5268 19.8188C46.6229 19.8359 46.6889 19.929 46.6717 20.0263C46.6559 20.1122 46.5799 20.1737 46.4952 20.1737ZM26.5974 21.0326C26.5214 21.0326 26.451 20.9839 26.4266 20.9066C26.3965 20.8121 26.4496 20.7119 26.5443 20.6833C27.4527 20.397 28.3883 20.1422 29.3268 19.9232C29.4215 19.9003 29.5205 19.9605 29.542 20.0564C29.565 20.1523 29.5047 20.2482 29.4086 20.2711C28.4787 20.4886 27.5503 20.742 26.6519 21.024C26.6333 21.0297 26.6161 21.0326 26.5974 21.0326ZM52.1032 21.4276C52.0874 21.4276 52.0716 21.4262 52.0558 21.4219C51.1231 21.17 50.1875 20.9395 49.2734 20.7348C49.1758 20.7134 49.1155 20.6175 49.137 20.5201C49.1586 20.4242 49.249 20.3627 49.3508 20.3856C50.2707 20.5917 51.212 20.8236 52.1505 21.0755C52.2453 21.1027 52.3027 21.2 52.2754 21.2959C52.2539 21.3747 52.1821 21.4276 52.1032 21.4276ZM57.5949 23.131C57.5749 23.131 57.5548 23.1281 57.5347 23.121C56.6364 22.8046 55.7194 22.5026 54.8125 22.2206C54.7178 22.1906 54.6647 22.0904 54.6948 21.9973C54.7235 21.9028 54.8254 21.8485 54.9187 21.8799C55.8299 22.1619 56.7512 22.4668 57.6538 22.7832C57.7471 22.8161 57.7973 22.9191 57.7643 23.0122C57.7384 23.0852 57.6696 23.131 57.5949 23.131ZM21.2836 23.1868C21.219 23.1868 21.1559 23.151 21.1243 23.088C21.0798 23.0007 21.1143 22.8934 21.2032 22.8476C22.0484 22.4181 22.9324 22.0159 23.8293 21.6538C23.9183 21.6137 24.0245 21.6609 24.0618 21.7526C24.0991 21.8442 24.0546 21.9487 23.9627 21.9859C23.0759 22.3437 22.202 22.7416 21.3654 23.1668C21.3396 23.1796 21.3109 23.1868 21.2836 23.1868ZM62.9561 25.2051C62.9332 25.2051 62.9102 25.2008 62.8858 25.1907C62.0076 24.8186 61.1136 24.455 60.2267 24.1129C60.1349 24.0771 60.089 23.9726 60.1249 23.881C60.1622 23.7894 60.2655 23.7465 60.3573 23.7794C61.247 24.1229 62.1453 24.4879 63.0264 24.8615C63.1183 24.9002 63.1599 25.0047 63.1226 25.0963C63.0924 25.1635 63.0264 25.2051 62.9561 25.2051ZM16.4333 26.2371C16.3787 26.2371 16.3271 26.2142 16.2912 26.1684C16.2309 26.0896 16.2453 25.9766 16.3242 25.9165C17.0776 25.3382 17.874 24.7828 18.6905 24.2689C18.7752 24.2174 18.8857 24.2417 18.9388 24.3248C18.9919 24.4092 18.9661 24.5194 18.8828 24.571C18.0749 25.0805 17.2885 25.6287 16.5423 26.2013C16.5108 26.2256 16.472 26.2371 16.4333 26.2371ZM68.1824 27.5983C68.1566 27.5983 68.1293 27.5926 68.1035 27.5797C67.2396 27.1546 66.3686 26.7409 65.5119 26.3487C65.4229 26.3072 65.3827 26.1999 65.4243 26.1111C65.466 26.0209 65.5721 25.9809 65.6625 26.0224C66.5207 26.416 67.396 26.8325 68.2628 27.2577C68.3517 27.302 68.3876 27.4094 68.3446 27.4981C68.313 27.5611 68.2484 27.5983 68.1824 27.5983ZM12.2416 30.1405C12.1986 30.1405 12.157 30.1262 12.1225 30.0947C12.0479 30.0303 12.0422 29.9172 12.1082 29.8427C12.7439 29.1285 13.4212 28.4343 14.1229 27.7815C14.1947 27.7128 14.308 27.7171 14.3755 27.7887C14.4444 27.8617 14.4401 27.9748 14.3669 28.0421C13.6752 28.689 13.005 29.3747 12.3751 30.0803C12.3406 30.1204 12.2919 30.1405 12.2416 30.1405ZM73.2724 30.2693C73.2422 30.2693 73.2135 30.2621 73.1848 30.2464C72.3511 29.7812 71.5016 29.3217 70.6621 28.8808C70.5746 28.835 70.5401 28.7263 70.586 28.6389C70.6334 28.5516 70.7425 28.5173 70.8286 28.5631C71.6723 29.0068 72.5233 29.4677 73.3599 29.9343C73.446 29.983 73.4776 30.0918 73.4288 30.1777C73.3958 30.2364 73.3355 30.2693 73.2724 30.2693ZM78.2231 33.1922C78.1916 33.1922 78.1586 33.1836 78.1284 33.165C77.3105 32.6554 76.4853 32.1559 75.676 31.6778C75.5899 31.6277 75.5612 31.5175 75.6129 31.433C75.6617 31.3457 75.7721 31.3185 75.8582 31.37C76.669 31.8481 77.4985 32.3505 78.3193 32.8615C78.4025 32.9145 78.4283 33.0247 78.3752 33.1092C78.3422 33.1621 78.2834 33.1922 78.2231 33.1922ZM8.83062 34.7438C8.79762 34.7438 8.76605 34.7352 8.73591 34.7166C8.65268 34.6651 8.62542 34.5549 8.67708 34.4704C9.1822 33.6502 9.72606 32.8458 10.29 32.0814C10.3503 32.0027 10.4622 31.987 10.5411 32.0442C10.6215 32.1029 10.6373 32.2145 10.5785 32.2933C10.0202 33.0505 9.48355 33.8449 8.98273 34.6579C8.94973 34.7137 8.89089 34.7438 8.83062 34.7438ZM83.0304 36.3441C82.9945 36.3441 82.9586 36.3326 82.9285 36.3126C82.1335 35.7644 81.3314 35.2262 80.5464 34.7109C80.4632 34.6565 80.4402 34.5463 80.4948 34.4633C80.5493 34.3831 80.6598 34.3588 80.743 34.4117C81.5308 34.9285 82.3344 35.4681 83.1309 36.0163C83.2141 36.0736 83.2342 36.1852 83.1782 36.2654C83.1423 36.3155 83.0864 36.3441 83.0304 36.3441ZM87.6813 39.7007C87.6439 39.7007 87.6066 39.6892 87.5736 39.6649C86.8045 39.0852 86.0296 38.5112 85.269 37.9616C85.1887 37.9029 85.1714 37.7912 85.2288 37.7125C85.2877 37.6309 85.3996 37.6137 85.48 37.6724C86.2419 38.2221 87.0197 38.7975 87.7903 39.3801C87.8692 39.4387 87.8836 39.5518 87.8248 39.6306C87.7889 39.6764 87.7358 39.7007 87.6813 39.7007ZM6.21748 39.8424C6.19452 39.8424 6.17156 39.8381 6.1486 39.8295C6.05676 39.7909 6.01371 39.6849 6.05245 39.5948C6.42842 38.7016 6.8374 37.8227 7.26647 36.9839C7.31095 36.8952 7.41858 36.8594 7.50755 36.9052C7.59652 36.9496 7.63096 37.0584 7.58647 37.1457C7.16028 37.9787 6.7556 38.849 6.3825 39.7336C6.3538 39.8023 6.28779 39.8424 6.21748 39.8424ZM92.1886 43.2677C92.1484 43.2677 92.1082 43.2548 92.0738 43.2276C91.3506 42.6279 90.6001 42.0195 89.8424 41.4198C89.7649 41.3582 89.752 41.2466 89.8137 41.1693C89.8768 41.092 89.9887 41.0805 90.0648 41.1392C90.8253 41.7404 91.5787 42.3502 92.3034 42.9514C92.3795 43.0143 92.3909 43.1274 92.3278 43.2033C92.2919 43.2462 92.2403 43.2677 92.1886 43.2677ZM4.34193 45.2573C4.32471 45.2573 4.30892 45.2559 4.29314 45.2516C4.19843 45.2244 4.14103 45.1256 4.16829 45.0297C4.42946 44.0979 4.71646 43.1732 5.02355 42.2829C5.05656 42.1899 5.15988 42.1369 5.25172 42.1713C5.345 42.2042 5.39522 42.3058 5.36365 42.3988C5.05799 43.2834 4.77243 44.201 4.51413 45.1271C4.4926 45.2058 4.41942 45.2573 4.34193 45.2573ZM96.5424 47.0408C96.4979 47.0408 96.4563 47.0251 96.4219 46.9936C95.7144 46.3523 94.9897 45.7096 94.2679 45.0841C94.1933 45.0211 94.1861 44.9066 94.2507 44.8322C94.3153 44.7563 94.4286 44.752 94.5033 44.815C95.2279 45.442 95.9526 46.0861 96.6629 46.7288C96.7361 46.7961 96.7419 46.9091 96.6744 46.9821C96.6385 47.0208 96.5912 47.0408 96.5424 47.0408ZM3.10495 50.8555C3.09491 50.8555 3.08486 50.854 3.07482 50.8526C2.97724 50.8369 2.91123 50.7438 2.92845 50.6465C3.08773 49.6946 3.27141 48.7456 3.47375 47.8238C3.49527 47.7279 3.58999 47.6678 3.68757 47.6864C3.78371 47.7079 3.84542 47.8038 3.82389 47.8997C3.62299 48.8157 3.44074 49.7605 3.28146 50.7052C3.26711 50.7925 3.19105 50.8555 3.10495 50.8555ZM100.708 50.9972C100.662 50.9972 100.616 50.98 100.582 50.9442C99.9032 50.27 99.2101 49.5973 98.5241 48.946C98.4524 48.8773 98.4495 48.7642 98.5184 48.6926C98.5859 48.6225 98.7007 48.6182 98.771 48.6869C99.4598 49.3411 100.154 50.0152 100.835 50.6909C100.905 50.761 100.905 50.8741 100.835 50.9442C100.8 50.98 100.754 50.9972 100.708 50.9972ZM104.68 55.1453C104.632 55.1453 104.584 55.1253 104.548 55.0866C103.904 54.381 103.245 53.6753 102.59 52.9911C102.522 52.921 102.525 52.8064 102.595 52.7392C102.668 52.6719 102.78 52.6719 102.849 52.7449C103.508 53.4305 104.168 54.1376 104.814 54.8462C104.881 54.9192 104.875 55.0323 104.801 55.0981C104.768 55.1296 104.725 55.1453 104.68 55.1453ZM2.41185 56.5452C2.40754 56.5452 2.40324 56.5452 2.3975 56.5452C2.29848 56.5366 2.2253 56.4508 2.23247 56.3534C2.30853 55.3887 2.40467 54.4253 2.51804 53.4921C2.52952 53.3947 2.60988 53.3289 2.7175 53.3361C2.81652 53.3475 2.8854 53.4363 2.87392 53.535C2.76199 54.464 2.66584 55.4216 2.58979 56.3806C2.58405 56.4737 2.50512 56.5452 2.41185 56.5452ZM108.44 59.4867C108.388 59.4867 108.337 59.4638 108.301 59.4209C107.704 58.6937 107.083 57.9566 106.453 57.2294C106.388 57.155 106.397 57.0419 106.473 56.9775C106.547 56.9117 106.661 56.9217 106.725 56.9961C107.357 57.7247 107.981 58.4647 108.579 59.1947C108.642 59.2706 108.631 59.3837 108.553 59.4466C108.52 59.4738 108.48 59.4867 108.44 59.4867ZM2.17938 62.2751C2.08036 62.2736 2 62.1935 2 62.0947C2.00431 61.1342 2.02583 60.1681 2.06314 59.2219C2.06745 59.1246 2.1435 59.043 2.24969 59.0502C2.34871 59.0544 2.4262 59.1375 2.42189 59.2362C2.38458 60.1781 2.36306 61.14 2.35875 62.0961C2.35875 62.1949 2.27839 62.2751 2.17938 62.2751ZM111.957 64.0256C111.901 64.0256 111.847 64.0013 111.812 63.9526C111.248 63.1811 110.669 62.4096 110.089 61.6624C110.029 61.5837 110.043 61.4721 110.122 61.4105C110.199 61.3504 110.311 61.3633 110.373 61.4434C110.956 62.1935 111.537 62.9678 112.102 63.7422C112.16 63.8224 112.142 63.934 112.063 63.9913C112.03 64.0156 111.993 64.0256 111.957 64.0256ZM2.34153 68.0092C2.24682 68.0092 2.1679 67.9348 2.16216 67.8403C2.10476 66.8698 2.06171 65.9022 2.03588 64.9689C2.03301 64.8702 2.1105 64.7871 2.20951 64.7843H2.21525C2.3114 64.7843 2.39176 64.8616 2.39463 64.9589C2.42046 65.8893 2.46351 66.8512 2.52091 67.8188C2.52665 67.9176 2.45059 68.002 2.35158 68.0092H2.34153ZM115.193 68.7664C115.134 68.7664 115.075 68.7378 115.041 68.6834C114.536 67.889 114.005 67.0845 113.464 66.293C113.409 66.2114 113.43 66.0997 113.511 66.0439C113.592 65.9881 113.705 66.0095 113.761 66.0911C114.303 66.8855 114.837 67.6943 115.344 68.4916C115.397 68.576 115.373 68.6862 115.289 68.7392C115.259 68.7578 115.226 68.7664 115.193 68.7664ZM118.098 73.7161C118.034 73.7161 117.973 73.6818 117.94 73.6216C117.492 72.7914 117.02 71.9527 116.535 71.1267C116.486 71.0423 116.515 70.9335 116.599 70.882C116.683 70.8304 116.795 70.8605 116.845 70.9464C117.331 71.7752 117.806 72.6182 118.255 73.4527C118.303 73.5386 118.27 73.6488 118.182 73.6946C118.156 73.709 118.126 73.7161 118.098 73.7161ZM2.84809 73.7233C2.75768 73.7233 2.68019 73.656 2.67015 73.5644C2.55678 72.6011 2.4592 71.6377 2.37597 70.7073C2.36736 70.6086 2.44055 70.5213 2.53813 70.5127C2.65436 70.5027 2.72468 70.5771 2.73329 70.6744C2.81508 71.6034 2.9141 72.5624 3.02603 73.5243C3.03751 73.6217 2.96719 73.7104 2.86818 73.7218C2.861 73.7233 2.85526 73.7233 2.84809 73.7233ZM120.607 78.8734C120.539 78.8734 120.473 78.8333 120.442 78.766C120.064 77.8943 119.66 77.0198 119.246 76.1681C119.203 76.0793 119.24 75.972 119.329 75.929C119.416 75.8847 119.524 75.9219 119.568 76.0106C119.986 76.8695 120.391 77.7469 120.772 78.6229C120.811 78.7145 120.77 78.819 120.679 78.8591C120.656 78.8677 120.632 78.8734 120.607 78.8734ZM3.656 79.403C3.5699 79.403 3.49384 79.34 3.47949 79.2527C3.31733 78.2951 3.16953 77.3404 3.03894 76.4143C3.02459 76.3169 3.09347 76.2253 3.19105 76.2125C3.28289 76.1967 3.37904 76.2654 3.39339 76.3642C3.52397 77.2874 3.67178 78.2393 3.8325 79.194C3.84972 79.2914 3.78371 79.383 3.68613 79.4001C3.67609 79.4016 3.66604 79.403 3.656 79.403ZM122.634 84.2354C122.558 84.2354 122.487 84.1881 122.463 84.1123C122.177 83.2219 121.86 82.3159 121.519 81.4155C121.484 81.3225 121.53 81.2194 121.623 81.1851C121.715 81.145 121.819 81.1951 121.854 81.2881C122.199 82.1942 122.517 83.1074 122.804 84.0021C122.835 84.0965 122.783 84.1982 122.688 84.2282C122.67 84.2339 122.651 84.2354 122.634 84.2354ZM4.73942 85.0355C4.65619 85.0355 4.58301 84.9783 4.56435 84.8938C4.36345 83.9663 4.16973 83.0187 3.99035 82.0797C3.97026 81.9824 4.03484 81.8893 4.13242 81.8707C4.22713 81.845 4.32327 81.9151 4.34193 82.0124C4.5213 82.9486 4.71359 83.8933 4.91449 84.8194C4.93602 84.9153 4.87431 85.0112 4.77673 85.0312C4.76525 85.0341 4.75234 85.0355 4.73942 85.0355ZM124.069 89.782C123.985 89.782 123.909 89.7219 123.894 89.636C123.716 88.7242 123.503 87.7881 123.261 86.8534C123.236 86.7575 123.294 86.6601 123.39 86.6358C123.483 86.6115 123.582 86.6687 123.608 86.7646C123.852 87.705 124.067 88.6483 124.245 89.5687C124.264 89.6646 124.201 89.7591 124.103 89.7777C124.092 89.7805 124.08 89.782 124.069 89.782ZM6.07541 90.6136C5.99505 90.6136 5.9233 90.5592 5.90178 90.4791C5.65926 89.5544 5.42536 88.6254 5.20293 87.695C5.17997 87.5977 5.23881 87.5018 5.33495 87.4789C5.42966 87.456 5.52868 87.5147 5.55164 87.6106C5.7755 88.5395 6.00653 89.4656 6.24905 90.3889C6.27344 90.4848 6.21748 90.5821 6.12133 90.6079C6.10555 90.6108 6.08976 90.6136 6.07541 90.6136ZM124.779 95.4617C124.684 95.4617 124.605 95.3873 124.6 95.2914C124.551 94.3567 124.466 93.4005 124.346 92.4515C124.333 92.3542 124.403 92.264 124.501 92.2526C124.608 92.244 124.689 92.3098 124.701 92.4071C124.822 93.3647 124.91 94.3295 124.958 95.2728C124.964 95.3715 124.888 95.456 124.789 95.4617H124.779ZM7.68979 96.2633C7.61374 96.2633 7.54342 96.2146 7.51903 96.1373L7.47598 95.9985C7.19615 95.0896 6.92063 94.1635 6.66089 93.2474C6.63363 93.1529 6.68816 93.0541 6.78431 93.0269C6.88332 93.0012 6.97947 93.0556 7.0053 93.15C7.26647 94.0633 7.54055 94.9879 7.82038 95.8954L7.86056 96.0314C7.89069 96.1259 7.8376 96.2246 7.74289 96.2547C7.72567 96.2604 7.70701 96.2633 7.68979 96.2633ZM124.686 101.187C124.681 101.187 124.679 101.187 124.674 101.187C124.575 101.18 124.501 101.094 124.508 100.995C124.574 100.059 124.62 99.1003 124.641 98.1441C124.643 98.0454 124.713 97.9738 124.825 97.9695C124.922 97.9709 125.001 98.0525 125 98.1527C124.978 99.1146 124.933 100.079 124.865 101.021C124.859 101.116 124.779 101.187 124.686 101.187ZM9.46776 101.714C9.39458 101.714 9.32426 101.668 9.29843 101.594C8.98847 100.691 8.68425 99.7831 8.38721 98.8727C8.35707 98.7797 8.40873 98.678 8.50344 98.648C8.59815 98.6179 8.6986 98.6694 8.72874 98.7625C9.02578 99.67 9.32857 100.576 9.63853 101.478C9.6701 101.571 9.61987 101.672 9.5266 101.705C9.50651 101.711 9.48785 101.714 9.46776 101.714ZM123.981 106.87C123.971 106.87 123.961 106.868 123.95 106.867C123.852 106.848 123.787 106.755 123.805 106.659C123.97 105.738 124.113 104.789 124.232 103.837C124.244 103.738 124.338 103.668 124.432 103.681C124.531 103.694 124.6 103.782 124.588 103.881C124.469 104.84 124.324 105.795 124.158 106.721C124.142 106.808 124.067 106.87 123.981 106.87ZM11.4122 107.102C11.3404 107.102 11.2716 107.057 11.2457 106.986C10.9071 106.094 10.5756 105.198 10.2498 104.299C10.2154 104.206 10.2642 104.103 10.3575 104.069C10.4522 104.037 10.5526 104.084 10.5871 104.177C10.9114 105.075 11.2429 105.97 11.5801 106.858C11.6145 106.951 11.5686 107.055 11.4768 107.089C11.4552 107.097 11.4337 107.102 11.4122 107.102ZM13.536 112.432C13.4657 112.432 13.3997 112.391 13.371 112.322C13.0022 111.442 12.642 110.556 12.2861 109.662C12.2488 109.571 12.2947 109.466 12.3866 109.431C12.4755 109.395 12.5817 109.438 12.619 109.529C12.9735 110.421 13.3351 111.306 13.701 112.185C13.7398 112.276 13.6967 112.381 13.6049 112.418C13.5819 112.428 13.559 112.432 13.536 112.432ZM122.648 112.437C122.632 112.437 122.615 112.435 122.596 112.429C122.502 112.401 122.449 112.301 122.477 112.206C122.75 111.301 123.001 110.374 123.221 109.452C123.245 109.356 123.337 109.297 123.437 109.319C123.533 109.343 123.594 109.439 123.571 109.535C123.348 110.464 123.096 111.397 122.82 112.309C122.797 112.386 122.725 112.437 122.648 112.437ZM15.8377 117.69C15.7703 117.69 15.7057 117.651 15.6756 117.585C15.2781 116.719 14.8849 115.845 14.4989 114.964C14.4601 114.874 14.5018 114.768 14.5922 114.728C14.6826 114.691 14.7888 114.73 14.8289 114.821C15.2135 115.7 15.6038 116.572 16.0013 117.436C16.043 117.527 16.0028 117.632 15.9138 117.674C15.8894 117.685 15.8636 117.69 15.8377 117.69ZM120.665 117.809C120.64 117.809 120.616 117.804 120.592 117.793C120.501 117.754 120.461 117.648 120.5 117.558C120.882 116.693 121.24 115.803 121.57 114.911C121.605 114.82 121.707 114.771 121.801 114.805C121.893 114.84 121.941 114.943 121.906 115.036C121.575 115.935 121.212 116.831 120.828 117.701C120.798 117.768 120.734 117.809 120.665 117.809ZM18.3304 122.858C18.2643 122.858 18.2012 122.823 18.1696 122.761C17.7406 121.911 17.3158 121.052 16.8968 120.185C16.8537 120.096 16.891 119.989 16.9814 119.946C17.0733 119.904 17.178 119.94 17.2211 120.029C17.6387 120.893 18.0606 121.751 18.4896 122.599C18.5341 122.688 18.4997 122.795 18.4107 122.84C18.3849 122.853 18.3576 122.858 18.3304 122.858ZM118.042 122.904C118.01 122.904 117.979 122.897 117.95 122.88C117.864 122.828 117.836 122.72 117.887 122.635C118.373 121.815 118.84 120.973 119.271 120.132C119.317 120.043 119.424 120.009 119.513 120.054C119.601 120.1 119.636 120.207 119.591 120.295C119.155 121.142 118.686 121.991 118.195 122.817C118.162 122.873 118.102 122.904 118.042 122.904ZM114.839 127.656C114.801 127.656 114.763 127.645 114.73 127.621C114.652 127.562 114.636 127.449 114.695 127.37C115.271 126.612 115.83 125.831 116.358 125.048C116.414 124.967 116.525 124.944 116.608 125C116.69 125.056 116.711 125.167 116.655 125.249C116.124 126.038 115.562 126.823 114.982 127.586C114.946 127.632 114.893 127.656 114.839 127.656ZM21.0239 127.927C20.9607 127.927 20.9004 127.894 20.8674 127.835C20.4097 127.017 19.9476 126.168 19.4927 125.312C19.4468 125.225 19.4784 125.116 19.5659 125.07C19.6549 125.027 19.7625 125.057 19.8084 125.144C20.2633 125.997 20.7239 126.845 21.1803 127.661C21.2291 127.747 21.1975 127.857 21.1114 127.904C21.0841 127.92 21.054 127.927 21.0239 127.927ZM111.139 132.034C111.096 132.034 111.052 132.018 111.017 131.985C110.946 131.919 110.941 131.805 111.009 131.733C111.663 131.033 112.303 130.313 112.91 129.596C112.975 129.523 113.088 129.511 113.163 129.574C113.239 129.639 113.249 129.752 113.184 129.828C112.573 130.549 111.93 131.272 111.271 131.978C111.235 132.015 111.188 132.034 111.139 132.034ZM23.9369 132.872C23.8781 132.872 23.8192 132.842 23.7848 132.788C23.2869 131.985 22.786 131.158 22.2967 130.329C22.2479 130.243 22.2752 130.133 22.3613 130.083C22.4459 130.033 22.5564 130.063 22.6067 130.147C23.0946 130.974 23.5925 131.799 24.0905 132.599C24.1421 132.683 24.1163 132.794 24.0316 132.845C24.0029 132.864 23.9699 132.872 23.9369 132.872ZM107.034 136.04C106.983 136.04 106.935 136.02 106.899 135.98C106.833 135.907 106.84 135.794 106.913 135.728C107.634 135.084 108.337 134.428 109.007 133.776C109.077 133.707 109.192 133.71 109.259 133.778C109.33 133.85 109.328 133.963 109.257 134.032C108.584 134.687 107.876 135.347 107.153 135.994C107.118 136.024 107.075 136.04 107.034 136.04ZM27.0939 137.668C27.0365 137.668 26.9806 137.64 26.9461 137.59C26.4037 136.813 25.8613 136.011 25.3346 135.208C25.2786 135.127 25.303 135.015 25.3863 134.961C25.4681 134.908 25.5786 134.931 25.6345 135.014C26.1597 135.814 26.7007 136.611 27.2403 137.386C27.2977 137.467 27.2776 137.579 27.1958 137.635C27.1642 137.656 27.1298 137.668 27.0939 137.668ZM102.605 139.694C102.551 139.694 102.498 139.67 102.463 139.624C102.403 139.546 102.417 139.434 102.496 139.374C103.258 138.79 104.014 138.191 104.741 137.593C104.817 137.529 104.929 137.54 104.992 137.616C105.055 137.693 105.045 137.805 104.969 137.868C104.238 138.471 103.481 139.072 102.714 139.657C102.681 139.683 102.643 139.694 102.605 139.694ZM30.5193 142.272C30.4676 142.272 30.4145 142.249 30.3787 142.205C29.7989 141.474 29.2091 140.706 28.6251 139.923C28.5662 139.845 28.5835 139.732 28.6624 139.673C28.7427 139.616 28.8547 139.631 28.9149 139.71C29.4947 140.49 30.0816 141.255 30.6599 141.982C30.7216 142.059 30.7087 142.172 30.6312 142.234C30.5982 142.259 30.5595 142.272 30.5193 142.272ZM97.9315 143.031C97.8741 143.031 97.8181 143.002 97.7822 142.951C97.7277 142.869 97.7492 142.758 97.8325 142.703C98.6303 142.169 99.4239 141.621 100.192 141.074C100.271 141.016 100.384 141.036 100.441 141.116C100.499 141.196 100.481 141.309 100.401 141.366C99.6305 141.914 98.8341 142.464 98.0319 143.001C98.0018 143.021 97.9659 143.031 97.9315 143.031ZM93.0711 146.091C93.0094 146.091 92.9506 146.06 92.9162 146.004C92.8659 145.919 92.8932 145.809 92.9793 145.758C93.8145 145.261 94.6382 144.759 95.426 144.262C95.5106 144.212 95.6211 144.235 95.6742 144.318C95.7259 144.402 95.7015 144.512 95.6183 144.565C94.8261 145.062 94.001 145.567 93.163 146.065C93.1343 146.083 93.1027 146.091 93.0711 146.091ZM34.2532 146.632C34.2058 146.632 34.157 146.612 34.1226 146.575C33.484 145.887 32.8397 145.162 32.2083 144.425C32.1451 144.351 32.1523 144.236 32.2284 144.173C32.3044 144.11 32.4178 144.117 32.4809 144.193C33.1095 144.928 33.7509 145.646 34.3852 146.332C34.4526 146.405 34.4483 146.518 34.3751 146.585C34.3407 146.617 34.2976 146.632 34.2532 146.632ZM88.0673 148.917C88.0027 148.917 87.941 148.882 87.9094 148.824C87.8621 148.736 87.8951 148.628 87.9812 148.58C88.8278 148.125 89.6659 147.664 90.4953 147.196C90.5814 147.148 90.6905 147.178 90.7407 147.264C90.788 147.349 90.7579 147.458 90.6718 147.508C89.8409 147.976 89 148.439 88.1519 148.895C88.1247 148.91 88.096 148.917 88.0673 148.917ZM38.3401 150.663C38.297 150.663 38.254 150.647 38.221 150.617C37.5164 149.987 36.8103 149.323 36.1244 148.643C36.0527 148.573 36.0527 148.46 36.123 148.39C36.1919 148.32 36.3052 148.32 36.3755 148.389C37.0586 149.066 37.7603 149.724 38.4606 150.351C38.5338 150.417 38.5395 150.53 38.4735 150.604C38.4376 150.643 38.3888 150.663 38.3401 150.663ZM82.9587 151.546C82.8926 151.546 82.8281 151.51 82.7979 151.447C82.7534 151.359 82.7908 151.25 82.8783 151.207C83.7393 150.78 84.5946 150.351 85.4426 149.914C85.5287 149.87 85.6364 149.904 85.6837 149.992C85.7282 150.079 85.6952 150.188 85.6062 150.234C84.7567 150.67 83.9015 151.101 83.0376 151.528C83.0117 151.541 82.9845 151.546 82.9587 151.546ZM77.7682 154.018C77.7008 154.018 77.6362 153.98 77.6061 153.914C77.5645 153.825 77.6032 153.718 77.6936 153.678C78.5647 153.275 79.4328 152.869 80.2938 152.459C80.3814 152.419 80.4919 152.455 80.5335 152.544C80.5765 152.633 80.5378 152.74 80.4488 152.783C79.585 153.194 78.7168 153.599 77.8429 154.001C77.8199 154.013 77.7941 154.018 77.7682 154.018ZM42.8273 154.24C42.7929 154.24 42.757 154.229 42.7254 154.207C41.9577 153.669 41.1814 153.088 40.4194 152.478C40.3419 152.417 40.329 152.303 40.3907 152.226C40.4552 152.15 40.5672 152.137 40.6432 152.199C41.3995 152.803 42.1686 153.381 42.9306 153.914C43.0124 153.971 43.0325 154.083 42.9751 154.164C42.9407 154.213 42.8847 154.24 42.8273 154.24ZM72.5333 156.359C72.4645 156.359 72.3985 156.318 72.3683 156.251C72.3296 156.161 72.3712 156.055 72.4616 156.015C73.3398 155.633 74.2152 155.248 75.0848 154.858C75.1752 154.818 75.2814 154.858 75.3216 154.949C75.3617 155.039 75.3216 155.145 75.2326 155.185C74.3601 155.574 73.4847 155.961 72.6051 156.343C72.5821 156.353 72.5577 156.359 72.5333 156.359ZM47.758 157.173C47.7307 157.173 47.7035 157.167 47.6776 157.154C46.8353 156.741 45.9829 156.278 45.1434 155.776C45.0587 155.726 45.0315 155.616 45.0817 155.531C45.1319 155.447 45.2424 155.418 45.3285 155.47C46.1594 155.965 47.0032 156.424 47.8369 156.834C47.9259 156.878 47.9618 156.984 47.9187 157.073C47.8871 157.137 47.8226 157.173 47.758 157.173ZM67.2339 158.579C67.1607 158.579 67.0918 158.533 67.066 158.46C67.0315 158.367 67.0803 158.264 67.1736 158.231C67.5898 158.081 68.0159 157.914 68.4407 157.736C68.9013 157.541 69.3634 157.346 69.8241 157.15C69.9145 157.113 70.0207 157.153 70.0594 157.243C70.0981 157.335 70.0565 157.441 69.9661 157.478C69.5041 157.675 69.042 157.872 68.5799 158.066C68.1494 158.247 67.7175 158.415 67.2956 158.567C67.2755 158.574 67.254 158.579 67.2339 158.579ZM53.1177 159.196C53.1034 159.196 53.0876 159.193 53.0732 159.19C52.162 158.949 51.2379 158.652 50.3252 158.305C50.2319 158.271 50.1846 158.166 50.2205 158.075C50.2563 157.982 50.3597 157.936 50.4515 157.972C51.3541 158.312 52.2668 158.607 53.1637 158.843C53.2598 158.869 53.3172 158.967 53.2914 159.061C53.2698 159.143 53.1981 159.196 53.1177 159.196ZM61.6503 159.877C61.5584 159.877 61.4809 159.808 61.4709 159.717C61.4608 159.618 61.5326 159.531 61.6302 159.519C62.5672 159.42 63.5129 159.26 64.4399 159.042C64.5404 159.018 64.6336 159.081 64.6552 159.176C64.6796 159.271 64.6193 159.369 64.5231 159.39C63.5803 159.612 62.6203 159.774 61.6689 159.875C61.6618 159.877 61.656 159.877 61.6503 159.877ZM58.7803 160H58.7774C57.826 159.981 56.8588 159.901 55.9002 159.764C55.8026 159.75 55.7352 159.659 55.7495 159.562C55.7624 159.463 55.8442 159.393 55.9519 159.41C56.8947 159.546 57.8475 159.624 58.7846 159.642C58.8821 159.645 58.9625 159.727 58.9596 159.825C58.9582 159.923 58.8778 160 58.7803 160Z" fill="#D8D5DB"/>
<mask id="mask1" mask-type="alpha" maskUnits="userSpaceOnUse" x="13" y="23" width="105" height="142">
<path fill-rule="evenodd" clip-rule="evenodd" d="M13.4999 23.3996H117.392V164.304H13.4999V23.3996Z" fill="white"/>
</mask>
<g mask="url(#mask1)">
<path fill-rule="evenodd" clip-rule="evenodd" d="M110.283 141.747C109.483 141.962 108.683 142.378 108.04 143.11C107.669 143.54 107.183 144.343 106.755 145.19C106.655 142.292 106.555 139.825 106.455 138.305C106.726 138.276 106.883 138.276 106.883 138.276C106.883 137.932 106.883 137.588 106.869 137.215C106.797 130.23 106.04 118.081 105.041 105.975C105.398 106.721 105.741 107.409 106.069 108.026C106.083 108.241 106.083 108.456 106.126 108.686C106.655 111.583 109.297 127.619 110.068 137.286C110.211 139.022 110.283 140.542 110.283 141.747ZM116.639 106.405V106.376C115.81 103.665 113.025 95.5901 109.854 87.5721L113.368 86.3673C113.368 86.3673 103.084 67.9934 97.0707 63.9485C97.0564 63.9342 97.0421 63.9342 97.0278 63.9198C94.9139 61.9404 91.8287 60.6495 87.2153 60.1188C87.1867 56.2891 87.4724 49.8346 87.8009 44.8861C90.1719 44.341 91.3146 41.5441 91.4717 40.9273C91.8002 39.6651 91.5002 38.618 90.8861 37.9439C91.0717 36.3804 91.386 33.3396 91.3003 30.7291C91.2289 28.3338 90.8432 26.3113 89.7291 26.0675C89.7434 26.0245 89.772 25.9958 89.7863 25.9671C90.1576 24.7766 89.4577 23.457 89.4292 23.3996L88.8007 23.7439C88.9721 24.0451 89.3292 24.9917 89.1007 25.7376C88.0437 24.5614 84.7586 24.0881 81.0735 24.1598C75.9173 24.2459 70.0041 25.4364 68.4044 27.301C67.2903 28.5919 67.6188 29.2948 68.7757 29.6103C68.6043 30.8152 68.5329 31.8622 68.5044 32.8232C68.333 33.2679 68.1758 33.7269 68.0187 34.2146C67.6045 34.5014 67.2046 34.9174 66.9046 35.5628L67.5617 35.8641C67.5759 35.8354 67.5902 35.821 67.6045 35.7923C67.4331 36.5239 67.276 37.2697 67.1617 38.0873C65.8762 46.9802 63.7766 55.8301 72.5608 55.9305C72.5465 56.9346 72.4894 57.9099 72.3894 58.8279C72.318 59.5594 72.218 60.2479 72.0894 60.8647C68.7472 61.6822 66.1333 62.9731 64.3194 64.7087C57.8634 70.0588 49.7077 87.2422 49.7077 87.2422L52.4501 88.6049C50.4219 92.5637 48.4222 96.6085 46.9225 99.8932C39.9809 95.0738 27.7831 86.1378 24.1837 82.222C24.1837 82.2077 24.1694 82.2077 24.1551 82.1933C24.298 80.6873 24.0266 78.2489 23.6267 76.8719C23.6267 76.8433 23.6267 76.8146 23.6124 76.7715C23.5838 76.6998 23.5553 76.6568 23.541 76.5994C23.5124 76.5134 23.4838 76.4129 23.4553 76.3412C23.3839 76.1548 23.3267 76.0257 23.2696 75.9109C22.3126 73.7881 20.7986 72.9562 19.8988 70.1305C19.4274 68.6245 18.2705 69.2412 17.8277 70.2453L14.4283 62.6146L13.4999 63.0305L17.8706 72.8845C16.8422 72.4255 15.9423 72.1529 15.3282 72.3681C14.4854 72.655 13.557 76.915 13.957 78.4354C14.3569 79.9414 18.4562 84.7895 19.9845 85.6214C20.0987 85.6788 20.2273 85.7218 20.3415 85.7362C22.8125 89.2073 39.1953 108.743 45.7798 112.128C49.8648 114.208 52.9357 112.415 53.9498 109.747C55.2639 107.624 57.6777 103.479 60.3058 98.6883C59.4488 112.028 57.8063 127.06 54.7068 137.602C54.9925 137.645 55.2924 137.688 55.5924 137.731C54.7211 142.106 54.0784 147.858 53.6213 153.695C56.8493 155.072 60.1344 156.32 63.4481 157.439C78.2312 162.459 93.5713 164.969 106.912 164.152C107.126 163.492 107.226 162.803 107.212 162.072C107.14 159.203 107.055 155.689 106.969 152.218C107.683 154.083 108.611 155.617 109.354 156.005C110.14 156.406 113.853 154.126 114.668 152.763C115.467 151.443 116.082 145.104 115.61 143.411C115.582 143.296 115.496 143.21 115.439 143.11C115.61 142.163 115.867 140.098 116.153 137.401C117.067 128.307 118.153 111.97 116.639 106.405Z" fill="#D1CDD3"/>
</g>
<path fill-rule="evenodd" clip-rule="evenodd" d="M80 78.7037L70.7208 72.5746C70.7208 72.5746 61.4985 89.7529 56.9507 99.8037C50.0372 94.9584 37.8813 85.9867 34.2929 82.0448C34.2829 82.0347 34.273 82.029 34.263 82.0189C34.4039 80.5032 34.1335 78.0611 33.7392 76.6765C33.7307 76.6405 33.7292 76.6117 33.7164 76.5728C33.6965 76.5079 33.6694 76.4561 33.6481 76.3941C33.6196 76.3134 33.594 76.2111 33.5655 76.142C33.4901 75.9561 33.4317 75.8207 33.3791 75.704C32.4254 73.5846 30.9137 72.7374 30.0227 69.9078C29.4021 67.9325 27.6128 69.5894 27.7893 71.0143C27.7893 71.0143 28.0555 71.9393 28.3559 72.8297C27.173 72.2591 26.151 71.9133 25.4621 72.1482C24.628 72.432 23.6956 76.7168 24.0956 78.2484C24.4885 79.7554 28.5793 84.6281 30.1109 85.4666C30.222 85.5271 30.3387 85.5603 30.4582 85.579C32.9279 89.07 49.2544 108.695 55.8177 112.083C59.883 114.183 62.9362 112.374 63.9568 109.7C67.0598 104.601 76.45 88.0067 80 78.7037Z" fill="#FFAD69"/>
<path fill-rule="evenodd" clip-rule="evenodd" d="M81.7729 68.3122C83.1943 75.5119 77.4799 96 77.4799 96L60 87.3618C60 87.3618 78.0237 49.3191 81.7729 68.3122Z" fill="#EA3939"/>
<path fill-rule="evenodd" clip-rule="evenodd" d="M118 161.761C118 161.991 118 162.221 117.971 162.451C114.693 163.171 111.2 163.646 107.564 163.847C94.1925 164.668 78.8171 162.149 64 157.112C64.5154 149.427 65.3171 141.411 66.5483 136L107.521 136.82L110.727 136.892L116.826 137.007L117.184 137.022C117.47 140.303 117.814 153.586 118 161.761Z" fill="#232323"/>
<path fill-rule="evenodd" clip-rule="evenodd" d="M94.0673 60.035C105.249 60.4051 109.029 64.1926 110.956 70.7432C113.145 78.181 117 123.105 117 138.116C117 138.116 83.5378 140.495 65 137.446C70.8115 117.745 71.4407 82.3171 71.5575 71.7632C71.6443 63.8439 79.8917 59.565 94.0673 60.035Z" fill="#FF4E4A"/>
<path fill-rule="evenodd" clip-rule="evenodd" d="M84.8745 41.7789C83.6953 40.9094 77.5465 41.6982 79.3183 29.4224C79.9628 24.9435 84.2529 27.9329 87.2892 28.5305C90.3255 29.1281 88.3952 42 88.3952 42L84.8745 41.7789Z" fill="#232323"/>
<path fill-rule="evenodd" clip-rule="evenodd" d="M99 39C98.5297 42.0735 97.589 58.7023 97.9807 62.5632C98.3724 66.4255 79.7889 67.529 82.2193 63.273C84.651 59.017 82.9255 44.9099 82.9255 44.9099L99 39Z" fill="#FFAD69"/>
<path fill-rule="evenodd" clip-rule="evenodd" d="M96.9939 39L82 44.3175C82 44.3175 83.0123 52.3474 82.4015 58C93.8345 57.1436 96.7689 43.1577 96.9625 40.4645C96.9939 39.957 97.0095 39.4675 96.9939 39Z" fill="#D88344"/>
<path fill-rule="evenodd" clip-rule="evenodd" d="M78.1621 38.4229C76.7989 47.9202 74.4846 57.3893 85.8733 55.8307C97.2634 54.272 99.0331 39.5114 98.9995 36.7273C98.8222 21.8707 80.8424 19.7473 78.1621 38.4229Z" fill="#FFAD69"/>
<path fill-rule="evenodd" clip-rule="evenodd" d="M100.386 26.5584C100.401 26.5226 100.433 26.4977 100.446 26.4618C100.831 25.3227 100.122 24.0538 100.091 24L99.4518 24.3272C99.4576 24.3383 100.039 25.389 99.7541 26.2436C97.1588 23.5195 81.4811 24.6807 78.6926 27.7583C75.1499 31.6684 86.0454 29.9053 92.1848 28.9181C93.045 32.3339 96.9423 37.9907 98.0655 38.7943L101.424 39C101.424 39 103.256 27.1577 100.386 26.5584Z" fill="#232323"/>
<path fill-rule="evenodd" clip-rule="evenodd" d="M125.089 143.031C125.811 138.896 128.189 113.492 126.264 106.27C126.261 106.258 126.263 106.247 126.26 106.234C124.916 101.713 118.243 82.2266 113.412 73L103 76.1498C103 76.1498 111.714 99.5921 115.939 107.883C115.951 108.106 115.951 108.324 115.993 108.554C116.615 111.974 120.089 133.674 120.05 141.666C119.28 141.887 118.497 142.304 117.874 143.037C117.081 143.971 115.698 146.654 115.795 147.843C116.073 151.239 117.903 155.284 119.156 155.952C119.923 156.36 123.536 154.065 124.329 152.713C125.11 151.383 125.712 145.036 125.252 143.343C125.221 143.226 125.146 143.133 125.089 143.031Z" fill="#FFAD69"/>
<path fill-rule="evenodd" clip-rule="evenodd" d="M106.645 63.8591C112.687 67.9622 123 86.6254 123 86.6254L104.635 93C104.635 93 90.7074 53.0362 106.645 63.8591Z" fill="#FF4E4A"/>
<path fill-rule="evenodd" clip-rule="evenodd" d="M86.9446 37.4697C86.9706 37.7458 86.7936 37.9823 86.5476 37.9991C86.3016 38.0151 86.0816 37.8056 86.0556 37.5295C86.0286 37.2543 86.2066 37.0169 86.4526 37.0009C86.6976 36.9841 86.9176 37.1937 86.9446 37.4697Z" fill="#232323"/>
<path fill-rule="evenodd" clip-rule="evenodd" d="M79.9446 37.4697C79.9706 37.7458 79.7936 37.9823 79.5476 37.9991C79.3026 38.0151 79.0816 37.8056 79.0556 37.5303C79.0286 37.2543 79.2066 37.0169 79.4526 37.0009C79.6976 36.9841 79.9186 37.1937 79.9446 37.4697Z" fill="#232323"/>
<path fill-rule="evenodd" clip-rule="evenodd" d="M89.4831 35C88.6258 33.4071 87.1505 33.7863 87.1357 33.7893L87 33.0608C87.0777 33.0414 88.9108 32.5711 90 34.5925L89.4831 35Z" fill="#232323"/>
<path fill-rule="evenodd" clip-rule="evenodd" d="M78.6045 35L78 34.7372C78.8975 32.879 80.9148 32.999 81 33.0028L80.9534 33.6331C80.8908 33.6294 79.3076 33.5498 78.6045 35Z" fill="#232323"/>
<path fill-rule="evenodd" clip-rule="evenodd" d="M84.8191 47C84.3246 47 84.0119 46.949 84 46.9462L84.1355 46.2693C84.2725 46.2927 87.5413 46.8056 89.3626 44L90 44.3557C88.4974 46.6691 86.0774 47 84.8191 47Z" fill="#232323"/>
<path fill-rule="evenodd" clip-rule="evenodd" d="M80 43L81.5717 37L82.1635 37.1937L80.8278 42.2957L82.9914 42.2638L83 42.9557L80 43Z" fill="#D88344"/>
<path fill-rule="evenodd" clip-rule="evenodd" d="M33 81.5879L32.0978 82L24 63.4121L24.9008 63L33 81.5879Z" fill="#232323"/>
<path fill-rule="evenodd" clip-rule="evenodd" d="M96.1271 39.7964C95.1128 42.204 93.8438 44.5332 97.0273 44.9654C100.211 45.399 101.692 41.6325 101.872 40.8943C102.834 36.9582 98.1201 35.0626 96.1271 39.7964Z" fill="#FFAD69"/>
<mask id="mask2" mask-type="alpha" maskUnits="userSpaceOnUse" x="0" y="0" width="149" height="164">
<path fill-rule="evenodd" clip-rule="evenodd" d="M0 164H149V0H0V164Z" fill="white"/>
</mask>
<g mask="url(#mask2)">
<path fill-rule="evenodd" clip-rule="evenodd" d="M37.8767 41H12.1233C10.9501 41 10 41.9158 10 43.0438V54.5833C10 55.7126 10.9501 56.6284 12.1233 56.6284H14.1737L16.4859 59.6017C16.9996 60.2628 18.0784 60.0659 18.3045 59.2698L19.0542 56.6284H37.8767C39.0499 56.6284 40 55.7126 40 54.5833V43.0438C40 41.9158 39.0499 41 37.8767 41Z" fill="#FF4E4A"/>
<path fill-rule="evenodd" clip-rule="evenodd" d="M13 43.75H27V43.25H13V43.75Z" fill="white"/>
<path fill-rule="evenodd" clip-rule="evenodd" d="M30 43.75H35V43.25H30V43.75Z" fill="white"/>
<path fill-rule="evenodd" clip-rule="evenodd" d="M14 47.75H24V47.25H14V47.75Z" fill="white"/>
<path fill-rule="evenodd" clip-rule="evenodd" d="M14 50.75H33V50.25H14V50.75Z" fill="white"/>
<path fill-rule="evenodd" clip-rule="evenodd" d="M31.1472 8H62.8543C64.0393 8 65 8.91582 65 10.0437V21.5844C65 22.7123 64.0393 23.6282 62.8543 23.6282H60.7794L58.4413 26.6028C57.9218 27.2625 56.8309 27.0656 56.6037 26.2696L55.8441 23.6282H31.1472C29.9607 23.6282 29 22.7123 29 21.5844V10.0437C29 8.91582 29.9607 8 31.1472 8Z" fill="#FFC84D"/>
<path fill-rule="evenodd" clip-rule="evenodd" d="M48 11.75H61V11.25H48V11.75Z" fill="white"/>
<path fill-rule="evenodd" clip-rule="evenodd" d="M34 15.75H61V15.25H34V15.75Z" fill="white"/>
<path fill-rule="evenodd" clip-rule="evenodd" d="M48 18.75H61V18.25H48V18.75Z" fill="white"/>
<path fill-rule="evenodd" clip-rule="evenodd" d="M39 18.75H45V18.25H39V18.75Z" fill="white"/>
<path fill-rule="evenodd" clip-rule="evenodd" d="M83.9993 78.7398C78.3428 78.7398 73.7398 83.3428 73.7398 88.9993C73.7398 94.6572 78.3428 99.2602 83.9993 99.2602C89.6572 99.2602 94.2602 94.6572 94.2602 88.9993C94.2602 83.3428 89.6572 78.7398 83.9993 78.7398ZM83.9993 100C77.9344 100 73 95.0656 73 88.9993C73 82.9344 77.9344 78 83.9993 78C90.0656 78 95 82.9344 95 88.9993C95 95.0656 90.0656 100 83.9993 100Z" fill="white"/>
</g>
</svg>