<svg width="259" height="254" viewBox="0 0 259 254" fill="none" xmlns="http://www.w3.org/2000/svg">
<mask id="mask0" mask-type="alpha" maskUnits="userSpaceOnUse" x="0" y="27" width="259" height="227">
<path fill-rule="evenodd" clip-rule="evenodd" d="M0.000488281 27.1443H258.72V253.046H0.000488281V27.1443Z" fill="white"/>
</mask>
<g mask="url(#mask0)">
<path fill-rule="evenodd" clip-rule="evenodd" d="M242.738 150.374C241.937 151.658 241.138 152.921 240.285 154.178C232.829 165.353 223.575 176.086 213.328 185.951C212.864 186.409 212.379 186.872 211.895 187.33C210.436 188.712 208.93 190.095 207.424 191.426C204.827 193.803 202.153 196.103 199.433 198.308C198 199.52 196.521 200.71 195.061 201.871C178.111 215.25 159.992 226.955 142.139 235.774C136.603 238.539 131.066 241.008 125.601 243.141C97.085 254.412 70.541 257.054 52.2281 245.879C46.3967 242.341 41.4177 237.397 37.4588 230.881C36.8273 229.837 36.1958 228.794 35.5644 227.755C29.7135 217.986 24.1249 208.174 19.2188 198.308C18.053 196.006 16.9624 193.73 15.8938 191.426C-1.90908 153.257 -8.68776 114.629 16.5471 76.6299C26.3593 61.8496 42.4645 50.3385 61.795 42.1935C67.3108 39.8453 73.0645 37.8072 79.0417 36.0381C81.9805 35.1172 84.9412 34.3175 87.9771 33.5929C91.7927 32.6236 95.6763 31.7754 99.6109 31.0459C102.625 30.4668 105.634 29.9578 108.67 29.5192C109.933 29.352 111.196 29.1824 112.459 29.0103C121.421 27.8737 130.505 27.2412 139.542 27.1709C140.73 27.1443 141.92 27.1443 143.088 27.1443C148.553 27.1709 153.967 27.3866 159.31 27.8253C160.743 27.9222 162.176 28.0434 163.609 28.2106C190.884 30.8545 215.9 38.6554 232.902 51.5987C236.618 54.4341 239.947 57.4851 242.835 60.8076C243.372 61.4134 243.882 62.0193 244.365 62.6469C244.535 62.8408 244.684 63.0347 244.851 63.231C248.373 67.6391 251.19 72.1975 253.306 76.8504C264.114 100.333 257.796 126.237 242.738 150.374Z" fill="#FDE6D6"/>
</g>
<path fill-rule="evenodd" clip-rule="evenodd" d="M187.577 219.753C181.118 226.608 176.52 236.411 183.467 242.219C191.225 248.704 207.228 247.198 215.502 234.964C220.79 227.149 223.588 214.793 217.73 207.862C212.715 201.928 195.501 211.341 187.577 219.753Z" fill="#E8E5EA"/>
<path fill-rule="evenodd" clip-rule="evenodd" d="M92.1537 219.271C90.522 219.341 88.866 219.392 87.2587 219.392C87.0882 219.392 86.9664 219.536 86.9664 219.708C86.9664 219.852 87.0882 220 87.2587 220C88.8904 220 90.522 219.949 92.1781 219.878C92.3486 219.878 92.4703 219.73 92.4703 219.562C92.446 219.417 92.2999 219.271 92.1537 219.271ZM82.3879 219.319C80.7319 219.271 79.0759 219.173 77.5172 219.076C77.298 219.052 77.2006 219.173 77.1763 219.341C77.1763 219.514 77.298 219.66 77.4685 219.684C79.0515 219.781 80.7075 219.878 82.3636 219.927C82.5341 219.927 82.6802 219.806 82.6802 219.633C82.6802 219.465 82.5584 219.319 82.3879 219.319ZM101.895 218.566C100.263 218.733 98.6318 218.882 97.0245 219.003C96.854 219.003 96.7322 219.147 96.7322 219.319C96.7566 219.489 96.8783 219.611 97.0488 219.611H97.0732C98.6805 219.489 100.312 219.341 101.944 219.173C102.114 219.147 102.236 219.003 102.236 218.831C102.212 218.663 102.066 218.539 101.895 218.566ZM72.6465 218.59C71.0392 218.417 69.4075 218.177 67.8245 217.907C67.654 217.885 67.5079 217.982 67.4592 218.152C67.4348 218.32 67.5566 218.468 67.7271 218.493C69.3101 218.784 70.9417 219.003 72.5734 219.198H72.6221C72.7683 219.198 72.89 219.1 72.9144 218.928C72.9387 218.76 72.817 218.612 72.6465 218.59ZM111.588 217.277C109.932 217.518 108.325 217.763 106.742 217.982C106.571 218.004 106.449 218.152 106.474 218.32C106.498 218.468 106.644 218.59 106.79 218.59H106.815C108.398 218.371 110.029 218.126 111.685 217.861C111.831 217.836 111.953 217.69 111.929 217.518C111.905 217.35 111.758 217.253 111.588 217.277ZM63.0512 216.937C61.4438 216.572 59.8609 216.159 58.3266 215.721C58.1561 215.672 57.9856 215.745 57.9369 215.916C57.8882 216.083 57.9856 216.256 58.1561 216.302C59.6417 216.715 61.1516 217.131 62.6859 217.496C62.7589 217.518 62.832 217.518 62.9051 217.544H62.9781C63.0268 217.544 63.0755 217.518 63.1242 217.496L63.1486 217.472C63.2216 217.447 63.246 217.374 63.2704 217.299C63.2947 217.155 63.1973 216.985 63.0512 216.937ZM121.183 215.454C119.6 215.792 117.969 216.134 116.434 216.426H116.386C116.215 216.45 116.118 216.594 116.142 216.766C116.166 216.91 116.313 217.007 116.459 217.007H116.507C117.603 216.813 118.724 216.594 119.844 216.353C120.331 216.256 120.818 216.159 121.305 216.037C121.475 216.013 121.573 215.843 121.549 215.672C121.5 215.527 121.354 215.405 121.183 215.454ZM130.681 213.142C129.147 213.555 127.564 213.968 125.957 214.357C125.786 214.408 125.689 214.554 125.737 214.724C125.762 214.868 125.883 214.965 126.03 214.965C126.054 214.965 126.078 214.965 126.103 214.943C127.71 214.554 129.317 214.141 130.852 213.749C130.998 213.703 131.095 213.533 131.071 213.36C131.022 213.217 130.852 213.12 130.681 213.142ZM53.6994 214.163C53.1636 213.968 52.6522 213.774 52.1164 213.555C51.1179 213.166 50.1681 212.731 49.2183 212.293C49.0722 212.22 48.8774 212.293 48.8043 212.437C48.7313 212.585 48.8043 212.779 48.9504 212.85C49.9733 213.338 51.0448 213.774 52.1164 214.214C52.5548 214.408 53.0175 214.576 53.4802 214.749H53.602C53.7237 214.749 53.8455 214.673 53.8942 214.554C53.9429 214.408 53.8699 214.238 53.6994 214.163ZM140.057 210.419C139.741 210.516 139.424 210.637 139.083 210.735C137.89 211.102 136.648 211.491 135.406 211.853C135.235 211.904 135.138 212.048 135.187 212.22C135.235 212.366 135.357 212.437 135.479 212.437H135.576C136.794 212.074 138.036 211.71 139.205 211.342C139.57 211.221 139.911 211.124 140.252 211.005C140.398 210.956 140.496 210.786 140.447 210.613C140.398 210.47 140.228 210.372 140.057 210.419ZM44.8834 210.056L44.7129 209.935C43.3491 209.157 42.034 208.33 40.7676 207.455C40.6459 207.358 40.451 207.406 40.3536 207.552C40.2562 207.671 40.3049 207.868 40.4267 207.966C41.6931 208.814 43.0325 209.667 44.3963 210.47L44.5911 210.591C44.6398 210.613 44.6886 210.613 44.7373 210.613C44.859 210.613 44.9564 210.567 45.0051 210.47C45.1026 210.321 45.0295 210.127 44.8834 210.056ZM149.312 207.282C147.777 207.844 146.219 208.379 144.709 208.911C144.538 208.962 144.465 209.133 144.514 209.278C144.563 209.422 144.66 209.495 144.806 209.495C144.831 209.495 144.855 209.495 144.904 209.473C146.438 208.962 147.972 208.401 149.507 207.844C149.677 207.793 149.75 207.625 149.701 207.455C149.628 207.282 149.433 207.212 149.312 207.282ZM158.81 203.881C158.737 203.711 158.566 203.636 158.42 203.711C156.934 204.319 155.4 204.948 153.866 205.534C153.72 205.607 153.647 205.775 153.695 205.948C153.744 206.067 153.866 206.142 153.988 206.142C154.012 206.142 154.061 206.118 154.109 206.118C155.644 205.51 157.178 204.878 158.639 204.27C158.81 204.197 158.883 204.025 158.81 203.881ZM36.871 204.559C36.3109 204.124 35.7508 203.662 35.2394 203.222C34.5331 202.614 33.8755 201.985 33.218 201.377C33.0962 201.255 32.9014 201.255 32.7796 201.377C32.6579 201.496 32.6579 201.693 32.7796 201.812C33.559 202.544 34.3626 203.273 35.215 203.978C35.629 204.341 36.043 204.708 36.4814 205.046C36.5301 205.097 36.6032 205.121 36.6762 205.121C36.7736 205.121 36.8467 205.072 36.9198 204.999C37.0172 204.878 36.9928 204.683 36.871 204.559ZM167.772 199.891C167.699 199.724 167.504 199.673 167.358 199.748C165.945 200.402 164.508 201.085 162.901 201.79C162.755 201.839 162.682 202.033 162.755 202.179C162.804 202.301 162.925 202.374 163.023 202.374C163.071 202.374 163.12 202.349 163.145 202.323C164.752 201.618 166.213 200.964 167.626 200.28C167.772 200.21 167.845 200.04 167.772 199.891ZM29.8572 197.849C28.7856 196.634 27.7628 195.348 26.8374 194.059C26.7399 193.911 26.5451 193.889 26.399 193.986C26.2772 194.083 26.2529 194.278 26.3503 194.399C27.2027 195.615 28.1525 196.806 29.1266 197.947C29.224 198.046 29.2971 198.165 29.3945 198.263C29.4432 198.314 29.5406 198.36 29.6137 198.36C29.6867 198.36 29.7598 198.338 29.8329 198.289C29.9303 198.192 29.9546 198.068 29.9059 197.947C29.9059 197.9 29.8816 197.874 29.8572 197.849ZM176.515 195.493C176.442 195.348 176.247 195.299 176.101 195.372C174.712 196.123 173.227 196.879 171.766 197.609C171.62 197.682 171.571 197.827 171.62 197.947C171.595 197.971 171.62 197.998 171.62 198.022C171.668 198.119 171.79 198.192 171.887 198.192C171.936 198.192 171.985 198.165 172.034 198.143C172.155 198.068 172.301 198.022 172.423 197.947C173.787 197.293 175.102 196.587 176.393 195.907C176.539 195.831 176.588 195.637 176.515 195.493ZM185.038 190.704C184.965 190.556 184.771 190.509 184.624 190.58C184.357 190.728 184.113 190.898 183.845 191.044C182.725 191.725 181.58 192.379 180.387 193.038C180.241 193.108 180.192 193.303 180.289 193.451C180.338 193.548 180.436 193.595 180.557 193.595C180.606 193.595 180.655 193.595 180.703 193.573C182.14 192.746 183.577 191.92 184.941 191.117C184.965 191.093 184.99 191.066 185.014 191.044C185.111 190.947 185.111 190.826 185.038 190.704ZM24.2072 189.972C23.3791 188.589 22.6242 187.128 21.9666 185.671C21.8936 185.525 21.6987 185.453 21.5526 185.525C21.4065 185.596 21.3334 185.769 21.4065 185.939C22.0884 187.398 22.8434 188.881 23.6714 190.291C23.7201 190.388 23.8175 190.437 23.9393 190.437C23.988 190.437 24.0367 190.412 24.0854 190.388C24.2315 190.315 24.2802 190.12 24.2072 189.972ZM193.343 185.55C193.343 185.525 193.319 185.499 193.319 185.477C193.221 185.331 193.026 185.304 192.905 185.38C192.807 185.428 192.734 185.499 192.637 185.55C191.955 186.009 191.224 186.498 190.518 186.933C189.958 187.322 189.373 187.689 188.813 188.054C188.667 188.124 188.618 188.321 188.716 188.467C188.764 188.564 188.862 188.613 188.959 188.613C189.008 188.613 189.081 188.589 189.13 188.564C189.982 188.027 190.81 187.495 191.638 186.933C192.174 186.595 192.71 186.255 193.246 185.89C193.343 185.815 193.392 185.671 193.343 185.55ZM201.282 179.812C201.185 179.666 200.99 179.64 200.868 179.737C199.578 180.712 198.238 181.684 196.923 182.632C196.777 182.73 196.752 182.9 196.85 183.046C196.923 183.119 196.996 183.165 197.093 183.165C197.167 183.165 197.215 183.165 197.288 183.119C198.603 182.168 199.943 181.198 201.234 180.223C201.38 180.126 201.404 179.931 201.282 179.812ZM18.7033 176.53C18.6545 176.36 18.4841 176.263 18.3136 176.311C18.1675 176.36 18.0701 176.53 18.0944 176.673C18.5328 178.28 19.0198 179.861 19.5556 181.368C19.6043 181.514 19.7017 181.587 19.8479 181.587C19.8722 181.587 19.8966 181.587 19.9453 181.56C20.0914 181.514 20.1888 181.341 20.1158 181.174C19.58 179.666 19.1173 178.108 18.7033 176.53ZM208.905 173.634C208.783 173.515 208.588 173.515 208.467 173.613C207.273 174.634 206.031 175.677 204.716 176.749C204.594 176.846 204.57 177.041 204.667 177.162C204.74 177.235 204.814 177.281 204.911 177.281C204.984 177.281 205.033 177.259 205.106 177.208C206.421 176.165 207.687 175.096 208.856 174.074C209.002 173.95 209.002 173.783 208.905 173.634ZM16.9741 166.949C16.9741 166.805 16.828 166.657 16.6575 166.684C16.4871 166.708 16.3653 166.851 16.3897 167.024C16.5601 168.675 16.7793 170.304 17.0472 171.886C17.0716 172.03 17.2177 172.127 17.3638 172.127H17.4125C17.583 172.105 17.6804 171.959 17.656 171.789C17.3882 170.206 17.1446 168.604 16.9741 166.949ZM216.065 167C215.943 166.876 215.748 166.876 215.627 167C214.506 168.118 213.313 169.261 212.12 170.379C211.998 170.476 211.973 170.671 212.095 170.792C212.144 170.865 212.241 170.89 212.314 170.89C212.388 170.89 212.461 170.865 212.534 170.814C213.727 169.696 214.92 168.556 216.065 167.413C216.187 167.291 216.187 167.097 216.065 167ZM222.665 159.777C222.543 159.655 222.348 159.679 222.226 159.803C221.228 161.019 220.132 162.259 219.012 163.474C218.89 163.596 218.914 163.79 219.036 163.91C219.085 163.961 219.158 163.985 219.231 163.985C219.328 163.985 219.401 163.934 219.45 163.888C220.595 162.648 221.691 161.405 222.713 160.19C222.811 160.068 222.787 159.874 222.665 159.777ZM16.6088 159.414C16.6088 158.709 16.6088 157.98 16.6332 157.248C16.6332 157.08 16.5114 156.932 16.341 156.932C16.1705 156.932 16.0244 157.056 16.0244 157.224C16 157.953 16 158.685 16 159.414C16 160.338 16.0244 161.238 16.0487 162.137C16.0487 162.283 16.1948 162.429 16.341 162.429H16.3653C16.5358 162.402 16.6575 162.283 16.6575 162.111C16.6332 161.213 16.6088 160.314 16.6088 159.414ZM228.558 151.999C228.412 151.902 228.242 151.926 228.144 152.07C227.243 153.382 226.269 154.72 225.295 156.008C225.173 156.156 225.222 156.351 225.344 156.448C225.392 156.473 225.465 156.497 225.538 156.497C225.612 156.497 225.709 156.473 225.782 156.375C226.756 155.087 227.73 153.75 228.631 152.412C228.729 152.264 228.704 152.07 228.558 151.999ZM17.169 147.207C16.9741 147.161 16.8524 147.283 16.828 147.453C16.6088 149.106 16.4384 150.735 16.2922 152.339C16.2922 152.51 16.414 152.656 16.5845 152.656H16.6088C16.755 152.656 16.9011 152.534 16.9011 152.386C17.0472 150.784 17.2177 149.155 17.4369 147.55C17.4612 147.38 17.3394 147.207 17.169 147.207ZM233.551 143.587C233.405 143.539 233.234 143.587 233.137 143.733C232.431 145.119 231.627 146.553 230.774 147.963C230.677 148.107 230.726 148.304 230.872 148.401C230.921 148.423 230.969 148.423 231.018 148.423C231.14 148.423 231.237 148.377 231.286 148.279C232.163 146.845 232.966 145.411 233.697 144C233.77 143.852 233.697 143.658 233.551 143.587ZM18.9224 137.58C18.752 137.558 18.6058 137.655 18.5571 137.825C18.2162 139.43 17.8752 141.032 17.583 142.615C17.5586 142.785 17.6804 142.931 17.8265 142.979H17.8996C18.0457 142.979 18.1675 142.882 18.1918 142.736C18.4841 141.156 18.8007 139.551 19.166 137.947C19.1903 137.774 19.0929 137.631 18.9224 137.58ZM237.399 134.616C237.228 134.567 237.058 134.638 237.009 134.81C236.498 136.294 235.889 137.825 235.231 139.333C235.158 139.5 235.231 139.673 235.402 139.746C235.426 139.746 235.475 139.77 235.523 139.77C235.621 139.77 235.743 139.697 235.791 139.576C236.449 138.044 237.058 136.512 237.569 135.005C237.642 134.857 237.545 134.689 237.399 134.616ZM21.4552 128.149C21.3091 128.1 21.1386 128.198 21.0899 128.365C20.6028 129.924 20.1401 131.502 19.7261 133.06C19.7017 133.228 19.7992 133.4 19.9453 133.422C19.9696 133.447 19.994 133.447 20.0427 133.447C20.1645 133.447 20.2862 133.352 20.3349 133.228C20.7246 131.674 21.1873 130.092 21.6744 128.538C21.7231 128.365 21.6257 128.198 21.4552 128.149ZM239.98 125.207C239.81 125.159 239.664 125.28 239.615 125.424C239.274 126.982 238.86 128.56 238.422 130.167C238.397 130.313 238.47 130.48 238.641 130.532C238.665 130.532 238.689 130.556 238.714 130.556C238.86 130.556 238.982 130.459 239.006 130.313C239.444 128.732 239.858 127.128 240.224 125.572C240.248 125.402 240.151 125.229 239.98 125.207ZM24.6455 118.91C24.4751 118.859 24.3046 118.932 24.2559 119.081C23.6714 120.612 23.1113 122.168 22.5998 123.697C22.5268 123.846 22.6242 124.013 22.7703 124.089H22.8677C23.0138 124.089 23.1113 124.013 23.16 123.894C23.6957 122.363 24.2559 120.807 24.816 119.299C24.8647 119.151 24.7917 118.957 24.6455 118.91ZM241.734 115.58C241.587 115.555 241.417 115.677 241.393 115.847C241.173 117.452 240.906 119.054 240.613 120.658C240.589 120.831 240.686 120.974 240.857 121.026H240.906C241.052 121.026 241.173 120.928 241.222 120.78C241.514 119.151 241.782 117.522 242.001 115.944C242.001 115.774 241.904 115.602 241.734 115.58ZM28.3473 109.866C28.2012 109.793 28.0307 109.866 27.9576 110.034C27.3001 111.52 26.6425 113.027 26.0337 114.534C25.985 114.678 26.058 114.875 26.2042 114.923C26.2529 114.948 26.2772 114.948 26.3259 114.948C26.4477 114.948 26.5451 114.875 26.5938 114.753C27.2027 113.268 27.8602 111.76 28.5178 110.28C28.5908 110.109 28.5178 109.937 28.3473 109.866ZM242.586 105.855C242.44 105.877 242.294 105.974 242.269 106.147C242.196 107.775 242.099 109.404 241.953 111.009C241.928 111.179 242.05 111.325 242.221 111.347H242.245C242.391 111.347 242.537 111.228 242.537 111.055C242.708 109.453 242.805 107.824 242.878 106.168C242.903 106.025 242.756 105.877 242.586 105.855ZM32.5605 101.041C32.4143 100.968 32.2195 101.014 32.1464 101.163C31.4158 102.621 30.6852 104.104 30.0033 105.561C29.9303 105.733 30.0033 105.903 30.1494 105.974C30.1982 106.001 30.2225 106.001 30.2712 106.001C30.393 106.001 30.4904 105.952 30.5391 105.83C31.2454 104.369 31.976 102.889 32.7066 101.454C32.7796 101.284 32.7066 101.112 32.5605 101.041ZM242.878 96.395C242.878 96.2272 242.732 96.1056 242.562 96.1056C242.391 96.1056 242.269 96.2515 242.269 96.4217C242.342 98.0263 242.391 99.6552 242.391 101.284C242.391 101.454 242.537 101.6 242.683 101.6C242.854 101.6 243 101.454 243 101.284C243 99.6552 242.951 98.002 242.878 96.395ZM37.1876 92.4102C37.0415 92.3373 36.8467 92.3859 36.7736 92.5318C35.9456 93.9638 35.1663 95.4249 34.4113 96.835C34.3383 96.9809 34.387 97.1511 34.5331 97.224C34.5818 97.2483 34.6305 97.2726 34.6792 97.2726C34.7766 97.2726 34.8984 97.224 34.9471 97.1024C35.7021 95.7167 36.4814 94.2579 37.3094 92.8235C37.3825 92.6776 37.3338 92.5075 37.1876 92.4102ZM241.953 86.6239C241.928 86.4538 241.782 86.3322 241.612 86.3808C241.441 86.4051 241.344 86.551 241.368 86.7188C241.587 88.3258 241.782 89.9547 241.928 91.5593C241.953 91.7295 242.075 91.8267 242.245 91.8267H242.269C242.44 91.8267 242.562 91.6808 242.537 91.5107C242.391 89.8818 242.196 88.2528 241.953 86.6239ZM42.1801 84.0225C42.0584 83.9253 41.8635 83.9739 41.7661 84.1198C40.9137 85.5031 40.0614 86.8914 39.2333 88.3015C39.1359 88.4473 39.1846 88.6175 39.3308 88.7148C39.3795 88.7391 39.4282 88.7634 39.4769 88.7634C39.5986 88.7634 39.6961 88.7148 39.7448 88.6175C40.5728 87.2074 41.4252 85.8216 42.2775 84.4358C42.375 84.2875 42.3263 84.1198 42.1801 84.0225ZM241.125 81.6156H241.1C240.833 80.084 240.467 78.5523 240.102 76.9939C240.078 76.8262 239.907 76.7289 239.737 76.7775C239.59 76.8019 239.469 76.972 239.517 77.1422C239.883 78.6253 240.199 80.1083 240.492 81.5913C240.516 81.6886 240.54 81.8077 240.565 81.9074C240.589 82.0533 240.711 82.1505 240.857 82.1505H240.906C241.076 82.1019 241.173 81.956 241.149 81.7858C241.149 81.7372 241.125 81.6643 241.125 81.6156ZM47.6597 75.6835C47.5379 75.5863 47.3431 75.6106 47.2457 75.7564L47.1239 75.9266C46.2228 77.2638 45.2974 78.6253 44.4207 79.9843C44.3232 80.1326 44.3476 80.3271 44.4937 80.4244C44.5424 80.4487 44.6155 80.473 44.6642 80.473C44.7616 80.473 44.859 80.4244 44.9077 80.3271C45.8088 78.9656 46.7099 77.6017 47.6353 76.267L47.7571 76.0968C47.8302 75.9753 47.8058 75.7783 47.6597 75.6835ZM238.495 71.1615C238.129 69.9459 237.74 68.7546 237.35 67.5876C237.301 67.4174 237.106 67.3445 236.96 67.3931C236.79 67.466 236.717 67.6362 236.765 67.7821C237.228 69.1192 237.667 70.4807 238.081 71.8665C238.129 72.061 238.202 72.2312 238.251 72.4257C238.3 72.5716 238.422 72.6445 238.543 72.6445H238.641C238.787 72.5959 238.884 72.4257 238.836 72.2555C238.738 71.8908 238.616 71.5237 238.495 71.1615ZM53.2854 67.6848C53.1393 67.5876 52.9444 67.6119 52.847 67.7578C51.9216 69.0706 50.9718 70.3835 50.022 71.7449C49.9246 71.8665 49.9733 72.061 50.0951 72.1582C50.1681 72.2069 50.2168 72.2069 50.2899 72.2069C50.3629 72.2069 50.4604 72.1826 50.5334 72.0829C51.4589 70.7482 52.4086 69.411 53.3584 68.0981C53.4559 67.9523 53.4071 67.7821 53.2854 67.6848ZM59.0815 59.8077C58.9354 59.7105 58.7649 59.7348 58.6432 59.8563C57.669 61.1424 56.6949 62.4577 55.7207 63.7949C55.6233 63.9165 55.672 64.111 55.7938 64.2082C55.8425 64.2568 55.9156 64.2811 55.9643 64.2811C56.0617 64.2811 56.1591 64.2301 56.2322 64.1353C57.182 62.8224 58.1561 61.5096 59.1302 60.221C59.2277 60.0995 59.2033 59.905 59.0815 59.8077ZM235.621 62.9926C235.475 62.6279 235.304 62.2389 235.134 61.8499C235.061 61.6554 234.963 61.4366 234.866 61.2178C234.501 60.3183 234.087 59.3944 233.673 58.4949C233.6 58.349 233.429 58.2761 233.259 58.349C233.112 58.4219 233.039 58.5921 233.112 58.738C233.405 59.3677 233.697 60.0022 233.965 60.6343C234.16 61.0476 234.33 61.4609 234.476 61.8499C234.671 62.2632 234.842 62.6522 234.988 63.0655C235.012 63.1142 235.036 63.1628 235.061 63.2114C235.109 63.333 235.207 63.4059 235.329 63.4059C235.377 63.4059 235.402 63.4059 235.45 63.3816C235.572 63.333 235.67 63.2114 235.645 63.0655C235.645 63.0412 235.645 63.0145 235.621 62.9926ZM65.0969 52.074C64.9508 51.9792 64.7803 52.0035 64.6585 52.1251C63.66 53.3407 62.7102 54.6049 61.7361 55.8448C61.7117 55.8935 61.663 55.9178 61.6387 55.9664C61.5169 56.1123 61.5413 56.3068 61.6874 56.404C61.7361 56.4526 61.8091 56.477 61.8578 56.477C61.9309 56.477 62.004 56.4526 62.0527 56.404C62.077 56.3797 62.077 56.3797 62.1014 56.3554C63.1242 55.0425 64.1227 53.7783 65.1456 52.5141C65.243 52.3925 65.2186 52.198 65.0969 52.074ZM231.529 54.0944C231.213 53.5109 230.921 52.9517 230.604 52.3925C230.141 51.5173 229.654 50.6664 229.143 49.8155C229.07 49.6696 228.875 49.621 228.729 49.6939C228.583 49.7911 228.534 49.9613 228.631 50.1072C229.143 50.9824 229.63 51.882 230.141 52.8058C230.409 53.3164 230.701 53.8488 230.969 54.3861C231.042 54.4834 231.14 54.532 231.237 54.532C231.286 54.532 231.335 54.532 231.383 54.5052C231.529 54.4347 231.603 54.2402 231.529 54.0944ZM71.3558 44.564C71.2096 44.4668 71.0392 44.4911 70.9174 44.6127C69.8702 45.8283 68.7986 47.0682 67.7514 48.3324C67.654 48.4783 67.654 48.6728 67.8001 48.77C67.8488 48.8187 67.9219 48.843 67.995 48.843C68.068 48.843 68.1654 48.7943 68.2141 48.7214C69.2613 47.4572 70.3329 46.2173 71.3801 45.0017C71.4775 44.8801 71.4775 44.6856 71.3558 44.564ZM226.561 45.6338C225.685 44.2723 224.759 42.9351 223.809 41.598C223.712 41.4521 223.517 41.4278 223.371 41.525C223.249 41.6223 223.201 41.8168 223.298 41.9627C224.248 43.2755 225.198 44.6127 226.074 45.9741C226.123 46.0471 226.22 46.0957 226.318 46.0957C226.366 46.0957 226.44 46.0957 226.488 46.0471C226.634 45.9741 226.659 45.7796 226.561 45.6338ZM77.8825 37.2947C77.7608 37.1975 77.5659 37.1975 77.4685 37.319C76.3482 38.486 75.2523 39.7016 74.1564 40.9172C74.0347 41.0631 74.059 41.2333 74.1808 41.3548C74.2295 41.4035 74.3025 41.4278 74.3756 41.4278C74.4487 41.4278 74.5461 41.4035 74.5948 41.3305C75.6907 40.1149 76.811 38.8993 77.9069 37.7323C78.0286 37.6108 78.0043 37.4163 77.8825 37.2947ZM220.838 37.708C219.815 36.4195 218.744 35.1553 217.672 33.9397C217.575 33.8181 217.38 33.8181 217.258 33.9154C217.112 34.0369 217.112 34.2314 217.234 34.353C218.281 35.5443 219.353 36.8085 220.351 38.0727C220.424 38.1457 220.497 38.1943 220.595 38.1943C220.668 38.1943 220.716 38.17 220.79 38.1213C220.911 38.0241 220.936 37.8296 220.838 37.708ZM84.7502 30.3415C84.6285 30.2199 84.458 30.2199 84.3362 30.3415C83.1916 31.4355 82.0226 32.6025 80.8537 33.7914C80.7319 33.9153 80.7319 34.1098 80.8537 34.2071C80.9024 34.28 80.9754 34.3043 81.0728 34.3043C81.1459 34.3043 81.219 34.28 81.292 34.2071C82.4366 33.0401 83.6056 31.8731 84.7502 30.7791C84.872 30.6575 84.872 30.463 84.7502 30.3415ZM214.36 30.3658C213.216 29.1988 212.047 28.0318 210.853 26.9378C210.731 26.8162 210.537 26.8162 210.415 26.9378C210.317 27.0593 210.317 27.2538 210.439 27.3754C211.633 28.4694 212.802 29.6364 213.922 30.7791C213.971 30.8277 214.044 30.8763 214.141 30.8763C214.214 30.8763 214.287 30.852 214.336 30.7791C214.458 30.6575 214.458 30.463 214.36 30.3658ZM92.0076 23.7772C91.8858 23.6557 91.691 23.6313 91.5693 23.7529C90.6925 24.5066 89.8158 25.2603 88.9634 26.0382C88.7442 26.2084 88.5494 26.4029 88.3546 26.5974C88.2085 26.719 88.038 26.8405 87.8919 26.9864C87.7701 27.1055 87.7701 27.3025 87.8675 27.424C87.9406 27.4726 88.0136 27.5213 88.111 27.5213C88.1841 27.5213 88.2572 27.497 88.3059 27.4483C88.5738 27.2052 88.8417 26.9621 89.1095 26.719L89.9863 25.9167C90.6438 25.3308 91.3014 24.774 91.9589 24.2148C92.0807 24.0933 92.105 23.8988 92.0076 23.7772ZM207.2 23.68C205.958 22.6102 204.667 21.5891 203.401 20.5923C203.255 20.4951 203.06 20.5194 202.963 20.641C202.865 20.7868 202.89 20.9813 203.011 21.0761C204.302 22.0511 205.568 23.0965 206.811 24.1419C206.859 24.1905 206.932 24.2148 207.005 24.2148C207.078 24.2148 207.176 24.1662 207.225 24.0933C207.346 23.9717 207.322 23.7772 207.2 23.68ZM99.6546 17.6992C99.5572 17.5776 99.3624 17.529 99.2406 17.6506C97.9499 18.5744 96.6592 19.5955 95.3441 20.6166C95.2223 20.7382 95.1979 20.9084 95.2954 21.0543C95.3684 21.1272 95.4415 21.1758 95.5389 21.1758C95.612 21.1758 95.6607 21.1515 95.7337 21.1029C97.0245 20.0575 98.3152 19.0607 99.6059 18.1368C99.7277 18.0371 99.7521 17.8451 99.6546 17.6992ZM199.431 17.6992C198.092 16.751 196.728 15.8515 195.34 14.9762C195.218 14.9033 195.023 14.9276 194.926 15.0735C194.829 15.2194 194.877 15.4139 195.023 15.4868C196.387 16.362 197.751 17.2616 199.09 18.1854C199.139 18.2341 199.212 18.2341 199.261 18.2341C199.358 18.2341 199.456 18.2097 199.504 18.1125C199.602 17.9666 199.578 17.7964 199.431 17.6992ZM107.789 12.2533C107.691 12.1317 107.497 12.0831 107.375 12.156C105.987 13.007 104.598 13.8822 103.235 14.8061C103.089 14.9033 103.064 15.0978 103.162 15.2437C103.21 15.3166 103.308 15.3652 103.405 15.3652C103.478 15.3652 103.527 15.3409 103.576 15.3166C104.939 14.3903 106.303 13.5175 107.691 12.6909C107.837 12.5937 107.862 12.3992 107.789 12.2533ZM191.151 12.4721C189.714 11.6698 188.253 10.8675 186.816 10.1357C186.67 10.0652 186.475 10.1357 186.402 10.284C186.329 10.4299 186.402 10.6001 186.548 10.6949C187.985 11.4267 189.422 12.1804 190.835 12.9826C190.883 13.0313 190.932 13.0313 190.981 13.0313C191.102 13.0313 191.2 12.9826 191.249 12.8854C191.346 12.7395 191.297 12.545 191.151 12.4721ZM116.386 7.63399C116.313 7.46381 116.142 7.41518 115.972 7.48812C114.535 8.16886 113.049 8.9201 111.612 9.70052C111.466 9.79777 111.417 9.96795 111.491 10.1138C111.539 10.2354 111.661 10.284 111.758 10.284C111.807 10.284 111.856 10.2597 111.905 10.2354C113.341 9.4574 114.803 8.72804 116.239 8.02299C116.386 7.95005 116.459 7.77987 116.386 7.63399ZM182.384 8.02299C180.898 7.36656 179.388 6.71013 177.878 6.10233C177.732 6.05371 177.537 6.12664 177.489 6.27252C177.416 6.44027 177.489 6.61289 177.659 6.68582C179.169 7.26931 180.679 7.92574 182.14 8.58216C182.189 8.60648 182.213 8.60648 182.262 8.60648C182.384 8.60648 182.506 8.53354 182.554 8.43629C182.627 8.26368 182.554 8.09592 182.384 8.02299ZM125.08 3.79268C123.546 4.30324 121.987 4.88673 120.477 5.49453C120.307 5.56747 120.233 5.73765 120.307 5.88109C120.355 6.00508 120.477 6.07802 120.574 6.07802C120.623 6.07802 120.672 6.07802 120.696 6.05371C122.206 5.44591 123.74 4.86242 125.275 4.35186C125.421 4.30324 125.518 4.13305 125.445 3.98718C125.396 3.817 125.226 3.74406 125.08 3.79268ZM173.276 4.40049C171.717 3.86562 170.158 3.37938 168.6 2.94176C168.429 2.89314 168.259 2.99039 168.21 3.16057C168.161 3.30644 168.259 3.47663 168.429 3.52525C169.964 3.96287 171.547 4.44911 173.081 4.98398H173.178C173.3 4.98398 173.422 4.91104 173.47 4.78948C173.519 4.61686 173.446 4.44911 173.276 4.40049ZM134.553 1.26423C132.946 1.57785 131.339 1.94497 129.78 2.38258C129.61 2.4069 129.512 2.57708 129.561 2.74726C129.585 2.86883 129.707 2.96607 129.853 2.96607H129.926C131.485 2.55277 133.092 2.18566 134.675 1.87203C134.821 1.84772 134.943 1.67753 134.919 1.50735C134.87 1.36148 134.724 1.23992 134.553 1.26423ZM163.826 1.75047C162.219 1.4101 160.587 1.09404 159.004 0.850923C158.834 0.826611 158.663 0.948171 158.639 1.09404C158.615 1.26423 158.737 1.43441 158.907 1.45872C160.49 1.70185 162.097 1.99359 163.705 2.33396C163.729 2.35827 163.753 2.35827 163.753 2.35827C163.899 2.35827 164.021 2.26102 164.07 2.11515C164.094 1.94497 163.997 1.79909 163.826 1.75047ZM144.319 0.0729362H144.295C142.663 0.170185 141.007 0.316057 139.4 0.510554C139.229 0.534866 139.107 0.680738 139.132 0.850923C139.156 0.996795 139.278 1.11836 139.448 1.11836H139.473C141.08 0.923859 142.712 0.777987 144.344 0.680738C144.49 0.680738 144.636 0.534866 144.611 0.36225C144.611 0.218809 144.465 0.0729362 144.319 0.0729362ZM154.109 0.267433C152.502 0.12156 150.846 0.0243121 149.214 0C149.044 0 148.898 0.12156 148.898 0.291745C148.898 0.46193 149.019 0.607802 149.19 0.607802C150.822 0.632114 152.453 0.729362 154.061 0.875235H154.085C154.255 0.875235 154.377 0.753674 154.402 0.58349C154.402 0.410874 154.28 0.267433 154.109 0.267433Z" fill="#D8D5DB"/>
<path fill-rule="evenodd" clip-rule="evenodd" d="M241.372 65.8041L238.207 71.28L237.794 71.9827L233.214 79.8573L232.218 81.6019L202.857 132.194L197.988 140.577L193.119 132.194L175.711 102.197L173.033 97.5935L167.066 87.2958L153.094 63.2115H242.882L241.372 65.8041ZM151 62L167.066 89.6946L171.643 97.5935L174.323 102.197L191.728 132.194L197.988 143L204.269 132.194L233.311 82.1107L234.334 80.3661L242.273 66.7006L244.464 62.8965L244.659 62.5815L245 62H151Z" fill="white"/>
<path fill-rule="evenodd" clip-rule="evenodd" d="M165.979 186.049C166.052 186.316 165.931 186.707 165.664 187.19C165.056 188.33 163.602 189.957 162.072 191.291C161.754 191.561 161.438 191.825 161.123 192.044C160.2 192.796 159.302 193.381 158.597 193.597C156.121 194.422 145.412 193.014 142.814 191.607C142.647 191.51 142.523 191.413 142.401 191.291C141.335 191.364 139.755 191.388 137.836 191.291C136.962 191.245 136.015 191.17 134.995 191.024C132.591 190.757 129.848 190.199 126.885 189.253C125.428 188.818 123.898 188.258 122.344 187.578C120.888 186.923 119.382 186.171 117.877 185.297C117.512 185.103 117.245 184.86 116.93 184.668C117.221 186.901 117.512 189.107 117.828 191.291C117.925 191.898 118.022 192.505 118.095 193.087C118.362 194.81 118.629 196.512 118.921 198.184C120.062 204.761 121.373 210.949 122.951 216.483C123.097 217.065 123.267 217.65 123.437 218.206C122.927 218.278 122.417 218.354 121.932 218.424C122.053 218.982 122.15 219.567 122.247 220.147C123.461 226.7 124.384 234.781 125.064 243.081C96.557 254.366 70.0168 257.012 51.7082 245.824C45.8805 242.281 40.9027 237.33 36.9447 230.801C36.3134 229.758 35.682 228.714 35.0507 227.671C35.1721 224.249 35.3178 221.361 35.4392 219.395C34.9779 219.346 34.7351 219.346 34.7351 219.346C34.7351 215.39 34.905 210.197 35.1721 204.202C35.1964 203.96 35.1964 203.717 35.1964 203.45C35.2935 201.751 35.3907 200.004 35.5121 198.184C35.6092 195.951 35.7549 193.672 35.9006 191.291C36.1191 187.845 36.3619 184.253 36.629 180.613C30.7042 179.035 25.7507 177.337 22.9583 175.638C19.316 173.429 17.9319 170.347 18.029 167.314C17.9805 166.707 17.9805 166.052 18.1262 165.372C19.5102 160.785 24.2695 147.122 29.6601 133.555L23.6867 131.517C23.6867 131.517 41.1455 100.428 51.3925 93.5842C51.4411 93.56 51.4653 93.5357 51.5139 93.5114C55.1319 90.1623 60.3525 88.0024 68.1713 87.1287C68.2199 80.6489 67.71 69.7035 67.1758 61.3307C64.6262 60.7483 62.9022 58.6369 61.9309 56.8895C61.8095 56.6953 61.6881 56.5012 61.6152 56.3313C61.2267 55.579 61.0082 54.948 60.911 54.6325C60.3768 52.4968 60.8867 50.7252 61.9309 49.5845C61.7123 47.8129 61.3967 44.9006 61.2753 41.8427C61.0324 36.2123 61.3481 30.048 63.8977 29.4898C63.8734 29.417 63.8249 29.3684 63.8006 29.3199C63.145 27.3056 64.3348 25.0728 64.3834 25L65.4518 25.5582C65.4518 25.5825 64.4805 27.4269 64.9418 28.9316C66.9815 26.6746 73.8533 25.9465 81.0651 26.3591C81.4779 26.3591 81.915 26.4076 82.3277 26.4319C83.8089 26.5532 85.2901 26.6988 86.7471 26.9173C87.2327 26.9658 87.6941 27.0386 88.1554 27.1357C88.3982 27.1599 88.6653 27.2085 88.9082 27.257C90.4865 27.524 91.992 27.8637 93.376 28.252C95.7557 28.9073 97.7468 29.7325 99.0823 30.6789C99.5194 30.9702 99.8593 31.2857 100.151 31.6012C101.365 33.0088 101.559 34.0038 101.025 34.6591C100.709 35.0231 100.199 35.2901 99.5194 35.4842C99.8108 37.5228 99.9322 39.2945 99.9807 40.9205C100.126 41.3088 100.272 41.7214 100.418 42.1339C100.539 42.498 100.661 42.8863 100.782 43.2746C100.806 43.2988 100.831 43.2988 100.855 43.3231C101.001 43.4445 101.146 43.5415 101.292 43.6629C101.826 44.1483 102.312 44.755 102.676 45.5559L101.583 46.0655C101.559 46.017 101.535 45.9927 101.511 45.9442C101.802 47.1819 102.069 48.4681 102.263 49.8272C102.555 51.8415 102.87 53.8559 103.186 55.8217C103.283 56.574 103.38 57.3263 103.477 58.0544C103.696 59.5591 103.89 61.0395 104.012 62.4471C104.06 62.8839 104.109 63.2965 104.109 63.7091C104.619 70.1161 104.012 75.431 100.175 78.1006C99.4465 78.6345 98.5724 79.0714 97.5768 79.3626C96.3142 79.7752 94.8087 79.9936 93.0604 80.0179C93.1089 81.7167 93.2061 83.367 93.3518 84.9202C93.4246 85.5269 93.4975 86.1337 93.5946 86.6918C93.6674 87.2743 93.7646 87.8568 93.886 88.3907C100.369 89.9439 105.25 92.5649 108.334 96.1325C108.479 96.2781 108.649 96.4237 108.795 96.5936C110.519 98.2682 112.195 100.843 113.773 103.923C115.764 107.782 117.634 112.468 119.285 117.149C119.406 117.513 119.528 117.902 119.673 118.266C119.795 118.678 119.941 119.067 120.062 119.479C120.742 121.494 121.373 123.508 121.956 125.428C122.393 126.857 122.782 128.243 123.17 129.551C125.04 136.13 126.132 140.984 126.132 140.984L123.17 141.685L121.956 141.977L121.082 142.198C121.373 143.36 121.665 144.501 121.956 145.666C121.98 145.787 122.029 145.933 122.053 146.056C122.442 147.561 122.806 149.09 123.17 150.568C125.04 158.164 126.618 165.202 127.322 169.862C129.411 171.585 130.94 174.279 133.199 176.781C135.481 179.302 138.565 181.584 143.785 182.482C143.81 182.482 143.81 182.506 143.834 182.506C145.876 180.904 149.662 179.014 151.968 178.31C152.284 178.235 152.554 178.162 152.794 178.113C152.988 178.065 153.161 178.04 153.304 178.04C154.278 177.846 154.421 177.919 155.004 178.283C155.222 178.453 155.514 178.671 155.975 178.938C157.869 180.055 159.86 181.098 161.584 182.118C163.721 183.358 165.396 184.545 165.882 185.807C165.931 185.882 165.955 185.976 165.979 186.049Z" fill="#D1CDD3"/>
<path fill-rule="evenodd" clip-rule="evenodd" d="M174.065 179.054C172.345 178.016 172.847 177.885 170.903 178.245C168.804 178.636 164.289 180.819 162.005 182.638C161.981 182.636 161.964 182.623 161.94 182.619C151.597 180.832 149.778 173.457 145.596 169.966C143.278 154.658 131.598 113 131.598 113L114 119.596C116.564 137.148 126.883 170.53 129.56 178.062C129.999 178.974 130.566 179.699 131.2 180.287C132.078 182.157 133.656 183.961 136.205 185.446C146.756 191.595 156.742 191.68 160.562 191.435C160.685 191.559 160.825 191.666 160.984 191.756C163.573 193.18 174.19 194.576 176.67 193.757C179.191 192.923 184.352 187.656 183.981 186.198C183.378 183.815 178.375 181.656 174.065 179.054Z" fill="#FFAD69"/>
<path fill-rule="evenodd" clip-rule="evenodd" d="M112.327 148L144 140.42C144 140.42 128.53 71.8702 115.462 101.375C110.506 112.56 112.327 148 112.327 148Z" fill="#EFEFEF"/>
<path fill-rule="evenodd" clip-rule="evenodd" d="M142 234.625C136.459 237.407 130.914 239.891 125.444 242.036C96.9028 253.373 70.3331 256.03 52 244.791C52.2674 234.235 52.6321 223.24 52.9238 218.242C52.9724 217.657 53.0211 217.145 53.0454 216.731L62.8671 216.536H63.3047L63.329 216.512L116.473 215.466H116.524L119.925 215.39L123.329 215.317L139.034 215C139.207 215.731 139.374 216.512 139.52 217.294C140.541 222.267 141.344 228.238 142 234.625Z" fill="#232323"/>
<path fill-rule="evenodd" clip-rule="evenodd" d="M63.3459 104.358C59.5984 117.069 53 193.837 53 219.489C53 219.489 110.273 223.557 142 218.344C132.051 184.674 130.977 124.136 130.777 106.099C130.628 92.5687 116.511 85.2566 92.2515 86.0599C73.1143 86.6922 66.6451 93.1644 63.3459 104.358Z" fill="white"/>
<mask id="mask1" mask-type="alpha" maskUnits="userSpaceOnUse" x="0" y="0" width="259" height="252">
<path fill-rule="evenodd" clip-rule="evenodd" d="M0 252H259V0H0V252Z" fill="white"/>
</mask>
<g mask="url(#mask1)">
<path fill-rule="evenodd" clip-rule="evenodd" d="M107.602 54.6315C109.486 53.1799 119.324 54.497 116.491 34.0373C115.458 26.5725 108.596 31.5548 103.738 32.5508C98.8779 33.5468 101.969 55 101.969 55L107.602 54.6315Z" fill="#232323"/>
<path fill-rule="evenodd" clip-rule="evenodd" d="M84 50C84.8024 55.3502 86.4072 84.2949 85.7389 91.0183C85.0707 97.7417 116.774 99.6602 112.626 92.2539C108.479 84.8452 111.423 60.2877 111.423 60.2877L84 50Z" fill="#FFAD69"/>
<path fill-rule="evenodd" clip-rule="evenodd" d="M86.0106 51L112 60.2356C112 60.2356 110.245 74.18 111.304 84C91.4869 82.5126 86.4005 58.2213 86.0674 53.5436C86.0106 52.6622 85.9835 51.8119 86.0106 51Z" fill="#D88344"/>
<path fill-rule="evenodd" clip-rule="evenodd" d="M118.993 49.9479C121.347 66.1855 125.345 82.3773 105.673 79.71C85.9995 77.0452 82.9452 51.809 83.0007 47.0514C83.3071 21.651 114.363 18.0182 118.993 49.9479Z" fill="#FFAD69"/>
<path fill-rule="evenodd" clip-rule="evenodd" d="M117.845 31.7649C113.197 26.2252 87.0677 24.1351 82.7423 29.0411C82.2676 27.5002 83.2363 25.6064 83.246 25.589L82.1804 25C82.1295 25.0944 80.9501 27.3784 81.5919 29.4312C81.6137 29.4959 81.6669 29.5406 81.6887 29.6052C76.908 30.6863 79.9595 52 79.9595 52L85.5565 51.6322C87.4286 50.1858 93.9265 40.0011 95.3578 33.855C105.59 35.632 123.752 38.8057 117.845 31.7649Z" fill="#232323"/>
<path fill-rule="evenodd" clip-rule="evenodd" d="M115.363 178.984C113.358 179.095 105.576 180.441 102.844 179.811C93.6631 177.676 70.0034 167.109 57.2678 161.204C65.1034 144.27 76.637 114.299 76.637 114.299L58.5013 109C50.0854 124.522 38.4619 157.305 36.1212 164.912C35.9901 165.594 35.9804 166.234 36.0217 166.848C35.9391 169.858 37.3232 172.931 40.9581 175.135C51.0397 181.249 89.0715 187.181 99.6048 188.339C99.799 188.731 100.056 189.086 100.474 189.321C103.05 190.761 114.773 191.84 117.184 192.265C120.207 192.797 129.383 193.57 128.988 192.347C128.339 190.343 124.937 178.45 115.363 178.984Z" fill="#FFAD69"/>
<path fill-rule="evenodd" clip-rule="evenodd" d="M68.2583 93.1186C58.1891 100.001 41 131.307 41 131.307L71.6091 142C71.6091 142 94.821 74.964 68.2583 93.1186Z" fill="white"/>
<path fill-rule="evenodd" clip-rule="evenodd" d="M102.166 49.4104C102.088 50.238 102.619 50.947 103.354 50.9974C104.092 51.0454 104.752 50.4171 104.833 49.5896C104.914 48.7645 104.38 48.053 103.642 48.0026C102.907 47.9546 102.244 48.5829 102.166 49.4104Z" fill="#232323"/>
<path fill-rule="evenodd" clip-rule="evenodd" d="M116.167 49.4104C116.089 50.238 116.62 50.947 117.355 50.9974C118.093 51.0454 118.753 50.4171 118.834 49.5896C118.912 48.7645 118.378 48.053 117.643 48.0026C116.908 47.9546 116.245 48.5829 116.167 49.4104Z" fill="#232323"/>
<path fill-rule="evenodd" clip-rule="evenodd" d="M100.034 44L99 43.1852C101.181 39.1439 104.842 40.0811 105 40.1228L104.731 41.5794C104.613 41.5495 101.738 40.8392 100.034 44Z" fill="#232323"/>
<path fill-rule="evenodd" clip-rule="evenodd" d="M119.791 46C118.382 43.0943 115.218 43.2533 115.093 43.2659L115 42.0062C115.17 41.9961 119.202 41.7613 121 45.4724L119.791 46Z" fill="#232323"/>
<path fill-rule="evenodd" clip-rule="evenodd" d="M107.635 63C105.538 63 101.504 62.3382 99 57.7114L100.062 57C103.098 62.6085 108.543 61.5855 108.774 61.5386L109 62.8925C108.98 62.898 108.456 63 107.635 63Z" fill="#232323"/>
<path fill-rule="evenodd" clip-rule="evenodd" d="M117 58L111 57.9163L111.017 56.6481L115.344 56.709L112.673 47.3576L113.857 47L117 58Z" fill="#D88344"/>
<path fill-rule="evenodd" clip-rule="evenodd" d="M89.0686 52.5447C90.8052 56.4567 92.983 60.2414 87.5255 60.9437C82.0679 61.6483 79.5291 55.5282 79.22 54.3286C77.5683 47.9304 85.6496 44.8526 89.0686 52.5447Z" fill="#FFAD69"/>
<path fill-rule="evenodd" clip-rule="evenodd" d="M241.541 198H8.45892C6.55651 198 5 196.425 5 194.5C5 192.575 6.55651 191 8.45892 191H241.541C243.443 191 245 192.575 245 194.5C245 196.425 243.443 198 241.541 198Z" fill="white"/>
<path fill-rule="evenodd" clip-rule="evenodd" d="M95.5377 198H7.46235C5.55806 198 4 196.425 4 194.5C4 192.575 5.55806 191 7.46235 191H95.5377C97.4419 191 99 192.575 99 194.5C99 196.425 97.4419 198 95.5377 198Z" fill="#D8D5DB"/>
<path fill-rule="evenodd" clip-rule="evenodd" d="M230.019 185H157.202C154.423 185 152.578 182.774 153.083 180.031L161.024 136.969C161.532 134.223 164.196 132 166.981 132H239.795C242.577 132 244.422 134.223 243.917 136.969L235.976 180.031C235.468 182.774 232.804 185 230.019 185Z" fill="#2B2B2B"/>
<path fill-rule="evenodd" clip-rule="evenodd" d="M231.019 185H158.202C155.423 185 153.578 182.774 154.083 180.031L162.024 136.969C162.53 134.223 165.196 132 167.978 132H240.793C243.577 132 245.422 134.223 244.917 136.969L236.973 180.031C236.468 182.774 233.801 185 231.019 185Z" fill="#232323"/>
<path fill-rule="evenodd" clip-rule="evenodd" d="M145 186C145 188.749 146.83 191 149.068 191H223.932C226.17 191 228 188.749 228 186H145Z" fill="#232323"/>
<path fill-rule="evenodd" clip-rule="evenodd" d="M122 186C122 188.749 123.848 191 126.111 191H155.886C158.149 191 160 188.749 160 186H122Z" fill="#2B2B2B"/>
<path fill-rule="evenodd" clip-rule="evenodd" d="M79.5 235C86.9558 235 93 228.956 93 221.5C93 214.044 86.9558 208 79.5 208C72.0442 208 66 214.044 66 221.5C66 228.956 72.0442 235 79.5 235Z" fill="#FF4E4A" stroke="#FF4E4A"/>
<path fill-rule="evenodd" clip-rule="evenodd" d="M245.975 23H185.025C182.248 23 180 25.1691 180 27.8405V55.1709C180 57.8455 182.248 60.0146 185.025 60.0146H189.878L195.35 67.0568C196.566 68.6224 199.119 68.156 199.654 66.2707L201.428 60.0146H245.975C248.752 60.0146 251 57.8455 251 55.1709V27.8405C251 25.1691 248.752 23 245.975 23Z" fill="#FF4E4A"/>
<path fill-rule="evenodd" clip-rule="evenodd" d="M187 34.75H220V30.25H187V34.75Z" fill="white"/>
<path fill-rule="evenodd" clip-rule="evenodd" d="M227 34.75H239V30.25H227V34.75Z" fill="white"/>
<path fill-rule="evenodd" clip-rule="evenodd" d="M189 43.75H213V39.25H189V43.75Z" fill="white"/>
<path fill-rule="evenodd" clip-rule="evenodd" d="M189 50.75H234V46.25H189V50.75Z" fill="white"/>
</g>
</svg>
